<svg width="375" height="124" viewBox="0 0 375 124" fill="none" xmlns="http://www.w3.org/2000/svg">
    <path opacity="0.2" d="M503.5 84.0759C503.5 161.781 442.817 224.741 368 224.741C293.183 224.741 232.5 161.781 232.5 84.0759C232.5 6.37132 293.183 -56.5886 368 -56.5886C442.817 -56.5886 503.5 6.37132 503.5 84.0759Z" stroke="white"/>
    <path opacity="0.2" d="M463.5 84.076C463.5 138.85 420.726 183.222 368 183.222C315.274 183.222 272.5 138.85 272.5 84.076C272.5 29.3017 315.274 -15.0696 368 -15.0696C420.726 -15.0696 463.5 29.3017 463.5 84.076Z" stroke="white"/>
    <path opacity="0.2" d="M185.843 101.078C185.904 102.605 185.947 104.138 185.973 105.674C185.697 105.679 185.476 105.905 185.48 106.181C185.493 107.115 185.5 108.05 185.5 108.987C185.5 109.924 185.493 110.86 185.48 111.793C185.476 112.069 185.697 112.296 185.973 112.3C185.947 113.837 185.904 115.369 185.843 116.897C185.568 116.886 185.335 117.1 185.323 117.375C185.244 119.245 185.139 121.107 185.008 122.961C184.989 123.237 185.196 123.476 185.471 123.495C185.359 125.026 185.23 126.551 185.083 128.071C184.808 128.044 184.564 128.245 184.537 128.519C184.352 130.382 184.141 132.236 183.904 134.082C183.869 134.356 184.062 134.606 184.336 134.641C184.137 136.165 183.92 137.683 183.686 139.195C183.413 139.152 183.158 139.338 183.115 139.611C182.824 141.456 182.508 143.292 182.166 145.118C182.115 145.39 182.294 145.651 182.565 145.702C182.278 147.213 181.974 148.718 181.653 150.216C181.383 150.158 181.117 150.329 181.059 150.599C180.663 152.421 180.242 154.233 179.796 156.034C179.73 156.302 179.893 156.573 180.16 156.639C179.787 158.133 179.395 159.62 178.987 161.099C178.722 161.025 178.446 161.18 178.372 161.446C177.871 163.244 177.345 165.03 176.795 166.805C176.713 167.068 176.86 167.348 177.123 167.43C176.664 168.897 176.188 170.355 175.695 171.806C175.434 171.717 175.15 171.856 175.061 172.117C174.456 173.884 173.827 175.638 173.173 177.379C173.076 177.638 173.206 177.926 173.464 178.023C172.921 179.458 172.362 180.885 171.786 182.303C171.53 182.199 171.239 182.321 171.134 182.577C170.427 184.305 169.696 186.02 168.941 187.722C168.829 187.974 168.943 188.269 169.195 188.382C168.568 189.784 167.925 191.177 167.267 192.56C167.018 192.441 166.72 192.547 166.6 192.795C165.794 194.477 164.965 196.145 164.112 197.798C163.986 198.043 164.082 198.344 164.327 198.471C163.619 199.835 162.895 201.189 162.156 202.533C161.914 202.399 161.61 202.487 161.477 202.728C160.574 204.359 159.648 205.975 158.7 207.575C158.559 207.812 158.638 208.118 158.875 208.259C158.088 209.579 157.286 210.888 156.469 212.186C156.236 212.038 155.927 212.108 155.779 212.341C154.782 213.917 153.762 215.476 152.72 217.018C152.566 217.247 152.626 217.557 152.854 217.712C151.992 218.982 151.115 220.24 150.224 221.486C150 221.325 149.688 221.376 149.526 221.6C148.437 223.115 147.326 224.611 146.195 226.09C146.027 226.309 146.069 226.623 146.288 226.791C145.351 228.007 144.401 229.212 143.437 230.404C143.222 230.23 142.908 230.262 142.734 230.476C141.557 231.922 140.361 233.35 139.144 234.758C138.963 234.967 138.986 235.282 139.194 235.463C138.187 236.622 137.166 237.768 136.132 238.901C135.929 238.715 135.613 238.729 135.426 238.932C134.166 240.305 132.886 241.658 131.587 242.991C131.395 243.188 131.399 243.505 131.596 243.697C130.522 244.794 129.434 245.877 128.334 246.946C128.142 246.748 127.826 246.742 127.627 246.934C126.287 248.229 124.928 249.503 123.55 250.756C123.346 250.942 123.331 251.257 123.516 251.462C122.378 252.491 121.228 253.506 120.065 254.506C119.886 254.297 119.57 254.273 119.361 254.452C117.945 255.663 116.511 256.853 115.059 258.02C114.844 258.193 114.81 258.507 114.983 258.723C113.784 259.681 112.574 260.624 111.352 261.552C111.186 261.332 110.873 261.289 110.652 261.455C109.166 262.577 107.662 263.677 106.142 264.753C105.917 264.913 105.863 265.224 106.023 265.45C104.768 266.333 103.502 267.2 102.225 268.051C102.073 267.822 101.763 267.759 101.533 267.911C99.9804 268.94 98.412 269.945 96.828 270.926C96.5934 271.071 96.5208 271.379 96.6657 271.613C95.3591 272.417 94.042 273.205 92.7146 273.975C92.5765 273.737 92.2711 273.655 92.032 273.793C90.4196 274.723 88.7921 275.628 87.1499 276.508C86.9067 276.639 86.8151 276.941 86.9451 277.185C85.5909 277.905 84.2268 278.609 82.8531 279.296C82.7302 279.049 82.4305 278.948 82.1833 279.071C80.5165 279.898 78.8357 280.699 77.1413 281.475C76.8904 281.59 76.78 281.886 76.8944 282.137C75.4985 282.771 74.0934 283.387 72.6795 283.986C72.5724 283.732 72.2796 283.612 72.0252 283.719C70.3089 284.44 68.5797 285.134 66.8378 285.801C66.5802 285.9 66.4512 286.189 66.5495 286.446C65.1176 286.99 63.6773 287.516 62.2288 288.023C62.138 287.763 61.8533 287.625 61.5927 287.716C59.8352 288.326 58.0658 288.909 56.2848 289.464C56.0214 289.546 55.8744 289.826 55.9561 290.089C54.4917 290.541 53.0195 290.975 51.5399 291.389C51.4659 291.123 51.1907 290.968 50.9248 291.041C49.1341 291.538 47.3325 292.006 45.5204 292.446C45.2523 292.511 45.0877 292.781 45.1524 293.049C43.661 293.407 42.1626 293.746 40.6574 294.065C40.6005 293.796 40.3358 293.623 40.0657 293.679C38.2485 294.06 36.4213 294.412 34.5848 294.735C34.3131 294.783 34.1316 295.042 34.179 295.314C32.6702 295.575 31.155 295.817 29.6338 296.04C29.5942 295.767 29.3411 295.577 29.0679 295.616C27.2277 295.88 25.3786 296.116 23.5212 296.322C23.2469 296.352 23.0493 296.599 23.0793 296.873C21.5597 297.038 20.0346 297.182 18.5041 297.308C18.482 297.033 18.2414 296.828 17.9663 296.849C16.113 296.996 14.2518 297.113 12.3833 297.201C12.1077 297.214 11.8948 297.448 11.9074 297.724C10.3806 297.791 8.84894 297.84 7.31261 297.868C7.30789 297.592 7.0807 297.372 6.80482 297.377C5.87158 297.391 4.93661 297.399 4 297.399C3.0634 297.399 2.12845 297.391 1.19522 297.377C0.919342 297.372 0.692154 297.592 0.687439 297.868C-0.848892 297.84 -2.38057 297.791 -3.90738 297.724C-3.89474 297.448 -4.10768 297.214 -4.38327 297.201C-6.25179 297.113 -8.11292 296.996 -9.96625 296.849C-10.2413 296.828 -10.4819 297.033 -10.504 297.308C-12.0345 297.182 -13.5596 297.038 -15.0792 296.873C-15.0492 296.599 -15.2469 296.352 -15.5211 296.322C-17.3785 296.116 -19.2276 295.88 -21.0679 295.616C-21.341 295.577 -21.5941 295.767 -21.6337 296.04C-23.1549 295.817 -24.67 295.575 -26.1789 295.314C-26.1315 295.042 -26.313 294.783 -26.5847 294.735C-28.4212 294.412 -30.2484 294.06 -32.0656 293.679C-32.3357 293.623 -32.6004 293.796 -32.6573 294.065C-34.1625 293.746 -35.6609 293.407 -37.1523 293.049C-37.0876 292.781 -37.2522 292.511 -37.5203 292.446C-39.3324 292.006 -41.134 291.538 -42.9247 291.041C-43.1906 290.968 -43.4658 291.123 -43.5399 291.389C-45.0195 290.975 -46.4916 290.541 -47.956 290.089C-47.8743 289.826 -48.0214 289.546 -48.2848 289.464C-50.0657 288.909 -51.8352 288.326 -53.5926 287.716C-53.8533 287.625 -54.1379 287.763 -54.2287 288.024C-55.6772 287.516 -57.1175 286.99 -58.5494 286.446C-58.4511 286.189 -58.5801 285.9 -58.8377 285.801C-60.5796 285.134 -62.3089 284.44 -64.0251 283.719C-64.2795 283.612 -64.5723 283.732 -64.6795 283.986C-66.0934 283.387 -67.4984 282.771 -68.8944 282.137C-68.7799 281.886 -68.8904 281.59 -69.1413 281.475C-70.8357 280.699 -72.5165 279.898 -74.1833 279.071C-74.4304 278.948 -74.7302 279.049 -74.8531 279.296C-76.2268 278.609 -77.5908 277.905 -78.9451 277.185C-78.8151 276.941 -78.9067 276.639 -79.1499 276.508C-80.792 275.628 -82.4196 274.723 -84.032 273.793C-84.271 273.655 -84.5765 273.737 -84.7146 273.975C-86.042 273.205 -87.3591 272.417 -88.6657 271.613C-88.5208 271.379 -88.5934 271.071 -88.828 270.926C-90.412 269.945 -91.9804 268.94 -93.5328 267.911C-93.7628 267.759 -94.0727 267.822 -94.2254 268.051C-95.5021 267.2 -96.7679 266.333 -98.0225 265.45C-97.8635 265.224 -97.9169 264.913 -98.1421 264.753C-99.6623 263.677 -101.166 262.577 -102.652 261.455C-102.873 261.289 -103.186 261.332 -103.352 261.552C-104.574 260.624 -105.784 259.681 -106.983 258.723C-106.81 258.507 -106.844 258.193 -107.059 258.02C-108.511 256.853 -109.945 255.663 -111.361 254.452C-111.57 254.273 -111.886 254.297 -112.065 254.506C-113.228 253.506 -114.378 252.491 -115.516 251.462C-115.331 251.257 -115.346 250.942 -115.55 250.756C-116.928 249.503 -118.287 248.229 -119.627 246.934C-119.826 246.742 -120.142 246.748 -120.334 246.946C-121.434 245.877 -122.522 244.794 -123.596 243.697C-123.399 243.505 -123.395 243.188 -123.587 242.991C-124.886 241.658 -126.166 240.305 -127.426 238.932C-127.613 238.729 -127.929 238.715 -128.132 238.901C-129.166 237.768 -130.187 236.622 -131.194 235.463C-130.986 235.282 -130.963 234.967 -131.144 234.758C-132.361 233.35 -133.557 231.922 -134.734 230.476C-134.908 230.262 -135.222 230.23 -135.437 230.404C-136.401 229.212 -137.351 228.007 -138.288 226.791C-138.069 226.623 -138.027 226.309 -138.195 226.09C-139.326 224.611 -140.437 223.115 -141.526 221.6C-141.688 221.376 -142 221.325 -142.224 221.486C-143.115 220.239 -143.992 218.981 -144.854 217.712C-144.626 217.557 -144.566 217.247 -144.72 217.018C-145.762 215.476 -146.782 213.917 -147.779 212.341C-147.927 212.108 -148.236 212.038 -148.469 212.186C-149.286 210.888 -150.088 209.579 -150.875 208.259C-150.638 208.118 -150.559 207.812 -150.7 207.575C-151.648 205.975 -152.574 204.359 -153.477 202.728C-153.61 202.487 -153.914 202.399 -154.156 202.533C-154.895 201.189 -155.619 199.835 -156.327 198.471C-156.082 198.344 -155.986 198.043 -156.112 197.798C-156.965 196.145 -157.794 194.477 -158.6 192.795C-158.72 192.547 -159.018 192.441 -159.267 192.56C-159.925 191.177 -160.568 189.784 -161.195 188.382C-160.943 188.269 -160.829 187.974 -160.941 187.722C-161.696 186.02 -162.427 184.305 -163.134 182.577C-163.239 182.321 -163.53 182.199 -163.786 182.303C-164.362 180.885 -164.921 179.458 -165.464 178.023C-165.206 177.926 -165.076 177.638 -165.173 177.379C-165.827 175.638 -166.456 173.884 -167.061 172.117C-167.15 171.856 -167.434 171.717 -167.695 171.806C-168.188 170.355 -168.664 168.897 -169.123 167.43C-168.86 167.348 -168.713 167.068 -168.795 166.805C-169.345 165.03 -169.871 163.244 -170.372 161.446C-170.446 161.181 -170.721 161.025 -170.987 161.099C-171.395 159.62 -171.787 158.133 -172.16 156.64C-171.893 156.573 -171.73 156.302 -171.796 156.034C-172.242 154.233 -172.663 152.421 -173.059 150.599C-173.117 150.329 -173.383 150.158 -173.653 150.216C-173.974 148.718 -174.278 147.213 -174.565 145.702C-174.294 145.651 -174.115 145.39 -174.166 145.118C-174.508 143.292 -174.824 141.456 -175.115 139.611C-175.158 139.338 -175.413 139.152 -175.686 139.195C-175.92 137.683 -176.137 136.165 -176.336 134.641C-176.062 134.606 -175.869 134.356 -175.904 134.082C-176.141 132.236 -176.352 130.382 -176.537 128.519C-176.564 128.245 -176.808 128.044 -177.083 128.071C-177.23 126.551 -177.359 125.026 -177.471 123.495C-177.196 123.476 -176.989 123.237 -177.008 122.961C-177.139 121.107 -177.244 119.245 -177.323 117.375C-177.335 117.1 -177.568 116.886 -177.843 116.897C-177.904 115.369 -177.947 113.837 -177.973 112.3C-177.697 112.296 -177.476 112.069 -177.48 111.793C-177.493 110.86 -177.5 109.924 -177.5 108.987C-177.5 108.05 -177.493 107.115 -177.48 106.181C-177.476 105.906 -177.697 105.679 -177.973 105.674C-177.947 104.138 -177.904 102.605 -177.843 101.078C-177.568 101.089 -177.335 100.875 -177.323 100.599C-177.244 98.7302 -177.139 96.868 -177.008 95.0133C-176.989 94.738 -177.196 94.4991 -177.471 94.4794C-177.359 92.9489 -177.23 91.4236 -177.083 89.9036C-176.808 89.9305 -176.564 89.7299 -176.537 89.4553C-176.352 87.593 -176.141 85.7387 -175.904 83.8929C-175.869 83.6192 -176.062 83.3688 -176.336 83.3334C-176.137 81.8098 -175.92 80.292 -175.686 78.7802C-175.413 78.8228 -175.158 78.6365 -175.115 78.3639C-174.824 76.519 -174.508 74.683 -174.166 72.8565C-174.115 72.5852 -174.294 72.3242 -174.565 72.2732C-174.278 70.7618 -173.974 69.2569 -173.653 67.7588C-173.383 67.817 -173.117 67.6458 -173.059 67.3761C-172.663 65.5541 -172.242 63.7422 -171.796 61.9406C-171.73 61.6728 -171.893 61.4019 -172.16 61.3353C-171.787 59.8416 -171.395 58.3551 -170.987 56.8761C-170.722 56.9498 -170.446 56.7943 -170.372 56.5285C-169.871 54.7312 -169.345 52.9449 -168.795 51.1702C-168.713 50.9067 -168.86 50.6268 -169.123 50.5447C-168.664 49.0781 -168.188 47.6193 -167.695 46.1687C-167.434 46.2578 -167.15 46.1185 -167.061 45.8575C-166.456 44.0912 -165.827 42.3371 -165.173 40.5955C-165.076 40.3372 -165.206 40.0492 -165.464 39.9519C-164.921 38.5165 -164.362 37.0897 -163.786 35.6717C-163.53 35.7758 -163.239 35.6534 -163.134 35.398C-162.427 33.6695 -161.696 31.9543 -160.941 30.2528C-160.829 30.0005 -160.943 29.7054 -161.195 29.5932C-160.568 28.1909 -159.925 26.7979 -159.267 25.4145C-159.018 25.5334 -158.72 25.4282 -158.6 25.1794C-157.794 23.4975 -156.965 21.83 -156.112 20.1772C-155.986 19.9319 -156.082 19.6307 -156.327 19.5039C-155.619 18.1398 -154.895 16.7858 -154.156 15.4421C-153.914 15.5754 -153.61 15.4879 -153.477 15.2465C-152.574 13.6155 -151.648 11.9999 -150.7 10.4001C-150.559 10.1627 -150.638 9.85629 -150.875 9.71534C-150.088 8.39566 -149.286 7.08679 -148.469 5.78899C-148.236 5.93626 -147.927 5.86681 -147.779 5.63369C-146.782 4.05804 -145.762 2.49886 -144.72 0.956627C-144.566 0.727966 -144.626 0.417473 -144.854 0.262802C-143.992 -1.00675 -143.115 -2.26478 -142.224 -3.51102C-142 -3.35023 -141.688 -3.40135 -141.526 -3.62535C-140.437 -5.13979 -139.326 -6.63663 -138.195 -8.11543C-138.027 -8.33455 -138.069 -8.64804 -138.287 -8.81596C-137.351 -10.0327 -136.401 -11.2371 -135.437 -12.4289C-135.222 -12.2551 -134.908 -12.2877 -134.734 -12.5017C-133.557 -13.9477 -132.361 -15.3751 -131.144 -16.7833C-130.963 -16.9921 -130.986 -17.3075 -131.194 -17.4881C-130.187 -18.6473 -129.166 -19.7935 -128.132 -20.9264C-127.929 -20.7402 -127.613 -20.7539 -127.426 -20.9572C-126.166 -22.33 -124.886 -23.6832 -123.587 -25.0161C-123.395 -25.2137 -123.399 -25.5299 -123.596 -25.7227C-122.522 -26.8193 -121.434 -27.9022 -120.334 -28.9711C-120.142 -28.773 -119.826 -28.7677 -119.627 -28.9594C-118.287 -30.2543 -116.928 -31.5284 -115.55 -32.7812C-115.346 -32.9668 -115.331 -33.2827 -115.516 -33.487C-114.378 -34.5164 -113.228 -35.5313 -112.065 -36.5315C-111.886 -36.3222 -111.57 -36.2978 -111.361 -36.4772C-109.945 -37.6886 -108.511 -38.8782 -107.059 -40.0454C-106.844 -40.2183 -106.81 -40.5327 -106.983 -40.7479C-105.784 -41.7063 -104.574 -42.6496 -103.352 -43.5774C-103.186 -43.3575 -102.873 -43.3139 -102.652 -43.4802C-101.166 -44.6027 -99.6622 -45.7024 -98.1421 -46.7786C-97.9169 -46.9381 -97.8634 -47.2497 -98.0225 -47.4751C-96.7679 -48.3582 -95.5021 -49.2255 -94.2254 -50.0766C-94.0727 -49.8469 -93.7628 -49.7842 -93.5328 -49.9366C-91.9804 -50.9654 -90.412 -51.9704 -88.828 -52.9509C-88.5934 -53.0962 -88.5208 -53.404 -88.6657 -53.6387C-87.3591 -54.4425 -86.042 -55.2299 -84.7146 -56.0005C-84.5765 -55.7618 -84.271 -55.68 -84.032 -55.8178C-82.4196 -56.748 -80.792 -57.6534 -79.1499 -58.5335C-78.9067 -58.6638 -78.8151 -58.9665 -78.9451 -59.2098C-77.5909 -59.9307 -76.2268 -60.6346 -74.8531 -61.3211C-74.7302 -61.0741 -74.4305 -60.9734 -74.1833 -61.0961C-72.5165 -61.9232 -70.8357 -62.7247 -69.1413 -63.5001C-68.8904 -63.6149 -68.78 -63.9112 -68.8944 -64.1621C-67.4985 -64.7962 -66.0934 -65.4126 -64.6795 -66.011C-64.5724 -65.7569 -64.2796 -65.6375 -64.0252 -65.7443C-62.3089 -66.465 -60.5797 -67.1593 -58.8378 -67.8266C-58.5802 -67.9253 -58.4512 -68.214 -58.5495 -68.4717C-57.1176 -69.0156 -55.6773 -69.5414 -54.2288 -70.0488C-54.138 -69.7883 -53.8533 -69.6506 -53.5927 -69.741C-51.8352 -70.351 -50.0658 -70.9339 -48.2848 -71.4891C-48.0214 -71.5712 -47.8744 -71.8511 -47.9561 -72.1146C-46.4917 -72.5665 -45.0195 -72.9999 -43.5399 -73.4144C-43.4659 -73.1487 -43.1907 -72.993 -42.9248 -73.0667C-41.1341 -73.5628 -39.3325 -74.0312 -37.5204 -74.4714C-37.2523 -74.5365 -37.0877 -74.8065 -37.1524 -75.0746C-35.661 -75.4324 -34.1626 -75.7712 -32.6574 -76.0907C-32.6005 -75.8208 -32.3358 -75.6479 -32.0657 -75.7044C-30.2485 -76.0848 -28.4213 -76.4369 -26.5848 -76.7604C-26.3131 -76.8083 -26.1316 -77.0672 -26.179 -77.3389C-24.6702 -77.6003 -23.155 -77.8424 -21.6338 -78.065C-21.5942 -77.792 -21.3411 -77.6025 -21.0679 -77.6417C-19.2277 -77.9056 -17.3786 -78.1409 -15.5212 -78.3471C-15.2469 -78.3775 -15.0493 -78.6243 -15.0793 -78.8985C-13.5597 -79.0628 -12.0346 -79.2077 -10.5041 -79.3329C-10.482 -79.058 -10.2414 -78.8528 -9.96632 -78.8746C-8.11298 -79.021 -6.25185 -79.1385 -4.38335 -79.2267C-4.10774 -79.2397 -3.89482 -79.4734 -3.90744 -79.749C-2.38063 -79.8167 -0.848938 -79.8649 0.687393 -79.8934C0.692108 -79.6176 0.919296 -79.3977 1.19518 -79.402C2.12842 -79.4167 3.06339 -79.4241 4 -79.4241C4.93661 -79.4241 5.87155 -79.4167 6.80479 -79.402C7.08067 -79.3977 7.30788 -79.6176 7.31258 -79.8934C8.84891 -79.8649 10.3806 -79.8167 11.9074 -79.749C11.8948 -79.4734 12.1077 -79.2397 12.3833 -79.2267C14.2518 -79.1385 16.1129 -79.021 17.9663 -78.8746C18.2413 -78.8529 18.4819 -79.058 18.504 -79.3329C20.0345 -79.2077 21.5597 -79.0628 23.0793 -78.8985C23.0492 -78.6243 23.2469 -78.3775 23.5211 -78.3471C25.3786 -78.1409 27.2276 -77.9056 29.0679 -77.6417C29.341 -77.6025 29.5942 -77.792 29.6337 -78.065C31.1549 -77.8424 32.6701 -77.6003 34.179 -77.3389C34.1315 -77.0672 34.313 -76.8083 34.5848 -76.7605C36.4213 -76.4369 38.2484 -76.0848 40.0657 -75.7045C40.3357 -75.6479 40.6004 -75.8209 40.6573 -76.0907C42.1625 -75.7712 43.6609 -75.4325 45.1524 -75.0746C45.0876 -74.8065 45.2523 -74.5366 45.5204 -74.4714C47.3324 -74.0312 49.134 -73.5628 50.9247 -73.0667C51.1906 -72.993 51.4659 -73.1487 51.5399 -73.4144C53.0195 -72.9999 54.4916 -72.5666 55.956 -72.1146C55.8743 -71.8512 56.0214 -71.5712 56.2848 -71.4891C58.0657 -70.9339 59.8352 -70.3511 61.5926 -69.7411C61.8533 -69.6506 62.1379 -69.7884 62.2287 -70.0488C63.6772 -69.5414 65.1176 -69.0156 66.5495 -68.4717C66.4512 -68.214 66.5801 -67.9253 66.8378 -67.8266C68.5796 -67.1593 70.3089 -66.465 72.0252 -65.7443C72.2795 -65.6375 72.5723 -65.7569 72.6795 -66.0111C74.0934 -65.4126 75.4985 -64.7962 76.8944 -64.1622C76.78 -63.9112 76.8904 -63.6149 77.1413 -63.5001C78.8357 -62.7247 80.5165 -61.9232 82.1833 -61.0961C82.4304 -60.9734 82.7302 -61.0742 82.8531 -61.3211C84.2268 -60.6346 85.5908 -59.9307 86.9451 -59.2098C86.8151 -58.9665 86.9067 -58.6638 87.1499 -58.5335C88.7921 -57.6534 90.4196 -56.748 92.032 -55.8178C92.271 -55.68 92.5765 -55.7618 92.7146 -56.0005C94.042 -55.2299 95.3591 -54.4425 96.6657 -53.6387C96.5208 -53.4039 96.5934 -53.0962 96.828 -52.951C98.412 -51.9704 99.9804 -50.9654 101.533 -49.9366C101.763 -49.7842 102.073 -49.8469 102.225 -50.0766C103.502 -49.2255 104.768 -48.3582 106.023 -47.4751C105.863 -47.2497 105.917 -46.9381 106.142 -46.7786C107.662 -45.7023 109.166 -44.6027 110.652 -43.4802C110.873 -43.3139 111.186 -43.3575 111.352 -43.5774C112.574 -42.6495 113.784 -41.7063 114.983 -40.7479C114.81 -40.5327 114.844 -40.2183 115.059 -40.0454C116.511 -38.8782 117.945 -37.6886 119.361 -36.4772C119.57 -36.2978 119.886 -36.3222 120.065 -36.5315C121.228 -35.5313 122.378 -34.5164 123.516 -33.487C123.331 -33.2827 123.346 -32.9668 123.55 -32.7812C124.928 -31.5284 126.287 -30.2543 127.627 -28.9594C127.826 -28.7677 128.142 -28.773 128.334 -28.9711C129.434 -27.9022 130.522 -26.8193 131.596 -25.7227C131.399 -25.5299 131.395 -25.2137 131.587 -25.0161C132.886 -23.6832 134.166 -22.33 135.426 -20.9571C135.613 -20.7539 135.929 -20.7402 136.132 -20.9264C137.166 -19.7935 138.187 -18.6473 139.194 -17.4881C138.986 -17.3074 138.963 -16.9921 139.144 -16.7833C140.361 -15.3751 141.557 -13.9477 142.734 -12.5017C142.908 -12.2876 143.222 -12.2551 143.437 -12.4289C144.401 -11.237 145.351 -10.0326 146.288 -8.81595C146.069 -8.64803 146.027 -8.33453 146.195 -8.11541C147.326 -6.63662 148.437 -5.13977 149.526 -3.62534C149.688 -3.40134 150 -3.35023 150.224 -3.51102C151.115 -2.26478 151.992 -1.00676 152.854 0.262794C152.626 0.417465 152.566 0.727959 152.72 0.956627C153.762 2.49886 154.782 4.05804 155.779 5.63368C155.927 5.86681 156.236 5.93625 156.469 5.78899C157.286 7.08678 158.088 8.39565 158.875 9.71532C158.637 9.85627 158.559 10.1627 158.7 10.4C159.648 11.9999 160.574 13.6155 161.477 15.2465C161.61 15.4879 161.914 15.5754 162.156 15.4421C162.895 16.7858 163.619 18.1398 164.327 19.5039C164.082 19.6306 163.986 19.9319 164.112 20.1771C164.965 21.8299 165.794 23.4975 166.6 25.1793C166.72 25.4281 167.018 25.5333 167.267 25.4144C167.925 26.7978 168.568 28.1908 169.195 29.5931C168.943 29.7053 168.829 30.0005 168.941 30.2527C169.696 31.9543 170.427 33.6695 171.134 35.3979C171.239 35.6533 171.53 35.7757 171.786 35.6716C172.362 37.0896 172.921 38.5165 173.464 39.9519C173.206 40.0491 173.076 40.3371 173.173 40.5955C173.827 42.337 174.456 44.0912 175.061 45.8574C175.15 46.1185 175.434 46.2577 175.695 46.1687C176.188 47.6193 176.664 49.078 177.123 50.5446C176.86 50.6267 176.713 50.9066 176.795 51.1701C177.345 52.9449 177.871 54.7311 178.372 56.5284C178.446 56.7942 178.721 56.9497 178.987 56.876C179.395 58.3551 179.787 59.8415 180.16 61.3352C179.893 61.4018 179.73 61.6727 179.796 61.9406C180.242 63.7421 180.663 65.5541 181.059 67.376C181.117 67.6457 181.383 67.8169 181.653 67.7587C181.974 69.2569 182.278 70.7617 182.565 72.2731C182.294 72.3241 182.115 72.5852 182.166 72.8564C182.508 74.6829 182.824 76.5189 183.115 78.3639C183.158 78.6364 183.413 78.8227 183.686 78.7801C183.92 80.2919 184.137 81.8098 184.336 83.3334C184.062 83.3688 183.869 83.6191 183.904 83.8928C184.141 85.7386 184.352 87.5929 184.537 89.4552C184.564 89.7298 184.808 89.9304 185.083 89.9035C185.23 91.4235 185.359 92.9489 185.471 94.4793C185.196 94.4991 184.989 94.738 185.008 95.0132C185.139 96.868 185.244 98.7301 185.323 100.599C185.335 100.875 185.568 101.089 185.843 101.078Z" stroke="url(#paint0_linear)" stroke-linecap="round" stroke-dasharray="5.5 5.5"/>
    <path d="M40 93.4178C40 113.708 24.1908 129.899 5 129.899C-14.1908 129.899 -30 113.708 -30 93.4178C-30 73.128 -14.1908 56.9368 5 56.9368C24.1908 56.9368 40 73.128 40 93.4178Z" stroke="url(#paint1_linear)" stroke-width="8"/>
    <path d="M404 16.481C404 36.7708 388.191 52.962 369 52.962C349.809 52.962 334 36.7708 334 16.481C334 -3.80872 349.809 -20 369 -20C388.191 -20 404 -3.80872 404 16.481Z" stroke="url(#paint2_linear)" stroke-width="8"/>
    <defs>
        <linearGradient id="paint0_linear" x1="220" y1="108.987" x2="23.4538" y2="197.809" gradientUnits="userSpaceOnUse">
            <stop stop-color="white"/>
            <stop offset="1" stop-color="white" stop-opacity="0"/>
        </linearGradient>
        <linearGradient id="paint1_linear" x1="-70.5" y1="-14.5316" x2="59.3038" y2="129.106" gradientUnits="userSpaceOnUse">
            <stop stop-color="white"/>
            <stop offset="1" stop-color="white" stop-opacity="0"/>
        </linearGradient>
        <linearGradient id="paint2_linear" x1="369" y1="-74.8608" x2="369" y2="56.962" gradientUnits="userSpaceOnUse">
            <stop stop-color="white"/>
            <stop offset="1" stop-color="white" stop-opacity="0"/>
        </linearGradient>
    </defs>
</svg>
