<svg width="362" height="247" viewBox="0 0 362 247" fill="none" xmlns="http://www.w3.org/2000/svg">
    <path d="M263.565 187.471L232.049 166.085C230.938 165.328 229.612 164.95 228.269 165.005C226.925 165.061 225.635 165.547 224.59 166.393L194.067 191.167C193.169 191.898 192.033 192.271 190.876 192.214C189.72 192.157 188.626 191.674 187.805 190.859L182.535 185.589C182.068 185.122 181.513 184.751 180.902 184.498C180.292 184.244 179.637 184.114 178.976 184.114C178.315 184.114 177.661 184.244 177.05 184.498C176.439 184.751 175.885 185.122 175.417 185.589L168.71 192.022L158 181.415L180.14 245.985H201.595C215.73 241.659 275.674 245.985 275.674 245.985L361.66 246C361.66 246 303.5 223.5 263.565 187.471Z" fill="#6F5FB0"/>
    <path opacity="0.2" d="M146.5 46.2295C125.969 40.3781 109.646 32.542 102.666 25.6983C91.9895 15.2958 63.759 17.1094 61.0557 9.37594C58.8315 3.04547 56.8126 6.12516 48.429 0C32.4013 2.59261 17.3014 9.23565 4.56055 19.2994L6.20305 19.8127C52.7521 33.5328 100.317 43.5333 148.45 49.7198C147.834 48.5222 147.047 47.3587 146.5 46.2295Z" fill="white"/>
    <path opacity="0.2" d="M76.3416 86.2781C76.3416 86.2781 88.9683 79.6739 98.4469 85.9702C106.762 91.5136 107.412 88.0917 109.5 91.7189C111.587 95.3461 125.617 91.7189 131.947 96.0647C138.278 100.41 155.695 103.627 174.515 102.532C144.059 105.309 113.407 105.16 82.9801 102.087C70.473 100.816 58.0904 98.5272 45.9554 95.2435C45.0606 95.0007 44.2779 94.455 43.7407 93.6994C43.2035 92.9439 42.9451 92.0253 43.0097 91.1005C43.0744 90.1757 43.4579 89.3019 44.095 88.6284C44.732 87.9549 45.5831 87.5233 46.5029 87.4074C49.0414 87.0957 51.5137 86.3794 53.8257 85.2858C62.6199 80.94 76.3416 86.2781 76.3416 86.2781Z" fill="white"/>
    <path d="M146.627 64.9256L143.958 64.2071C143.958 64.2071 142.76 64.207 143.137 63.2489C143.513 62.2908 143.547 63.0094 143.137 61.2985C142.726 59.5875 142.76 57.8766 144.882 58.4583C147.003 59.04 148.133 58.4583 149.707 64.5492C151.281 70.6402 146.627 64.9256 146.627 64.9256Z" fill="url(#paint0_linear)"/>
    <path d="M127.739 63.8307C127.454 66.4461 126.904 69.0258 126.097 71.5299C125.729 71.9054 125.269 72.177 124.762 72.3169L120.006 67.2526L121.306 62.9752" fill="url(#paint1_linear)"/>
    <path style="mix-blend-mode:multiply" opacity="0.68" d="M121.306 62.8726L120.006 67.2526L124.728 72.488C125.061 72.3985 125.374 72.2476 125.652 72.0432C125.777 70.8023 126.238 69.619 126.986 68.6213C127.397 66.4997 127.705 64.1387 127.705 64.1387L121.306 62.8726Z" fill="url(#paint2_linear)"/>
    <path d="M90.0147 147.049L0.5 218.5V234C0.5 241.18 6.3203 247 13.5 247H280C280 247 256.216 240.332 242 234C214.959 221.955 204.201 207.385 181 189C165.994 177.109 147.159 160.787 132.96 148.245C120.812 137.515 102.683 136.937 90.0147 147.049Z" fill="#DED9F5"/>
    <path d="M107.583 69.2715C106.988 67.8758 106.682 66.3744 106.682 64.8572C106.682 63.3401 106.988 61.8387 107.583 60.443C108.473 57.5687 106.522 55.2418 109.26 53.3597C111.005 52.1621 121.408 50.6565 126.369 54.1468C127.389 54.7188 128.257 55.5265 128.9 56.5025C129.544 57.4785 129.944 58.5944 130.068 59.7568C130.192 60.9193 130.036 62.0945 129.613 63.1843C129.189 64.274 128.511 65.2466 127.635 66.0207C124.453 69.6821 126.061 73.891 127.464 73.9252C128.867 73.9594 117.199 81.7955 117.199 81.7955L111.826 82.4457" fill="url(#paint3_linear)"/>
    <path d="M127.327 74.0962C125.924 74.0962 124.316 69.8531 127.499 66.1917C128.119 65.4851 128.647 64.7033 129.073 63.8648C129.073 63.8648 127.054 66.705 125.001 65.7127C122.947 64.7203 125.822 60.2719 122.776 59.1769C119.731 58.0819 118.773 61.3669 114.187 61.8459C109.602 62.325 107.515 56.5078 107.515 56.5078C107.745 57.8669 107.745 59.255 107.515 60.6141C106.92 62.0097 106.613 63.5112 106.613 65.0283C106.613 66.5454 106.92 68.0469 107.515 69.4425L111.553 82.6509L116.925 82.0008C116.925 82.0008 128.73 74.0962 127.327 74.0962Z" fill="url(#paint4_linear)"/>
    <path d="M101.355 118.307L106.317 183.254H110.389L116.72 114.475" fill="url(#paint5_linear)"/>
    <path d="M106.351 117.041L101.355 118.307L106.351 183.323C105.838 176.753 111.553 160.67 112.921 157.316V156.666C111.43 156.242 110.145 155.289 109.307 153.985C108.469 152.681 108.136 151.115 108.37 149.583C108.712 143.424 115.214 132.782 115.214 132.782L116.343 119.573L106.351 117.041Z" fill="url(#paint6_linear)"/>
    <path d="M112.923 189.174C110.185 188.182 110.254 183.836 110.288 183.254H106.318V192.356C106.318 192.568 106.4 192.772 106.547 192.925C106.693 193.078 106.894 193.169 107.105 193.178H115.318C115.427 192.338 115.25 191.486 114.815 190.76C114.381 190.033 113.714 189.475 112.923 189.174Z" fill="url(#paint7_linear)"/>
    <path d="M102.827 114.132C102.827 114.132 108.438 104.448 122.194 116.87C140.262 133.192 134.103 166.932 134.103 166.932H129.586C131.536 140.481 118.259 133.158 110.492 131.139C108.83 130.688 107.286 129.885 105.964 128.783C104.641 127.681 103.572 126.308 102.828 124.755C102.084 123.203 101.684 121.509 101.654 119.788C101.624 118.067 101.966 116.36 102.656 114.782L102.827 114.132Z" fill="url(#paint8_linear)"/>
    <path d="M132.802 149.377C132.372 146.75 131.649 144.179 130.647 141.712C129.069 137.618 128.257 133.268 128.251 128.88V124.329L101.595 118.375C101.331 121.207 102.08 124.04 103.709 126.371C105.338 128.702 107.742 130.38 110.492 131.105C118.259 133.124 131.536 140.446 129.586 166.897H134.103C134.103 166.897 134.479 164.776 134.787 161.388C134.787 158.548 135.095 155.982 135.095 155.126C135.163 152.799 133.453 154.887 132.802 149.377Z" fill="url(#paint9_linear)"/>
    <path d="M120.176 75.1913C120.176 75.1913 130.031 72.1801 133.453 81.4191C136.875 90.6582 128.252 113.277 129.381 118.375C130.511 123.474 130.853 125.459 124.967 123.645C119.081 121.831 104.71 122.208 102.656 122.003C97.2842 121.455 99.9532 115.159 101.801 109.102C103.649 103.045 120.176 75.1913 120.176 75.1913Z" fill="url(#paint10_linear)"/>
    <path d="M133.145 92.1638L119.457 82.9932V94.3538C119.457 94.3538 124.966 108.041 127.054 99.863C129.141 91.6847 133.145 92.1638 133.145 92.1638Z" fill="url(#paint11_linear)"/>
    <path d="M123.906 74.7122C123.906 74.7122 120.176 71.8036 143.924 80.94C150.768 83.6433 149.399 71.4272 146.593 65.1652C146.538 64.9135 146.561 64.6508 146.658 64.4123C146.756 64.1739 146.925 63.9709 147.141 63.8307C147.825 63.3174 148.954 62.9752 150.152 64.5835C152.103 67.2867 167.569 98.8022 133.967 92.6086C133.967 92.6086 122.538 87.8864 122.195 81.4533C121.853 75.0202 122.23 76.2178 123.906 74.7122Z" fill="url(#paint12_linear)"/>
    <path d="M125.993 86.4151C125.993 86.4151 125.993 76.1495 131.742 76.4232C131.096 75.3957 130.145 74.5959 129.022 74.1357C127.9 73.6755 126.661 73.578 125.48 73.8568C121.134 74.7123 118.328 83.0274 118.328 83.0274L122.811 91.3768" fill="url(#paint13_linear)"/>
    <path d="M102.313 107.597C102.074 108.178 101.868 108.692 101.766 109.068C99.918 115.159 97.2489 121.455 102.655 122.003C109.218 122.013 115.774 122.379 122.297 123.098C120.723 122.447 120.141 120.908 122.81 120.155C126.232 119.197 126.54 113.551 126.54 113.551L102.313 107.597Z" fill="url(#paint14_linear)"/>
    <path d="M133.146 92.1638C133.146 92.1638 133.591 115.535 119.458 116.117L118.363 118.854C118.363 118.854 134.515 120.771 135.746 92.7798C135.644 92.7455 135.507 92.9851 133.146 92.1638Z" fill="url(#paint15_linear)"/>
    <path d="M133.145 92.1638C133.157 96.8091 132.441 101.428 131.023 105.851C131.338 104.982 131.882 104.213 132.597 103.627C133.96 102.516 134.842 100.923 135.061 99.1787V98.8365C135.335 97.0229 135.506 95.004 135.609 92.8482C135.643 92.7455 135.506 92.9851 133.145 92.1638Z" fill="url(#paint16_linear)"/>
    <path d="M120.347 77.5182L101.527 76.7654C100.656 76.713 99.8371 76.3295 99.2392 75.6933C98.6412 75.0572 98.309 74.2165 98.3106 73.3435V71.8721C98.3106 70.9645 98.6711 70.0942 99.3128 69.4524C99.9545 68.8107 100.825 68.4502 101.732 68.4502L120.553 69.203C121.424 69.2554 122.243 69.6389 122.841 70.275C123.439 70.9112 123.771 71.7518 123.769 72.6249V74.0963C123.769 75.0038 123.409 75.8742 122.767 76.5159C122.125 77.1576 121.255 77.5182 120.347 77.5182Z" fill="#39CE9C"/>
    <path d="M120.347 77.5182L101.527 76.7654C100.656 76.713 99.8371 76.3295 99.2392 75.6933C98.6412 75.0572 98.309 74.2165 98.3106 73.3435V71.8721C98.3106 70.9645 98.6711 70.0942 99.3128 69.4524C99.9545 68.8107 100.825 68.4502 101.732 68.4502L120.553 69.203C121.424 69.2554 122.243 69.6389 122.841 70.275C123.439 70.9112 123.771 71.7518 123.769 72.6249V74.0963C123.769 75.0038 123.409 75.8742 122.767 76.5159C122.125 77.1576 121.255 77.5182 120.347 77.5182Z" fill="url(#paint17_linear)"/>
    <g opacity="0.24">
        <path opacity="0.24" d="M104.299 73.6174V72.146C104.299 71.2385 104.659 70.3681 105.301 69.7264C105.943 69.0846 106.813 68.7241 107.721 68.7241H106.01C105.102 68.7241 104.232 69.0846 103.59 69.7264C102.948 70.3681 102.588 71.2385 102.588 72.146V73.6174C102.586 74.4905 102.919 75.3311 103.516 75.9672C104.114 76.6034 104.933 76.9869 105.804 77.0393H107.515C106.644 76.9869 105.825 76.6034 105.227 75.9672C104.629 75.3311 104.297 74.4905 104.299 73.6174Z" fill="url(#paint18_linear)"/>
        <path opacity="0.24" d="M111.826 73.9253V72.4539C111.826 71.5463 112.187 70.6759 112.828 70.0342C113.47 69.3925 114.341 69.032 115.248 69.032H113.537C112.63 69.032 111.759 69.3925 111.117 70.0342C110.476 70.6759 110.115 71.5463 110.115 72.4539V73.9253C110.114 74.7983 110.446 75.639 111.044 76.2751C111.642 76.9112 112.46 77.2948 113.332 77.3471H115.043C114.171 77.2948 113.353 76.9112 112.755 76.2751C112.157 75.639 111.825 74.7983 111.826 73.9253Z" fill="url(#paint19_linear)"/>
    </g>
    <path d="M123.838 74.4044V72.933C123.839 72.0599 123.507 71.2193 122.909 70.5831C122.311 69.947 121.493 69.5635 120.621 69.5111H119.766C118.858 69.5111 117.988 69.8716 117.346 70.5134C116.704 71.1551 116.344 72.0254 116.344 72.933V74.4044C116.342 75.2775 116.674 76.1181 117.272 76.7542C117.87 77.3904 118.689 77.7739 119.56 77.8263H120.553C121.436 77.7909 122.272 77.4148 122.884 76.7769C123.497 76.139 123.838 75.2887 123.838 74.4044Z" fill="url(#paint20_linear)"/>
    <path d="M122.023 74.0963V73.3777C122.033 73.1619 121.999 72.9465 121.925 72.7437C121.851 72.5409 121.737 72.3547 121.591 72.1958C121.445 72.0369 121.269 71.9084 121.073 71.8176C120.877 71.7268 120.665 71.6755 120.449 71.6667H119.97C119.752 71.6576 119.534 71.6921 119.329 71.7684C119.124 71.8447 118.936 71.9612 118.776 72.111C118.617 72.2608 118.489 72.4409 118.4 72.6408C118.312 72.8407 118.264 73.0563 118.259 73.275V73.9936C118.25 74.2093 118.284 74.4248 118.358 74.6276C118.432 74.8304 118.545 75.0165 118.692 75.1755C118.838 75.3344 119.014 75.4629 119.21 75.5537C119.406 75.6445 119.618 75.6957 119.833 75.7045H120.312C120.531 75.7137 120.749 75.6791 120.954 75.6028C121.159 75.5265 121.347 75.4101 121.506 75.2602C121.666 75.1104 121.793 74.9303 121.882 74.7304C121.971 74.5305 122.019 74.3149 122.023 74.0963Z" fill="url(#paint21_linear)"/>
    <path d="M113.674 78.9212L102.656 78.4764C102.408 78.4588 102.176 78.3455 102.01 78.1603C101.844 77.9751 101.757 77.7326 101.766 77.4841L102.074 69.7506C102.127 68.8791 102.51 68.0606 103.146 67.4627C103.782 66.8647 104.623 66.5325 105.496 66.5341L111.621 66.7736C112.487 66.8343 113.297 67.2215 113.888 67.8567C114.478 68.492 114.806 69.3279 114.804 70.1955L114.496 77.9289C114.507 78.1668 114.429 78.4002 114.277 78.5837C114.125 78.7671 113.91 78.8875 113.674 78.9212ZM103.409 77.0734L113.264 77.5183L113.538 70.2639C113.551 70.0094 113.514 69.7547 113.428 69.5148C113.343 69.2748 113.21 69.0544 113.038 68.8664C112.866 68.6783 112.658 68.5266 112.426 68.4199C112.195 68.3132 111.944 68.2537 111.69 68.245L105.565 68.0055C105.313 67.9963 105.062 68.0369 104.826 68.1248C104.59 68.2127 104.374 68.3463 104.189 68.518C104.005 68.6896 103.856 68.8958 103.752 69.125C103.647 69.3541 103.589 69.6016 103.58 69.8533L103.409 77.0734Z" fill="url(#paint22_linear)"/>
    <path d="M111.416 68.5872L105.838 68.3476C105.692 68.3433 105.547 68.3095 105.414 68.2483C105.28 68.187 105.16 68.0994 105.061 67.9909C104.962 67.8823 104.886 67.755 104.837 67.6164C104.789 67.4778 104.768 67.3308 104.778 67.1842V67.0131C104.782 66.8693 104.815 66.7278 104.874 66.5966C104.933 66.4654 105.017 66.3472 105.122 66.2487C105.227 66.1502 105.35 66.0733 105.485 66.0224C105.62 65.9716 105.763 65.9478 105.907 65.9523L111.484 66.1919C111.588 66.1963 111.689 66.221 111.783 66.2647C111.877 66.3083 111.961 66.3701 112.031 66.4464C112.101 66.5226 112.155 66.612 112.191 66.7092C112.226 66.8065 112.242 66.9097 112.237 67.0131V67.8001C112.237 67.9064 112.216 68.0117 112.174 68.1094C112.133 68.2072 112.072 68.2956 111.995 68.3691C111.918 68.4427 111.827 68.4999 111.728 68.5374C111.628 68.5749 111.522 68.5918 111.416 68.5872Z" fill="url(#paint23_linear)"/>
    <path d="M93.2805 92.5403L98.2422 92.7456C98.7094 92.7448 99.1718 92.8396 99.6009 93.0242C100.03 93.2089 100.417 93.4795 100.737 93.8193C101.058 94.1591 101.306 94.561 101.465 95.0002C101.624 95.4393 101.692 95.9064 101.664 96.3728L101.048 112.49C101.048 114.064 98.7213 115.262 97.1814 115.193L91.3984 114.954L93.0752 96.0306C93.0067 94.0801 95.1625 92.6087 93.2805 92.5403Z" fill="url(#paint24_linear)"/>
    <path d="M92.3911 111.497V111.292L92.9728 96.2016V95.9963C92.9728 95.0887 93.3333 94.2184 93.975 93.5767C94.6168 92.9349 95.4871 92.5744 96.3947 92.5744L91.6041 92.3691C90.6555 92.3405 89.7329 92.6813 89.0307 93.3196C88.3286 93.958 87.9016 94.844 87.84 95.791L87.2583 110.881C87.2114 111.842 87.5439 112.782 88.1841 113.499C88.8244 114.216 89.7209 114.652 90.6801 114.714H94.5127C92.7675 115.159 92.3911 113.448 92.3911 111.497Z" fill="url(#paint25_linear)"/>
    <path d="M102.383 76.6284L120.005 77.347C120.858 77.386 121.695 77.5952 122.466 77.9624C123.236 78.3296 123.926 78.8473 124.493 79.4851C125.061 80.1228 125.495 80.8677 125.771 81.6759C126.046 82.4841 126.157 83.3391 126.096 84.1908L124.933 113.961C124.933 116.87 120.656 119.06 117.781 118.957L107.105 118.512L110.219 83.5406C110.356 79.845 105.873 76.7653 102.383 76.6284Z" fill="url(#paint26_linear)"/>
    <path d="M112.923 110.129V113.379C112.852 115.33 112.016 117.174 110.596 118.512L117.782 118.786C119.117 118.832 120.443 118.543 121.639 117.945C122.834 117.348 123.861 116.46 124.625 115.364L112.923 110.129Z" fill="url(#paint27_linear)"/>
    <path d="M109.055 112.011V111.737L110.15 83.8486V83.5064C110.177 82.6659 110.369 81.839 110.715 81.0727C111.062 80.3065 111.556 79.616 112.169 79.0408C112.782 78.4656 113.503 78.0169 114.29 77.7204C115.077 77.4239 115.914 77.2854 116.755 77.3128L99.2347 76.4916C98.3943 76.4642 97.5567 76.6027 96.7698 76.8992C95.983 77.1957 95.2623 77.6444 94.6489 78.2196C94.0356 78.7948 93.5416 79.4852 93.1953 80.2515C92.8489 81.0177 92.657 81.8447 92.6305 82.6851V83.0273L91.5355 110.916V111.258C91.4752 112.109 91.586 112.965 91.8613 113.773C92.1366 114.581 92.5709 115.326 93.1385 115.963C93.7061 116.601 94.3956 117.119 95.1663 117.486C95.9371 117.853 96.7735 118.063 97.6264 118.102L113.504 118.752C109.911 118.581 108.919 115.569 109.055 112.011Z" fill="url(#paint28_linear)"/>
    <path d="M107.344 115.159V114.543L91.5687 108.315V110.813V111.155C91.5084 112.007 91.6192 112.862 91.8945 113.67C92.1698 114.478 92.6041 115.223 93.1717 115.861C93.7393 116.499 94.4288 117.016 95.1995 117.384C95.9703 117.751 96.8068 117.96 97.6596 117.999L105.051 118.307L106.864 116.596C107.04 116.403 107.173 116.175 107.255 115.928C107.337 115.68 107.368 115.418 107.344 115.159Z" fill="url(#paint29_linear)"/>
    <path d="M90.9881 82.6169V82.9591V86.86C90.9789 87.0443 91.0061 87.2286 91.0682 87.4024C91.1303 87.5761 91.2261 87.7359 91.3501 87.8726C91.4741 88.0093 91.6238 88.1202 91.7906 88.1989C91.9575 88.2776 92.1383 88.3227 92.3226 88.3314L107.139 88.9132C107.326 88.9224 107.513 88.894 107.689 88.8297C107.865 88.7655 108.027 88.6667 108.164 88.5391C108.301 88.4116 108.411 88.2578 108.488 88.087C108.565 87.9161 108.606 87.7317 108.611 87.5444V83.6435V83.3013C108.637 82.4608 108.829 81.6339 109.176 80.8676C109.522 80.1014 110.016 79.4109 110.629 78.8357C111.243 78.2605 111.963 77.8118 112.75 77.5153C113.537 77.2188 114.375 77.0803 115.215 77.1077L97.5923 76.3891C96.7491 76.3617 95.9088 76.5014 95.1197 76.8C94.3307 77.0987 93.6085 77.5504 92.9947 78.1292C92.3809 78.708 91.8876 79.4025 91.5432 80.1727C91.1989 80.9429 91.0102 81.7735 90.9881 82.6169Z" fill="url(#paint30_linear)"/>
    <path d="M113.298 77.0733C112.458 77.0459 111.62 77.1845 110.833 77.481C110.047 77.7775 109.326 78.2262 108.712 78.8014C108.099 79.3766 107.605 80.067 107.259 80.8333C106.913 81.5995 106.721 82.4265 106.694 83.2669V83.6091V87.5101C106.69 87.6973 106.648 87.8818 106.571 88.0526C106.494 88.2235 106.384 88.3772 106.247 88.5048C106.11 88.6323 105.949 88.7312 105.773 88.7954C105.597 88.8596 105.41 88.888 105.223 88.8788H107.139C107.326 88.888 107.513 88.8596 107.689 88.7954C107.865 88.7312 108.026 88.6323 108.163 88.5048C108.3 88.3772 108.411 88.2235 108.487 88.0526C108.564 87.8818 108.606 87.6973 108.61 87.5101V83.6091V83.2669C108.637 82.4265 108.829 81.5995 109.175 80.8333C109.521 80.067 110.015 79.3766 110.629 78.8014C111.242 78.2262 111.963 77.7775 112.75 77.481C113.537 77.1845 114.374 77.0459 115.215 77.0733H113.298Z" fill="url(#paint31_linear)"/>
    <path d="M118.909 93.5667L123.871 93.772C124.338 93.7711 124.801 93.866 125.23 94.0506C125.659 94.2353 126.046 94.5058 126.366 94.8457C126.687 95.1855 126.935 95.5874 127.094 96.0265C127.253 96.4657 127.321 96.9328 127.293 97.3991L126.609 113.516C126.609 115.09 124.282 116.288 122.742 116.219L116.959 115.98L118.636 97.057C118.67 95.1407 120.826 93.6351 118.909 93.5667Z" fill="url(#paint32_linear)"/>
    <path d="M117.952 112.524V112.319L118.534 97.2282V97.0229C118.534 96.1154 118.895 95.245 119.536 94.6033C120.178 93.9615 121.049 93.601 121.956 93.601L117.165 93.3957C116.217 93.3671 115.294 93.7079 114.592 94.3462C113.89 94.9846 113.463 95.8706 113.401 96.8176L112.922 112.148C112.875 113.108 113.208 114.048 113.848 114.765C114.488 115.482 115.385 115.918 116.344 115.98H120.177C118.432 116.049 117.884 114.474 117.952 112.524Z" fill="url(#paint33_linear)"/>
    <path d="M125.412 103.08L120.142 102.874C120.108 102.875 120.074 102.867 120.042 102.853C120.011 102.839 119.982 102.818 119.96 102.792C119.937 102.766 119.92 102.736 119.91 102.703C119.9 102.67 119.898 102.635 119.903 102.601C119.902 102.566 119.91 102.532 119.924 102.5C119.938 102.469 119.959 102.441 119.985 102.418C120.011 102.395 120.041 102.378 120.074 102.368C120.108 102.359 120.142 102.356 120.177 102.361L125.446 102.566C125.481 102.566 125.515 102.573 125.547 102.587C125.578 102.601 125.606 102.622 125.629 102.648C125.652 102.674 125.669 102.705 125.678 102.738C125.688 102.771 125.691 102.806 125.686 102.84C125.686 102.875 125.679 102.909 125.665 102.94C125.651 102.972 125.63 103 125.604 103.023C125.578 103.046 125.547 103.062 125.514 103.072C125.481 103.082 125.446 103.085 125.412 103.08Z" fill="#DAE0E0"/>
    <path d="M125.411 104.003H124.932C124.877 104.003 124.825 103.982 124.787 103.943C124.748 103.905 124.727 103.853 124.727 103.798V102.84C124.727 102.786 124.748 102.733 124.787 102.695C124.825 102.656 124.877 102.635 124.932 102.635H125.411C125.465 102.635 125.518 102.656 125.556 102.695C125.595 102.733 125.616 102.786 125.616 102.84V103.798C125.616 103.853 125.595 103.905 125.556 103.943C125.518 103.982 125.465 104.003 125.411 104.003Z" fill="#DAE0E0"/>
    <path d="M107.105 115.604L93.4174 115.056C92.4157 115.003 91.4758 114.556 90.8026 113.812C90.1295 113.069 89.7778 112.089 89.8244 111.087L90.4746 94.2854C90.4746 93.3779 90.8351 92.5075 91.4768 91.8658C92.1185 91.224 92.9889 90.8635 93.8965 90.8635L107.858 91.411C107.892 91.4107 107.926 91.4178 107.958 91.4319C107.99 91.446 108.018 91.4668 108.04 91.4928C108.063 91.5188 108.08 91.5494 108.09 91.5826C108.1 91.6157 108.102 91.6506 108.097 91.6848L107.173 115.227C107.198 115.255 107.217 115.287 107.227 115.323C107.238 115.359 107.24 115.396 107.233 115.433C107.226 115.469 107.211 115.503 107.189 115.533C107.167 115.563 107.138 115.587 107.105 115.604Z" fill="url(#paint34_linear)"/>
    <path d="M104.88 94.6276L104.196 111.737C104.152 112.639 104.431 113.527 104.983 114.242C105.535 114.957 106.323 115.452 107.207 115.638C107.222 115.606 107.23 115.571 107.23 115.535C107.23 115.5 107.222 115.465 107.207 115.433L108.131 91.8901C108.136 91.8559 108.133 91.821 108.124 91.7879C108.114 91.7548 108.097 91.7241 108.074 91.6981C108.051 91.6721 108.023 91.6513 107.992 91.6372C107.96 91.6231 107.926 91.616 107.891 91.6163C107.098 91.6338 106.343 91.9566 105.782 92.5176C105.221 93.0786 104.898 93.8344 104.88 94.6276Z" fill="url(#paint35_linear)"/>
    <path d="M121.135 88.4682L116.173 88.2629C116.158 88.2369 116.15 88.2074 116.15 88.1774C116.15 88.1473 116.158 88.1178 116.173 88.0918V84.9437C116.199 84.9287 116.229 84.9208 116.259 84.9208C116.289 84.9208 116.318 84.9287 116.344 84.9437L121.306 85.149C121.321 85.175 121.329 85.2045 121.329 85.2346C121.329 85.2646 121.321 85.2941 121.306 85.3201V88.4682C121.28 88.4832 121.251 88.4911 121.221 88.4911C121.191 88.4911 121.161 88.4832 121.135 88.4682Z" fill="url(#paint36_linear)"/>
    <path d="M116.343 84.7383C116.317 84.7232 116.287 84.7153 116.257 84.7153C116.227 84.7153 116.198 84.7232 116.172 84.7383V86.3123H118.465C118.491 86.3273 118.52 86.3352 118.55 86.3352C118.58 86.3352 118.61 86.3273 118.636 86.3123V84.7383H116.343Z" fill="url(#paint37_linear)"/>
    <path d="M101.357 76.5942C100.487 76.2314 99.5605 76.023 98.6192 75.9783C97.3479 75.9583 96.1194 76.4374 95.1973 77.3128C94.2594 78.548 93.7221 80.0406 93.6575 81.5901V85.3542C93.6528 85.4199 93.6617 85.4859 93.6836 85.5481C93.7056 85.6102 93.7401 85.6671 93.7851 85.7153C93.8301 85.7635 93.8845 85.8019 93.9449 85.828C94.0054 85.8542 94.0706 85.8677 94.1365 85.8675H95.4026C95.4684 85.8722 95.5343 85.8633 95.5965 85.8413C95.6586 85.8194 95.7155 85.7848 95.7637 85.7399C95.8119 85.6949 95.8503 85.6405 95.8765 85.58C95.9026 85.5195 95.9161 85.4543 95.9159 85.3884V81.5217C95.9509 80.8249 96.1231 80.1418 96.4226 79.5116C96.722 78.8814 97.1429 78.3165 97.661 77.8493C98.1791 77.382 98.7844 77.0216 99.442 76.7886C100.1 76.5556 100.797 76.4547 101.494 76.4915L101.357 76.5942Z" fill="url(#paint38_linear)"/>
    <path d="M95.813 84.6016H93.4861C93.4516 84.602 93.4174 84.5949 93.3858 84.5807C93.3543 84.5666 93.3262 84.5459 93.3034 84.5198C93.2807 84.4938 93.2638 84.4632 93.254 84.4301C93.2442 84.397 93.2417 84.3621 93.2466 84.3279V82.6512C93.2462 82.6166 93.2534 82.5824 93.2675 82.5509C93.2816 82.5193 93.3024 82.4912 93.3284 82.4684C93.3544 82.4457 93.385 82.4288 93.4181 82.419C93.4513 82.4092 93.4861 82.4067 93.5203 82.4116H95.8472C95.8818 82.4113 95.916 82.4184 95.9475 82.4325C95.9791 82.4466 96.0072 82.4674 96.0299 82.4934C96.0527 82.5194 96.0696 82.5501 96.0794 82.5832C96.0892 82.6163 96.0917 82.6512 96.0868 82.6854L95.813 84.3621C95.834 84.3985 95.8451 84.4398 95.8451 84.4819C95.8451 84.5239 95.834 84.5652 95.813 84.6016Z" fill="#DAE0E0"/>
    <path d="M109.945 76.9365C108.945 76.571 107.894 76.3632 106.831 76.3206C106.235 76.2965 105.641 76.4035 105.091 76.6341C104.541 76.8647 104.049 77.2133 103.648 77.6551C102.711 78.8903 102.173 80.3829 102.109 81.9325V85.6965C102.104 85.7623 102.113 85.8283 102.135 85.8904C102.157 85.9525 102.191 86.0095 102.236 86.0576C102.281 86.1058 102.336 86.1442 102.396 86.1704C102.457 86.1966 102.522 86.21 102.588 86.2098H103.854C103.92 86.2145 103.986 86.2056 104.048 86.1837C104.11 86.1617 104.167 86.1272 104.215 86.0822C104.263 86.0372 104.301 85.9828 104.328 85.9223C104.354 85.8619 104.367 85.7967 104.367 85.7308V81.864C104.402 81.1672 104.574 80.4841 104.874 79.854C105.173 79.2238 105.594 78.6589 106.112 78.1916C106.63 77.7243 107.236 77.3639 107.893 77.1309C108.551 76.8979 109.248 76.797 109.945 76.8339V76.9365Z" fill="url(#paint39_linear)"/>
    <path d="M104.231 84.9437H101.904C101.87 84.944 101.835 84.9369 101.804 84.9228C101.772 84.9087 101.744 84.8879 101.721 84.8619C101.699 84.8359 101.682 84.8053 101.672 84.7721C101.662 84.739 101.66 84.7041 101.665 84.6699V82.9932C101.664 82.9587 101.671 82.9244 101.685 82.8929C101.7 82.8614 101.72 82.8332 101.746 82.8105C101.772 82.7877 101.803 82.7709 101.836 82.7611C101.869 82.7513 101.904 82.7487 101.938 82.7537H104.265C104.3 82.7533 104.334 82.7604 104.365 82.7746C104.397 82.7887 104.425 82.8095 104.448 82.8355C104.471 82.8615 104.488 82.8921 104.497 82.9252C104.507 82.9584 104.51 82.9932 104.505 83.0274V84.7041C104.505 84.7387 104.498 84.7729 104.484 84.8045C104.47 84.836 104.449 84.8641 104.423 84.8869C104.397 84.9096 104.366 84.9265 104.333 84.9363C104.3 84.9461 104.265 84.9486 104.231 84.9437Z" fill="#DAE0E0"/>
    <path d="M95.8131 82.4456H95.3682C95.4028 82.4452 95.437 82.4523 95.4685 82.4665C95.5001 82.4806 95.5282 82.5013 95.5509 82.5274C95.5737 82.5534 95.5905 82.584 95.6003 82.6171C95.6102 82.6503 95.6127 82.6851 95.6077 82.7193V84.396C95.6081 84.4306 95.601 84.4648 95.5868 84.4964C95.5727 84.5279 95.552 84.556 95.526 84.5788C95.4999 84.6015 95.4693 84.6184 95.4362 84.6282C95.4031 84.638 95.3682 84.6405 95.334 84.6356H95.8131C95.841 84.5954 95.856 84.5476 95.856 84.4987C95.856 84.4498 95.841 84.402 95.8131 84.3618V82.6851C95.8341 82.6487 95.8451 82.6074 95.8451 82.5653C95.8451 82.5233 95.8341 82.482 95.8131 82.4456Z" fill="#E4EFEF"/>
    <path d="M104.299 82.788H103.855C103.889 82.7876 103.923 82.7947 103.955 82.8089C103.986 82.823 104.014 82.8438 104.037 82.8698C104.06 82.8958 104.077 82.9264 104.087 82.9595C104.096 82.9927 104.099 83.0275 104.094 83.0617V84.7384C104.094 84.773 104.087 84.8072 104.073 84.8388C104.059 84.8703 104.038 84.8984 104.012 84.9212C103.986 84.9439 103.956 84.9608 103.923 84.9706C103.889 84.9804 103.855 84.9829 103.82 84.978H104.265C104.299 84.9829 104.334 84.9804 104.367 84.9706C104.4 84.9608 104.431 84.9439 104.457 84.9212C104.483 84.8984 104.504 84.8703 104.518 84.8388C104.532 84.8072 104.539 84.773 104.539 84.7384V83.0617C104.544 83.0275 104.541 82.9927 104.532 82.9595C104.522 82.9264 104.505 82.8958 104.482 82.8698C104.459 82.8438 104.431 82.823 104.4 82.8089C104.368 82.7947 104.334 82.7876 104.299 82.788Z" fill="#E4EFEF"/>
    <path d="M89.5514 95.6883V95.9621V98.9733C89.5419 99.2581 89.6439 99.5354 89.8355 99.7462C90.0272 99.9571 90.2935 100.085 90.5779 100.103L102.041 100.582C102.185 100.586 102.328 100.562 102.463 100.512C102.598 100.461 102.721 100.384 102.826 100.285C102.931 100.187 103.015 100.069 103.074 99.9374C103.133 99.8062 103.166 99.6647 103.17 99.5208V96.5096V96.2358C103.188 95.5857 103.334 94.9455 103.601 94.3521C103.867 93.7588 104.248 93.224 104.722 92.7786C105.196 92.3333 105.753 91.9862 106.362 91.7573C106.971 91.5285 107.619 91.4224 108.269 91.4452L94.5815 90.8977C93.2804 90.8701 92.0212 91.3584 91.0787 92.2559C90.1363 93.1535 89.5872 94.3874 89.5514 95.6883Z" fill="url(#paint40_linear)"/>
    <path d="M106.796 91.3767C106.146 91.3539 105.498 91.4599 104.889 91.6888C104.281 91.9177 103.723 92.2648 103.249 92.7101C102.775 93.1555 102.394 93.6902 102.128 94.2836C101.861 94.877 101.715 95.5172 101.698 96.1673V96.4411V99.4523C101.693 99.5961 101.66 99.7377 101.601 99.8688C101.542 100 101.458 100.118 101.353 100.217C101.248 100.315 101.125 100.392 100.99 100.443C100.855 100.494 100.712 100.518 100.568 100.513H102.04C102.184 100.518 102.327 100.494 102.461 100.443C102.596 100.392 102.719 100.315 102.824 100.217C102.929 100.118 103.014 100 103.073 99.8688C103.132 99.7377 103.165 99.5961 103.169 99.4523V96.4411V96.1673C103.187 95.5172 103.333 94.877 103.599 94.2836C103.865 93.6902 104.247 93.1555 104.721 92.7101C105.195 92.2648 105.752 91.9177 106.361 91.6888C106.97 91.4599 107.618 91.3539 108.268 91.3767H106.796Z" fill="url(#paint41_linear)"/>
    <path d="M138.312 171.62C136.601 171.243 133.556 171.141 134.103 166.932H129.586C129.244 169.199 129.027 171.484 128.936 173.776C128.932 173.915 128.954 174.054 129.004 174.184C129.053 174.315 129.127 174.434 129.222 174.536C129.318 174.637 129.432 174.719 129.559 174.777C129.686 174.834 129.823 174.866 129.963 174.871H139.989C139.989 174.871 139.989 171.962 138.312 171.62Z" fill="url(#paint42_linear)"/>
    <path d="M113.881 124.98C113.876 126.125 113.956 127.268 114.121 128.402C114.148 128.596 114.218 128.782 114.324 128.948C114.43 129.113 114.571 129.254 114.737 129.36L116.276 130.318C116.434 130.422 116.618 130.478 116.807 130.478C116.995 130.478 117.18 130.422 117.337 130.318L118.295 129.668C118.574 129.487 118.771 129.205 118.843 128.881C119.104 127.698 119.276 126.497 119.356 125.288C119.361 125.195 119.346 125.102 119.314 125.015C119.282 124.928 119.232 124.849 119.168 124.781C119.104 124.714 119.027 124.661 118.942 124.624C118.856 124.588 118.765 124.569 118.672 124.569H114.497C114.364 124.562 114.232 124.597 114.12 124.672C114.009 124.746 113.925 124.854 113.881 124.98Z" fill="url(#paint43_linear)"/>
    <path d="M137.216 81.9969C137.455 80.9467 136.604 79.8568 135.314 79.5626C134.024 79.2684 132.785 79.8813 132.545 80.9315C132.306 81.9817 133.157 83.0716 134.447 83.3658C135.736 83.6601 136.976 83.0472 137.216 81.9969Z" fill="url(#paint44_linear)"/>
    <path d="M134.549 80.9401L132.872 80.2216C132.722 80.4122 132.616 80.6345 132.564 80.8717C132.503 81.4219 132.653 81.9749 132.983 82.4193C133.313 82.8637 133.799 83.1666 134.344 83.267L134.925 81.8641C134.994 81.6913 134.994 81.4985 134.923 81.3261C134.853 81.1538 134.719 81.0155 134.549 80.9401Z" fill="url(#paint45_linear)"/>
    <path d="M135.882 171.62C133.897 170.833 133.898 168.198 134.069 166.932H129.586V169.43V171.962V173.365C129.586 173.64 129.693 173.905 129.884 174.103C130.076 174.301 130.337 174.417 130.612 174.426H139.099C138.62 173.912 138.62 172.715 135.882 171.62Z" fill="url(#paint46_linear)"/>
    <path d="M161.068 155.777C160.534 154.261 160.424 152.628 160.75 151.054C161.075 149.48 161.824 148.025 162.916 146.846C162.961 146.795 163.016 146.754 163.078 146.726C163.14 146.698 163.207 146.683 163.275 146.683C163.343 146.683 163.41 146.698 163.472 146.726C163.534 146.754 163.59 146.795 163.635 146.846C163.83 147.054 163.978 147.303 164.067 147.575C164.155 147.847 164.183 148.136 164.148 148.42C164.633 148.031 165.237 147.819 165.859 147.819C166.481 147.819 167.084 148.031 167.57 148.42C167.91 147.884 168.312 147.39 168.767 146.948C168.822 146.906 168.887 146.879 168.955 146.869C169.024 146.858 169.093 146.866 169.158 146.89C169.223 146.913 169.281 146.953 169.326 147.005C169.371 147.057 169.403 147.12 169.418 147.188C170.02 149.426 170.398 151.718 170.547 154.031C170.239 154.921 169.589 156.701 165.961 159.233" fill="#241B3C"/>
    <path d="M164.237 161.106C166.286 160.761 167.704 159.031 167.403 157.242C167.101 155.453 165.195 154.282 163.145 154.628C161.095 154.973 159.678 156.703 159.979 158.492C160.28 160.281 162.187 161.452 164.237 161.106Z" fill="url(#paint47_linear)"/>
    <path d="M155.217 176.752C155.217 176.752 150.084 177.232 150.871 170.935C151.829 163.441 157.51 155.434 163.19 155.879C169.657 156.392 167.399 175.486 167.399 175.486C167.399 175.486 169.452 175.144 169.076 176.752H155.217Z" fill="#241B3C"/>
    <path d="M156.516 176.752C156.516 176.752 145.224 177.847 144.334 168.335C143.445 158.822 153.3 161.833 152.478 169.156C151.657 176.479 156.105 175.521 156.105 175.521" fill="#241B3C"/>
    <path d="M80.6534 129.052V45.0789H78.0527V129.12C78.913 128.984 79.7872 128.961 80.6534 129.052Z" fill="url(#paint48_linear)"/>
    <path d="M78.0863 92.9508C78.1102 92.7836 78.0995 92.6133 78.0548 92.4504C78.0101 92.2875 77.9324 92.1356 77.8265 92.004C77.7206 91.8724 77.5888 91.7641 77.4392 91.6856C77.2896 91.6071 77.1255 91.5602 76.9571 91.5479C75.8621 91.5479 75.2119 92.7455 75.0751 95.7568C74.9382 98.768 79.8657 100.684 79.8657 100.684L80.379 96.2016C79.7446 95.9094 79.1986 95.4549 78.796 94.8841C78.3935 94.3134 78.1487 93.6465 78.0863 92.9508Z" fill="url(#paint49_linear)"/>
    <path d="M81.0639 93.0875C80.6533 92.5742 80.6533 93.0875 80.6533 93.0875C80.6543 93.4153 80.5315 93.7314 80.3094 93.9725C80.0873 94.2136 79.7824 94.3619 79.4556 94.3878C78.258 94.3878 78.0527 92.9848 78.0527 92.9848L77.2656 97.1595L80.6875 97.7413C80.5737 97.6297 80.4833 97.4966 80.4216 97.3498C80.3598 97.2029 80.328 97.0451 80.328 96.8858C80.328 96.7265 80.3598 96.5687 80.4216 96.4218C80.4833 96.2749 80.5737 96.1418 80.6875 96.0303C80.9901 95.6098 81.183 95.1205 81.2487 94.6066C81.3144 94.0928 81.2509 93.5706 81.0639 93.0875Z" fill="url(#paint50_linear)"/>
    <path d="M87.7712 101.095L87.9765 96.0306C88.0382 95.0837 88.4651 94.1976 89.1673 93.5593C89.8695 92.9209 90.7921 92.5802 91.7406 92.6088H95.9837L92.2197 88.3314C92.2197 88.3314 89.4822 97.2625 80.7222 96.1333C76.9239 95.6542 74.8366 102.498 87.5659 101.061L87.7712 101.095Z" fill="url(#paint51_linear)"/>
    <path d="M79.764 46.7212C80.3421 46.126 80.6618 45.3267 80.6537 44.497V26.9428C80.6537 26.9428 80.4826 20.3386 73.2282 26.9428C65.9738 33.547 55.1607 50.8959 46.0927 41.1436C37.0248 31.3912 17.5543 69.1345 13.9613 62.017C13.9613 62.017 12.4215 74.6095 22.6529 70.469C22.6529 70.469 18.136 72.4879 20.1549 78.8868C20.5889 80.4113 21.3477 81.8238 22.3791 83.0273C22.7414 83.3892 23.1803 83.6651 23.6634 83.8349C24.1465 84.0046 24.6615 84.0637 25.1705 84.0079C25.6795 83.952 26.1695 83.7827 26.6044 83.5123C27.0392 83.2419 27.4078 82.8774 27.6831 82.4456C31.7551 75.6018 43.1841 58.1503 47.1877 64.6518C52.6627 73.6171 75.0076 51.5461 79.764 46.7212Z" fill="#F27C1C"/>
    <path d="M46.0928 41.1436C38.3251 32.6231 20.0181 59.6902 12.7979 62.8041C12.2039 63.1177 11.7565 63.6517 11.5518 64.2914C11.3471 64.9312 11.4013 65.6257 11.7029 66.2259C12.3504 67.9595 13.5955 69.4049 15.214 70.302C16.8325 71.1991 18.7182 71.4889 20.5314 71.1192C20.6157 71.0919 20.7066 71.0926 20.7905 71.1212C20.8745 71.1498 20.9469 71.2048 20.9969 71.278C21.047 71.3511 21.072 71.4385 21.0683 71.5271C21.0646 71.6157 21.0323 71.7007 20.9762 71.7694C20.2134 72.7724 19.732 73.9608 19.5816 75.2119C19.4312 76.4631 19.6173 77.7317 20.1207 78.8869C20.6116 80.7293 21.6212 82.392 23.0293 83.6775C23.3504 83.9453 23.7253 84.1407 24.1287 84.2504C24.5321 84.3601 24.9544 84.3816 25.3668 84.3134C25.7792 84.2453 26.1721 84.089 26.5187 83.8552C26.8653 83.6215 27.1574 83.3158 27.3751 82.9589C31.1734 76.6627 43.0815 58.0134 47.1536 64.6861L47.3247 64.9599C45.2373 61.23 47.3247 48.1242 47.3247 44.4286C47.3674 43.4059 47.1053 42.3936 46.5718 41.52L46.0928 41.1436Z" fill="#FF9C38"/>
    <defs>
        <linearGradient id="paint0_linear" x1="152.273" y1="35.3949" x2="137.456" y2="105.27" gradientUnits="userSpaceOnUse">
            <stop stop-color="#F9D5C5"/>
            <stop offset="1" stop-color="#F78E6B"/>
        </linearGradient>
        <linearGradient id="paint1_linear" x1="416.816" y1="122.669" x2="368.901" y2="309.731" gradientUnits="userSpaceOnUse">
            <stop stop-color="#F9D5C5"/>
            <stop offset="1" stop-color="#F78E6B"/>
        </linearGradient>
        <linearGradient id="paint2_linear" x1="127.602" y1="68.2791" x2="125.07" y2="67.9027" gradientUnits="userSpaceOnUse">
            <stop stop-color="white" stop-opacity="0"/>
            <stop offset="1"/>
        </linearGradient>
        <linearGradient id="paint3_linear" x1="126.78" y1="42.0676" x2="114.666" y2="71.7352" gradientUnits="userSpaceOnUse">
            <stop stop-color="#208CA3"/>
            <stop offset="0.42" stop-color="#3C4178"/>
            <stop offset="1" stop-color="#241B3C"/>
        </linearGradient>
        <linearGradient id="paint4_linear" x1="801.055" y1="647.081" x2="910.073" y2="477.63" gradientUnits="userSpaceOnUse">
            <stop stop-color="#208CA3"/>
            <stop offset="0.42" stop-color="#3C4178"/>
            <stop offset="1" stop-color="#241B3C"/>
        </linearGradient>
        <linearGradient id="paint5_linear" x1="122.776" y1="189.585" x2="96.5648" y2="94.6277" gradientUnits="userSpaceOnUse">
            <stop offset="0.04" stop-color="#B0462A"/>
            <stop offset="0.51" stop-color="#70332A"/>
            <stop offset="0.99" stop-color="#4D2C2A"/>
        </linearGradient>
        <linearGradient id="paint6_linear" x1="623.53" y1="3932.88" x2="-171.233" y2="2695.01" gradientUnits="userSpaceOnUse">
            <stop offset="0.04" stop-color="#B0462A"/>
            <stop offset="0.51" stop-color="#70332A"/>
            <stop offset="0.99" stop-color="#4D2C2A"/>
        </linearGradient>
        <linearGradient id="paint7_linear" x1="126.371" y1="219.013" x2="97.2846" y2="168.54" gradientUnits="userSpaceOnUse">
            <stop stop-color="#182EBD"/>
            <stop offset="0.58" stop-color="#0D1226"/>
        </linearGradient>
        <linearGradient id="paint8_linear" x1="1405.69" y1="3037.39" x2="760.934" y2="1653.23" gradientUnits="userSpaceOnUse">
            <stop offset="0.04" stop-color="#B0462A"/>
            <stop offset="0.51" stop-color="#70332A"/>
            <stop offset="0.99" stop-color="#4D2C2A"/>
        </linearGradient>
        <linearGradient id="paint9_linear" x1="1357.47" y1="2893.84" x2="1100.14" y2="1667.63" gradientUnits="userSpaceOnUse">
            <stop offset="0.04" stop-color="#B0462A"/>
            <stop offset="0.51" stop-color="#70332A"/>
            <stop offset="0.99" stop-color="#4D2C2A"/>
        </linearGradient>
        <linearGradient id="paint10_linear" x1="1719.23" y1="1513.09" x2="1211.4" y2="1434.9" gradientUnits="userSpaceOnUse">
            <stop stop-color="#208CA3"/>
            <stop offset="0.42" stop-color="#3C4178"/>
            <stop offset="1" stop-color="#241B3C"/>
        </linearGradient>
        <linearGradient id="paint11_linear" x1="598.656" y1="565.008" x2="637.186" y2="553.906" gradientUnits="userSpaceOnUse">
            <stop stop-color="#208CA3"/>
            <stop offset="0.42" stop-color="#3C4178"/>
            <stop offset="1" stop-color="#241B3C"/>
        </linearGradient>
        <linearGradient id="paint12_linear" x1="1689.46" y1="501.84" x2="1332.23" y2="898.73" gradientUnits="userSpaceOnUse">
            <stop stop-color="#208CA3"/>
            <stop offset="0.42" stop-color="#3C4178"/>
            <stop offset="1" stop-color="#241B3C"/>
        </linearGradient>
        <linearGradient id="paint13_linear" x1="129.449" y1="70.0243" x2="122.708" y2="84.6015" gradientUnits="userSpaceOnUse">
            <stop stop-color="#FFD600"/>
            <stop offset="0.22" stop-color="#FF9C38"/>
            <stop offset="1" stop-color="#FF5147"/>
        </linearGradient>
        <linearGradient id="paint14_linear" x1="1084.14" y1="710.124" x2="1052.89" y2="587.646" gradientUnits="userSpaceOnUse">
            <stop stop-color="#208CA3"/>
            <stop offset="0.42" stop-color="#3C4178"/>
            <stop offset="1" stop-color="#241B3C"/>
        </linearGradient>
        <linearGradient id="paint15_linear" x1="855.234" y1="942.077" x2="649.345" y2="852.086" gradientUnits="userSpaceOnUse">
            <stop stop-color="#FFD600"/>
            <stop offset="0.22" stop-color="#FF9C38"/>
            <stop offset="1" stop-color="#FF5147"/>
        </linearGradient>
        <linearGradient id="paint16_linear" x1="318.633" y1="476.098" x2="299.537" y2="470.404" gradientUnits="userSpaceOnUse">
            <stop stop-color="#FFD600"/>
            <stop offset="0.22" stop-color="#FF9C38"/>
            <stop offset="1" stop-color="#FF5147"/>
        </linearGradient>
        <linearGradient id="paint17_linear" x1="111.108" y1="106.399" x2="111.108" y2="68.5529" gradientUnits="userSpaceOnUse">
            <stop stop-color="#7FF1A4"/>
            <stop offset="0.52" stop-color="#2FBCA4"/>
            <stop offset="1" stop-color="#2F7DA4"/>
        </linearGradient>
        <linearGradient id="paint18_linear" x1="11.0618" y1="177.551" x2="12.117" y2="151.046" gradientUnits="userSpaceOnUse">
            <stop stop-color="#7FF1A4"/>
            <stop offset="0.52" stop-color="#2FBCA4"/>
            <stop offset="1" stop-color="#2F7DA4"/>
        </linearGradient>
        <linearGradient id="paint19_linear" x1="29.9056" y1="178.609" x2="30.9608" y2="152.105" gradientUnits="userSpaceOnUse">
            <stop stop-color="#7FF1A4"/>
            <stop offset="0.52" stop-color="#2FBCA4"/>
            <stop offset="1" stop-color="#2F7DA4"/>
        </linearGradient>
        <linearGradient id="paint20_linear" x1="379.155" y1="258.432" x2="379.155" y2="211.617" gradientUnits="userSpaceOnUse">
            <stop stop-color="#7FF1A4"/>
            <stop offset="0.52" stop-color="#2FBCA4"/>
            <stop offset="1" stop-color="#2F7DA4"/>
        </linearGradient>
        <linearGradient id="paint21_linear" x1="250.518" y1="162.581" x2="250.518" y2="147.065" gradientUnits="userSpaceOnUse">
            <stop stop-color="#7FF1A4"/>
            <stop offset="0.52" stop-color="#2FBCA4"/>
            <stop offset="1" stop-color="#2F7DA4"/>
        </linearGradient>
        <linearGradient id="paint22_linear" x1="108.143" y1="80.5156" x2="108.374" y2="74.7031" gradientUnits="userSpaceOnUse">
            <stop stop-color="#FFD600"/>
            <stop offset="0.3" stop-color="#FF9C38"/>
            <stop offset="1" stop-color="#FF5147"/>
        </linearGradient>
        <linearGradient id="paint23_linear" x1="341.49" y1="131.091" x2="341.49" y2="126.583" gradientUnits="userSpaceOnUse">
            <stop stop-color="#FFD600"/>
            <stop offset="0.3" stop-color="#FF9C38"/>
            <stop offset="1" stop-color="#FF5147"/>
        </linearGradient>
        <linearGradient id="paint24_linear" x1="111.651" y1="111.1" x2="76.5422" y2="95.7982" gradientUnits="userSpaceOnUse">
            <stop stop-color="#ABCF9C"/>
            <stop offset="0.17" stop-color="#84CF9C"/>
            <stop offset="0.46" stop-color="#39CE9C"/>
            <stop offset="1" stop-color="#007A75"/>
        </linearGradient>
        <linearGradient id="paint25_linear" x1="-507.443" y1="676.499" x2="-497.16" y2="418.228" gradientUnits="userSpaceOnUse">
            <stop stop-color="#FFD600"/>
            <stop offset="0.22" stop-color="#FF9C38"/>
            <stop offset="1" stop-color="#FF5147"/>
        </linearGradient>
        <linearGradient id="paint26_linear" x1="1133.91" y1="1465.97" x2="673.905" y2="1289.35" gradientUnits="userSpaceOnUse">
            <stop stop-color="#FFD600"/>
            <stop offset="0.22" stop-color="#FF9C38"/>
            <stop offset="1" stop-color="#FF5147"/>
        </linearGradient>
        <linearGradient id="paint27_linear" x1="-929.24" y1="302.383" x2="-928.134" y2="274.6" gradientUnits="userSpaceOnUse">
            <stop stop-color="#FFD600"/>
            <stop offset="0.22" stop-color="#FF9C38"/>
            <stop offset="1" stop-color="#FF5147"/>
        </linearGradient>
        <linearGradient id="paint28_linear" x1="-2308.09" y1="1290.45" x2="-2272.27" y2="390.945" gradientUnits="userSpaceOnUse">
            <stop stop-color="#FFD600"/>
            <stop offset="0.22" stop-color="#FF9C38"/>
            <stop offset="1" stop-color="#FF5147"/>
        </linearGradient>
        <linearGradient id="paint29_linear" x1="-1225.28" y1="321.103" x2="-1223.97" y2="288.256" gradientUnits="userSpaceOnUse">
            <stop stop-color="#FFD600"/>
            <stop offset="0.22" stop-color="#FF9C38"/>
            <stop offset="1" stop-color="#FF5147"/>
        </linearGradient>
        <linearGradient id="paint30_linear" x1="820.51" y1="386.857" x2="820.51" y2="342.755" gradientUnits="userSpaceOnUse">
            <stop stop-color="#FFD600"/>
            <stop offset="0.22" stop-color="#FF9C38"/>
            <stop offset="1" stop-color="#FF5147"/>
        </linearGradient>
        <linearGradient id="paint31_linear" x1="-503.058" y1="244.707" x2="-543.152" y2="207.543" gradientUnits="userSpaceOnUse">
            <stop stop-color="#FFD600"/>
            <stop offset="0.22" stop-color="#FF9C38"/>
            <stop offset="1" stop-color="#FF5147"/>
        </linearGradient>
        <linearGradient id="paint32_linear" x1="155.934" y1="122.653" x2="102.861" y2="95.8593" gradientUnits="userSpaceOnUse">
            <stop stop-color="#FFD600"/>
            <stop offset="0.27" stop-color="#FF9C38"/>
            <stop offset="1" stop-color="#FF5147"/>
        </linearGradient>
        <linearGradient id="paint33_linear" x1="511.408" y1="773.525" x2="388.097" y2="762.199" gradientUnits="userSpaceOnUse">
            <stop stop-color="#FFD600"/>
            <stop offset="0.22" stop-color="#FF9C38"/>
            <stop offset="1" stop-color="#FF5147"/>
        </linearGradient>
        <linearGradient id="paint34_linear" x1="-1528.93" y1="710.935" x2="-1512.47" y2="297.607" gradientUnits="userSpaceOnUse">
            <stop stop-color="#FFD600"/>
            <stop offset="0.22" stop-color="#FF9C38"/>
            <stop offset="1" stop-color="#FF5147"/>
        </linearGradient>
        <linearGradient id="paint35_linear" x1="149.691" y1="585.554" x2="106.137" y2="581.194" gradientUnits="userSpaceOnUse">
            <stop stop-color="#FFD600"/>
            <stop offset="0.22" stop-color="#FF9C38"/>
            <stop offset="1" stop-color="#FF5147"/>
        </linearGradient>
        <linearGradient id="paint36_linear" x1="41.3039" y1="166.92" x2="42.0339" y2="148.583" gradientUnits="userSpaceOnUse">
            <stop stop-color="#FFD600"/>
            <stop offset="0.22" stop-color="#FF9C38"/>
            <stop offset="1" stop-color="#FF5147"/>
        </linearGradient>
        <linearGradient id="paint37_linear" x1="335.372" y1="148.253" x2="335.571" y2="143.236" gradientUnits="userSpaceOnUse">
            <stop stop-color="#FFD600"/>
            <stop offset="0.22" stop-color="#FF9C38"/>
            <stop offset="1" stop-color="#FF5147"/>
        </linearGradient>
        <linearGradient id="paint38_linear" x1="-320.911" y1="218.371" x2="-319.75" y2="189.216" gradientUnits="userSpaceOnUse">
            <stop stop-color="#208CA3"/>
            <stop offset="0.42" stop-color="#3C4178"/>
            <stop offset="1" stop-color="#241B3C"/>
        </linearGradient>
        <linearGradient id="paint39_linear" x1="-292.904" y1="219.861" x2="-291.743" y2="190.697" gradientUnits="userSpaceOnUse">
            <stop stop-color="#208CA3"/>
            <stop offset="0.42" stop-color="#3C4178"/>
            <stop offset="1" stop-color="#241B3C"/>
        </linearGradient>
        <linearGradient id="paint40_linear" x1="-1562.9" y1="239.794" x2="-1561.05" y2="193.147" gradientUnits="userSpaceOnUse">
            <stop stop-color="#FFD600"/>
            <stop offset="0.22" stop-color="#FF9C38"/>
            <stop offset="1" stop-color="#FF5147"/>
        </linearGradient>
        <linearGradient id="paint41_linear" x1="-272.773" y1="264.133" x2="-296.728" y2="242.031" gradientUnits="userSpaceOnUse">
            <stop stop-color="#FFD600"/>
            <stop offset="0.22" stop-color="#FF9C38"/>
            <stop offset="1" stop-color="#FF5147"/>
        </linearGradient>
        <linearGradient id="paint42_linear" x1="620.03" y1="619.679" x2="564.912" y2="486.509" gradientUnits="userSpaceOnUse">
            <stop stop-color="#182EBD"/>
            <stop offset="0.58" stop-color="#0D1226"/>
        </linearGradient>
        <linearGradient id="paint43_linear" x1="296.562" y1="364.63" x2="304.775" y2="294.317" gradientUnits="userSpaceOnUse">
            <stop offset="0.04" stop-color="#B0462A"/>
            <stop offset="0.51" stop-color="#70332A"/>
            <stop offset="0.99" stop-color="#4D2C2A"/>
        </linearGradient>
        <linearGradient id="paint44_linear" x1="288.22" y1="172.975" x2="278.977" y2="202.43" gradientUnits="userSpaceOnUse">
            <stop stop-color="#208CA3"/>
            <stop offset="0.42" stop-color="#3C4178"/>
            <stop offset="1" stop-color="#241B3C"/>
        </linearGradient>
        <linearGradient id="paint45_linear" x1="223.228" y1="146.46" x2="233.956" y2="143.911" gradientUnits="userSpaceOnUse">
            <stop stop-color="#208CA3"/>
            <stop offset="0.42" stop-color="#3C4178"/>
            <stop offset="1" stop-color="#241B3C"/>
        </linearGradient>
        <linearGradient id="paint46_linear" x1="541.586" y1="583.069" x2="506.527" y2="505.559" gradientUnits="userSpaceOnUse">
            <stop stop-color="#182EBD"/>
            <stop offset="0.58" stop-color="#0D1226"/>
        </linearGradient>
        <linearGradient id="paint47_linear" x1="568.084" y1="427.048" x2="507.685" y2="448.859" gradientUnits="userSpaceOnUse">
            <stop stop-color="#3DB6D3"/>
            <stop offset="0.5" stop-color="#3D6FD3"/>
            <stop offset="1" stop-color="#252784"/>
        </linearGradient>
        <linearGradient id="paint48_linear" x1="138.387" y1="2832.73" x2="138.387" y2="466.125" gradientUnits="userSpaceOnUse">
            <stop stop-color="#182EBD"/>
            <stop offset="0.58" stop-color="#0D1226"/>
        </linearGradient>
        <linearGradient id="paint49_linear" x1="219.839" y1="128.368" x2="156.913" y2="300.335" gradientUnits="userSpaceOnUse">
            <stop stop-color="#F9D5C5"/>
            <stop offset="1" stop-color="#F78E6B"/>
        </linearGradient>
        <linearGradient id="paint50_linear" x1="188.134" y1="112.924" x2="162.912" y2="210.581" gradientUnits="userSpaceOnUse">
            <stop stop-color="#F9D5C5"/>
            <stop offset="1" stop-color="#F78E6B"/>
        </linearGradient>
        <linearGradient id="paint51_linear" x1="495.751" y1="386.842" x2="560.485" y2="469.316" gradientUnits="userSpaceOnUse">
            <stop stop-color="#208CA3"/>
            <stop offset="0.42" stop-color="#3C4178"/>
            <stop offset="1" stop-color="#241B3C"/>
        </linearGradient>
    </defs>
</svg>
