<svg width="32" height="32" viewBox="0 0 32 32" fill="none" xmlns="http://www.w3.org/2000/svg">
    <path d="M23.7267 4H8.27333C7.01781 4 6 5.01781 6 6.27333V27.7267C6 28.9822 7.01781 30 8.27333 30H23.7267C24.9822 30 26 28.9822 26 27.7267V6.27333C26 5.01781 24.9822 4 23.7267 4Z" fill="#6848E2"/>
    <path opacity="0.2" d="M16 18C18.7614 18 21 15.7614 21 13C21 10.2386 18.7614 8 16 8C13.2386 8 11 10.2386 11 13C11 15.7614 13.2386 18 16 18Z" fill="white"/>
    <path d="M15.9999 14.4468C15.2719 14.4466 14.5526 14.6059 13.8927 14.9134C13.2327 15.2209 12.6481 15.6692 12.1799 16.2268C12.6486 16.7836 13.2334 17.2312 13.8933 17.5382C14.5531 17.8453 15.2721 18.0044 15.9999 18.0044C16.7277 18.0044 17.4467 17.8453 18.1066 17.5382C18.7665 17.2312 19.3512 16.7836 19.8199 16.2268C19.3517 15.6692 18.7672 15.2209 18.1072 14.9134C17.4473 14.6059 16.728 14.4466 15.9999 14.4468Z" fill="url(#paint0_linear)"/>
    <path d="M16 14.0066C17.1046 14.0066 18 13.1112 18 12.0066C18 10.902 17.1046 10.0066 16 10.0066C14.8954 10.0066 14 10.902 14 12.0066C14 13.1112 14.8954 14.0066 16 14.0066Z" fill="url(#paint1_linear)"/>
    <path d="M20.14 2.99992H18.08C17.9809 3.00106 17.8829 2.98012 17.7929 2.9386C17.703 2.89708 17.6234 2.83604 17.56 2.75992C17.3726 2.52633 17.1351 2.33781 16.8651 2.20827C16.5951 2.07873 16.2995 2.01147 16 2.01147C15.7005 2.01147 15.4049 2.07873 15.1349 2.20827C14.8649 2.33781 14.6274 2.52633 14.44 2.75992C14.3766 2.83604 14.297 2.89708 14.2071 2.9386C14.1171 2.98012 14.0191 3.00106 13.92 2.99992H11.86C11.6319 2.99992 11.4132 3.09052 11.2519 3.2518C11.0906 3.41309 11 3.63183 11 3.85992V5.13992C11 5.368 11.0906 5.58675 11.2519 5.74803C11.4132 5.90931 11.6319 5.99992 11.86 5.99992H20.14C20.3681 5.99992 20.5868 5.90931 20.7481 5.74803C20.9094 5.58675 21 5.368 21 5.13992V3.85992C21 3.63183 20.9094 3.41309 20.7481 3.2518C20.5868 3.09052 20.3681 2.99992 20.14 2.99992Z" fill="#F3A33A"/>
    <path d="M16 4.81323C16.2761 4.81323 16.5 4.58937 16.5 4.31323C16.5 4.03709 16.2761 3.81323 16 3.81323C15.7239 3.81323 15.5 4.03709 15.5 4.31323C15.5 4.58937 15.7239 4.81323 16 4.81323Z" fill="#6848E2"/>
    <path d="M21.5133 20.9999H10.4867C10.3576 20.9999 10.2338 20.9487 10.1425 20.8574C10.0513 20.7661 10 20.6423 10 20.5133C10 20.3842 10.0513 20.2604 10.1425 20.1692C10.2338 20.0779 10.3576 20.0266 10.4867 20.0266H21.5133C21.6424 20.0266 21.7662 20.0779 21.8575 20.1692C21.9487 20.2604 22 20.3842 22 20.5133C22 20.6423 21.9487 20.7661 21.8575 20.8574C21.7662 20.9487 21.6424 20.9999 21.5133 20.9999Z" fill="#F5FAFA"/>
    <path d="M21.5133 23.9999H10.4867C10.3576 23.9999 10.2338 23.9487 10.1425 23.8574C10.0513 23.7661 10 23.6423 10 23.5133C10 23.3842 10.0513 23.2604 10.1425 23.1692C10.2338 23.0779 10.3576 23.0266 10.4867 23.0266H21.5133C21.6424 23.0266 21.7662 23.0779 21.8575 23.1692C21.9487 23.2604 22 23.3842 22 23.5133C22 23.6423 21.9487 23.7661 21.8575 23.8574C21.7662 23.9487 21.6424 23.9999 21.5133 23.9999Z" fill="#F5FAFA"/>
    <path d="M15.5133 26.9999H10.4867C10.3576 26.9999 10.2338 26.9487 10.1425 26.8574C10.0513 26.7661 10 26.6423 10 26.5133C10 26.3842 10.0513 26.2604 10.1425 26.1692C10.2338 26.0779 10.3576 26.0266 10.4867 26.0266H15.5133C15.6424 26.0266 15.7662 26.0779 15.8575 26.1692C15.9487 26.2604 16 26.3842 16 26.5133C16 26.6423 15.9487 26.7661 15.8575 26.8574C15.7662 26.9487 15.6424 26.9999 15.5133 26.9999Z" fill="#F5FAFA"/>
    <path d="M17.5133 26.9999C17.3842 26.9999 17.2604 26.9487 17.1692 26.8574C17.0779 26.7661 17.0266 26.6423 17.0266 26.5133C17.0266 26.3842 17.0779 26.2604 17.1692 26.1692C17.2604 26.0779 17.3842 26.0266 17.5133 26.0266C17.6424 26.0266 17.7661 26.0779 17.8574 26.1692C17.9487 26.2604 17.9999 26.3842 17.9999 26.5133C17.9999 26.6423 17.9487 26.7661 17.8574 26.8574C17.7661 26.9487 17.6424 26.9999 17.5133 26.9999Z" fill="#F5FAFA"/>
    <path d="M19.5133 26.9999C19.3842 26.9999 19.2604 26.9487 19.1692 26.8574C19.0779 26.7661 19.0266 26.6423 19.0266 26.5133C19.0266 26.3842 19.0779 26.2604 19.1692 26.1692C19.2604 26.0779 19.3842 26.0266 19.5133 26.0266C19.6424 26.0266 19.7661 26.0779 19.8574 26.1692C19.9487 26.2604 19.9999 26.3842 19.9999 26.5133C19.9999 26.6423 19.9487 26.7661 19.8574 26.8574C19.7661 26.9487 19.6424 26.9999 19.5133 26.9999Z" fill="#F5FAFA"/>
    <path d="M21.5133 26.9999C21.3842 26.9999 21.2604 26.9487 21.1692 26.8574C21.0779 26.7661 21.0266 26.6423 21.0266 26.5133C21.0266 26.3842 21.0779 26.2604 21.1692 26.1692C21.2604 26.0779 21.3842 26.0266 21.5133 26.0266C21.6424 26.0266 21.7661 26.0779 21.8574 26.1692C21.9487 26.2604 21.9999 26.3842 21.9999 26.5133C21.9999 26.6423 21.9487 26.7661 21.8574 26.8574C21.7661 26.9487 21.6424 26.9999 21.5133 26.9999Z" fill="#F5FAFA"/>
    <defs>
        <linearGradient id="paint0_linear" x1="15.9999" y1="19.0001" x2="15.9999" y2="-9.5799" gradientUnits="userSpaceOnUse">
            <stop stop-color="white"/>
            <stop offset="0.52" stop-color="#CCE2E6"/>
            <stop offset="1" stop-color="#8FA1BB"/>
        </linearGradient>
        <linearGradient id="paint1_linear" x1="16" y1="15.1262" x2="16" y2="-17.0079" gradientUnits="userSpaceOnUse">
            <stop stop-color="white"/>
            <stop offset="0.52" stop-color="#CCE2E6"/>
            <stop offset="1" stop-color="#8FA1BB"/>
        </linearGradient>
    </defs>
</svg>
