<svg width="312" height="67" viewBox="0 0 312 67" fill="none" xmlns="http://www.w3.org/2000/svg">
    <path d="M60.8928 31.8065H71.7842V34.2252H60.8928V44.3837H58.2305V22.7363H72.9944V25.276H60.8928V31.8065Z" fill="#1A1A1A"/>
    <path d="M78.561 44.3837H75.8987V28.2993H78.561V44.3837ZM78.561 25.8806H75.8987V22.7363H78.561V25.8806Z" fill="#1A1A1A"/>
    <path d="M89.8155 30.4759C87.0321 30.355 84.6118 31.8062 84.6118 34.9505V44.2625H81.9495V28.1782H84.4908V29.9922C85.7009 28.2991 87.8792 27.5735 89.6945 27.8154V30.4759H89.8155Z" fill="#1A1A1A"/>
    <path d="M97.8028 44.7465C93.9303 44.7465 91.0259 42.6906 90.6628 39.3044H93.3252C93.6882 41.1185 95.5035 42.3278 97.8028 42.3278C100.344 42.3278 101.796 41.1185 101.796 39.6672C101.796 38.5788 101.312 37.7323 97.4397 37.1276C93.5672 36.5229 91.1469 35.6764 91.1469 32.653C91.1469 30.3552 93.2042 27.9365 97.4397 27.9365C101.191 27.9365 103.612 29.7505 103.975 33.0158H101.312C100.949 31.3227 99.376 30.4762 97.4397 30.4762C95.2614 30.4762 93.8092 31.4436 93.8092 32.7739C93.8092 33.9833 94.6564 34.3461 97.9238 34.8298C101.433 35.4345 104.459 36.0392 104.459 39.7882C104.459 42.6906 101.675 44.7465 97.8028 44.7465Z" fill="#1A1A1A"/>
    <path d="M113.897 44.3834C110.146 44.8671 107.605 42.5694 107.605 38.4576V30.8387H105.426V28.299H107.605V24.9128H110.267V28.299H113.897V30.8387H110.267V38.4576C110.267 41.2391 111.961 41.9647 114.018 41.8438V44.3834H113.897Z" fill="#1A1A1A"/>
    <path d="M139.674 44.3838H137.012V34.3462C137.012 31.8065 135.801 30.3553 133.381 30.3553C131.203 30.3553 129.63 32.1693 129.63 34.588V44.3838H126.967V34.3462C126.967 31.8065 125.757 30.3553 123.337 30.3553C121.159 30.3553 119.585 32.1693 119.464 34.588V44.3838H116.802V28.2994H119.343V29.9925C120.311 28.6622 121.885 27.8157 123.579 27.8157C125.878 27.8157 127.572 28.9041 128.541 30.5972C129.509 28.9041 131.203 27.8157 133.623 27.8157C137.375 27.8157 139.553 30.3553 139.553 34.3462L139.674 44.3838Z" fill="#1A1A1A"/>
    <path d="M153.591 42.4487C152.381 43.8999 150.565 44.6255 148.024 44.6255C144.757 44.6255 141.731 43.1743 141.731 39.6672C141.731 36.4019 144.152 34.8298 148.266 34.5879C152.26 34.346 153.47 33.7413 153.47 32.411C153.47 31.0808 152.26 30.1133 149.476 30.1133C147.782 30.1133 145.604 30.597 145.241 33.0157H142.457C142.699 29.7505 145.362 27.6946 149.476 27.6946C153.833 27.6946 156.011 29.7505 156.011 32.6529V41.4812C156.011 42.3277 156.253 43.5371 156.495 44.1418H153.833C153.833 43.8999 153.712 43.2952 153.591 42.4487ZM153.591 35.6763C152.502 36.6438 150.565 36.8856 148.75 37.0066C145.241 37.2485 144.515 38.4578 144.515 39.7881C144.515 41.4812 146.209 42.3277 148.266 42.3277C151.049 42.3277 153.591 41.1184 153.712 38.2159V35.6763H153.591Z" fill="#1A1A1A"/>
    <path d="M167.508 30.4759C164.724 30.355 162.304 31.8062 162.304 34.9505V44.2625H159.642V28.1782H162.183V29.9922C163.393 28.2991 165.571 27.5735 167.387 27.8154V30.4759H167.508Z" fill="#1A1A1A"/>
    <path d="M184.208 44.3836H180.94L175.495 36.16L172.348 39.1834V44.3836H169.686V21.1641H172.348V35.5553L179.73 28.2992H183.603L177.431 34.346L184.208 44.3836Z" fill="#1A1A1A"/>
    <path d="M209.742 28.4197H208.531C208.531 25.2754 206.111 23.0986 202.36 23.0986C198.608 23.0986 196.188 24.9126 196.188 27.6941C196.188 30.1128 198.003 31.3222 202.602 32.2897C207.442 33.2571 210.226 34.5874 210.226 38.3364C210.226 42.0854 207.079 44.5041 202.239 44.5041C198.487 44.5041 194.373 42.3273 194.373 37.4899H195.583C195.583 41.4807 198.971 43.2948 202.239 43.2948C206.474 43.2948 209.136 41.3598 209.136 38.2155C209.136 35.5549 207.442 34.3456 202.36 33.2571C198.487 32.5315 194.978 31.2012 194.978 27.5732C194.978 24.0661 197.882 21.7683 202.36 21.7683C207.563 22.1311 209.742 25.2754 209.742 28.4197Z" fill="#014386"/>
    <path d="M213.614 36.2804C213.614 40.5131 216.76 43.5365 220.633 43.5365C224.384 43.5365 226.079 41.4806 226.926 39.3038H228.136C227.047 42.8109 224.384 44.6249 220.633 44.6249C216.034 44.6249 212.404 40.9969 212.404 36.2804C212.404 31.5639 216.034 27.8149 220.391 27.8149C225.231 27.8149 228.499 32.1686 228.378 36.2804H213.614ZM227.289 35.192C226.684 31.6849 223.9 29.1452 220.512 29.1452C217.123 29.1452 214.34 31.8058 213.735 35.192H227.289Z" fill="#014386"/>
    <path d="M239.269 29.0241C237.091 28.7822 235.518 29.3869 234.55 30.3544C233.339 31.4428 232.734 32.894 232.734 34.5871V44.2619H231.524V28.1776H232.734V30.8381C232.976 30.3544 233.339 29.7497 233.823 29.3869C235.276 28.1776 237.091 27.5729 239.269 27.8148V29.0241Z" fill="#014386"/>
    <path d="M248.104 44.3832H246.893L240.722 28.2988H241.932L247.499 42.811L253.065 28.2988H254.275L248.104 44.3832Z" fill="#014386"/>
    <path d="M258.027 44.3833H256.817V28.2989H258.027V44.3833ZM258.027 25.5174H256.817V22.615H258.027V25.5174Z" fill="#014386"/>
    <path d="M268.918 44.746C264.441 44.746 260.931 40.997 260.931 36.4015C260.931 31.685 264.562 27.936 268.918 27.936C272.428 27.936 275.211 30.1129 276.3 33.2572H275.09C274.122 30.7175 271.823 29.0245 268.918 29.0245C265.167 29.0245 262.02 32.2897 262.02 36.2806C262.02 40.2714 265.167 43.5367 268.918 43.5367C271.944 43.5367 274.122 41.9645 275.09 39.3039H276.3C275.332 42.5692 272.549 44.746 268.918 44.746Z" fill="#014386"/>
    <path d="M279.689 36.2804C279.689 40.5131 282.835 43.5365 286.708 43.5365C290.459 43.5365 292.153 41.4806 293 39.3038H294.211C293.121 42.8109 290.459 44.6249 286.708 44.6249C282.109 44.6249 278.479 40.9969 278.479 36.2804C278.479 31.5639 282.109 27.8149 286.466 27.8149C291.306 27.8149 294.574 32.1686 294.453 36.2804H279.689ZM293.242 35.192C292.637 31.6849 289.854 29.1452 286.466 29.1452C283.077 29.1452 280.294 31.8058 279.689 35.192H293.242Z" fill="#014386"/>
    <path d="M308.611 42.8109C307.401 44.0203 305.586 44.6249 303.287 44.6249C299.172 44.6249 296.389 42.8109 295.784 39.5456H296.994C297.599 42.0853 299.898 43.5365 303.287 43.5365C305.223 43.5365 306.796 42.9318 307.764 41.9644C308.369 41.3597 308.611 40.6341 308.49 39.7875C308.369 37.8526 306.796 36.7641 302.924 36.2804C300.14 35.9176 296.752 35.4339 296.631 32.1686C296.631 29.9918 298.688 27.8149 302.682 27.8149C306.191 27.8149 308.611 29.3871 309.216 32.2895H308.006C307.401 30.1127 305.465 28.9034 302.682 28.9034C299.777 28.9034 297.72 30.3546 297.72 32.1686C297.72 33.9826 299.414 34.5873 303.045 35.071C306.433 35.5548 309.458 36.4013 309.579 39.6666C309.821 40.8759 309.458 42.0853 308.611 42.8109Z" fill="#014386"/>
    <path d="M30.7598 12.94L39.2309 12.2144L30.7598 12.94Z" fill="#014386"/>
    <path d="M39.957 33.2571H49.5173L39.2309 12.2144L33.9062 21.7682L39.957 33.2571Z" fill="#014386"/>
    <path d="M39.957 33.2571L33.9062 44.7459L39.2309 54.1789L49.5173 33.2571H39.957Z" fill="#5A85B0"/>
    <path d="M31.2438 3.02344L19.5053 4.47466L2.32104 33.2572H13.3335L31.2438 3.02344Z" fill="#404040"/>
    <path d="M33.9061 21.7682L39.2308 12.2144L29.3075 13.1818L17.811 33.2571H27.3713L33.9061 21.7682Z" fill="#5A85B0"/>
    <path d="M27.3713 33.2571H17.811L29.3075 53.3323L39.2308 54.2998V54.1789L33.9061 44.7459L27.3713 33.2571Z" fill="#014386"/>
    <path d="M2.32104 33.2571L19.5053 61.9187L31.2438 63.4909L13.3335 33.2571H2.32104Z" fill="#1A1A1A"/>
    <path d="M195.946 59.8628L197.64 54.2998H198.608L200.302 59.8628H199.697L199.213 58.1697H197.156L196.672 59.8628H195.946ZM197.277 57.565H198.971L198.124 54.6626H198.003L197.277 57.565Z" fill="#A4A9AD"/>
    <path d="M206.111 54.179H207.563C209.136 54.179 210.104 55.1464 210.104 56.9605C210.104 58.6536 209.257 59.742 207.563 59.742H206.111V54.179ZM206.716 59.2582H207.563C208.894 59.2582 209.499 58.5326 209.499 56.9605C209.499 55.3883 208.773 54.6627 207.563 54.6627H206.716V59.2582Z" fill="#A4A9AD"/>
    <path d="M212.888 54.179V59.742H212.283V54.179H212.888Z" fill="#A4A9AD"/>
    <path d="M214.824 54.179H215.429L216.76 58.7745L218.091 54.179H218.697L217.002 59.742H216.397L214.824 54.179Z" fill="#A4A9AD"/>
    <path d="M221.48 54.179V59.742H220.875V54.179H221.48Z" fill="#A4A9AD"/>
    <path d="M226.805 55.63C226.684 55.1463 226.2 54.6625 225.473 54.6625C224.868 54.6625 224.384 55.0253 224.384 55.5091C224.384 56.7184 227.531 56.4766 227.531 58.1697C227.531 59.0162 227.047 59.8627 225.594 59.8627C224.384 59.8627 223.9 59.0162 223.658 58.4115L224.263 58.1697C224.505 58.7743 224.868 59.2581 225.715 59.2581C226.563 59.2581 226.926 58.7743 226.926 58.2906C226.926 56.8394 223.779 57.3231 223.779 55.5091C223.779 54.6625 224.505 54.0579 225.473 54.0579C226.321 54.0579 227.047 54.5416 227.289 55.3881L226.805 55.63Z" fill="#A4A9AD"/>
    <path d="M230.556 54.179V59.742H229.951V54.179H230.556Z" fill="#A4A9AD"/>
    <path d="M234.913 54.179C236.244 54.179 237.091 55.1464 237.091 57.0814C237.091 58.8954 236.244 59.9838 234.913 59.9838C233.581 59.9838 232.734 59.0164 232.734 57.0814C232.734 55.1464 233.581 54.179 234.913 54.179ZM234.913 59.3792C235.881 59.3792 236.486 58.6536 236.486 57.0814C236.486 55.5092 235.881 54.7836 234.913 54.7836C233.945 54.7836 233.339 55.5092 233.339 57.0814C233.339 58.6536 233.945 59.3792 234.913 59.3792Z" fill="#A4A9AD"/>
    <path d="M239.269 59.8628V54.2998H240.116L242.537 58.6535V54.2998H243.142V59.8628H242.658L239.874 54.9045V59.8628H239.269Z" fill="#A4A9AD"/>
    <path d="M251.25 54.179C252.581 54.179 253.428 55.1464 253.428 57.0814C253.428 58.8954 252.581 59.9838 251.25 59.9838C249.918 59.9838 249.071 59.0164 249.071 57.0814C249.071 55.1464 249.918 54.179 251.25 54.179ZM251.25 59.3792C252.218 59.3792 252.823 58.6536 252.823 57.0814C252.823 55.5092 252.218 54.7836 251.25 54.7836C250.281 54.7836 249.676 55.5092 249.676 57.0814C249.676 58.6536 250.281 59.3792 251.25 59.3792Z" fill="#A4A9AD"/>
    <path d="M258.753 54.1788V54.6625H256.09V56.4766H258.148V56.9603H256.09V59.6209H255.485V54.0579H258.753V54.1788Z" fill="#A4A9AD"/>
    <path d="M308.975 58.8955C308.491 58.8955 308.249 58.7746 308.007 58.5327C307.765 58.2908 307.765 57.928 307.765 57.5652V55.1465H308.975C308.975 55.1465 309.096 55.1465 309.096 55.0256V53.8162C309.096 53.8162 309.096 53.6953 308.975 53.6953H307.765V52.1231C307.765 52.1231 307.765 52.0022 307.644 52.0022H306.07C306.07 52.0022 305.949 52.0022 305.949 52.1231V57.4443C305.949 58.4118 306.191 59.1374 306.797 59.6211C307.281 59.9839 308.007 60.2258 308.854 60.2258H308.975C308.975 60.2258 309.096 60.2258 309.096 60.1049L308.975 58.8955C309.096 59.0164 308.975 58.8955 308.975 58.8955Z" fill="#A4A9AD"/>
    <path d="M289.733 58.8954C289.249 58.8954 288.886 58.7744 288.765 58.6535C288.523 58.4116 288.523 58.0488 288.523 57.5651V51.2765C288.523 51.2765 288.523 51.1555 288.402 51.1555H286.829C286.829 51.1555 286.708 51.1555 286.708 51.2765V57.5651C286.708 58.5326 286.95 59.2582 287.555 59.7419C287.918 60.1047 288.644 60.3466 289.37 60.3466C289.491 60.3466 289.612 60.3466 289.733 60.3466C289.733 60.3466 289.854 60.3466 289.854 60.2257L289.733 58.8954C289.733 59.0163 289.733 59.0163 289.733 58.8954Z" fill="#A4A9AD"/>
    <path d="M271.702 53.6951C270.976 53.6951 270.492 54.0579 270.008 54.4207V53.9369C270.008 53.9369 270.008 53.816 269.887 53.816H268.555C268.555 53.816 268.434 53.816 268.434 53.9369V60.1046C268.434 60.1046 268.434 60.2256 268.555 60.2256H270.129C270.129 60.2256 270.25 60.2256 270.25 60.1046V55.8719C270.855 55.2672 271.097 55.1463 271.46 55.1463C271.944 55.1463 272.549 55.5091 272.549 56.4766V60.1046C272.549 60.1046 272.549 60.2256 272.67 60.2256H274.243C274.243 60.2256 274.364 60.2256 274.364 60.1046V56.1138C274.122 54.5416 272.912 53.6951 271.702 53.6951Z" fill="#A4A9AD"/>
    <path d="M280.899 56.5975C281.02 55.63 281.504 55.0254 282.23 55.0254C283.077 55.0254 283.44 55.5091 283.44 56.4766C283.44 56.4766 283.44 56.4766 283.44 56.5975H280.899ZM282.23 53.6951C280.173 53.6951 279.205 55.3882 279.205 57.0812C279.205 58.7743 280.173 60.4674 282.351 60.4674C283.319 60.4674 284.166 60.1046 284.772 59.4999V59.379L284.166 58.5325H284.045C283.561 58.8953 282.956 59.1371 282.472 59.1371H282.351C281.625 59.1371 281.141 58.6534 281.02 57.8069H285.135C285.135 57.8069 285.256 57.8069 285.256 57.6859C285.256 57.3231 285.256 57.0812 285.256 56.9603C285.135 54.7835 284.045 53.6951 282.23 53.6951Z" fill="#A4A9AD"/>
    <path d="M294.574 53.6951C293.847 53.6951 293.363 54.0579 292.879 54.4207V53.9369C292.879 53.9369 292.879 53.816 292.758 53.816H291.427C291.427 53.816 291.306 53.816 291.306 53.9369V60.1046C291.306 60.1046 291.306 60.2256 291.427 60.2256H293C293 60.2256 293.121 60.2256 293.121 60.1046V55.8719C293.726 55.2672 293.968 55.1463 294.332 55.1463C294.816 55.1463 295.421 55.5091 295.421 56.4766V60.1046C295.421 60.1046 295.421 60.2256 295.542 60.2256H297.115C297.115 60.2256 297.236 60.2256 297.236 60.1046V56.1138C296.994 54.5416 295.784 53.6951 294.574 53.6951Z" fill="#A4A9AD"/>
    <path d="M300.262 56.5975C300.383 55.63 300.867 55.0254 301.593 55.0254C302.44 55.0254 302.803 55.5091 302.803 56.4766C302.803 56.4766 302.803 56.4766 302.803 56.5975H300.262ZM301.593 53.6951C299.536 53.6951 298.567 55.3882 298.567 57.0812C298.567 58.7743 299.535 60.4674 301.714 60.4674C302.682 60.4674 303.529 60.1046 304.134 59.4999V59.379L303.529 58.5325H303.408C302.924 58.8953 302.319 59.1371 301.835 59.1371H301.714C300.988 59.1371 300.504 58.6534 300.383 57.8069H304.497C304.497 57.8069 304.618 57.8069 304.618 57.6859C304.618 57.3231 304.618 57.0812 304.618 56.9603C304.497 54.7835 303.408 53.6951 301.593 53.6951Z" fill="#A4A9AD"/>
    <path d="M310.064 59.621C310.185 59.621 310.185 59.621 310.185 59.621C310.185 59.621 310.185 59.621 310.306 59.621C310.306 59.621 310.306 59.621 310.306 59.5001H310.185V59.621H310.064ZM310.064 59.9839L309.943 59.2582H310.185C310.306 59.2582 310.306 59.2582 310.306 59.2582V59.3792C310.306 59.3792 310.306 59.3792 310.306 59.5001C310.306 59.5001 310.306 59.5001 310.185 59.5001L310.427 59.742H310.306L310.064 59.5001H309.943V59.9839H310.064ZM309.701 59.621C309.701 59.742 309.701 59.742 309.701 59.8629L309.822 59.9839L309.943 60.1048C309.943 60.1048 310.064 60.1048 310.185 60.1048C310.306 60.1048 310.306 60.1048 310.427 60.1048L310.548 59.9839L310.669 59.8629C310.669 59.8629 310.669 59.742 310.669 59.621C310.669 59.5001 310.669 59.5001 310.669 59.3792L310.548 59.2582L310.427 59.1373C310.427 59.1373 310.306 59.1373 310.185 59.1373C310.064 59.1373 310.064 59.1373 309.943 59.1373L309.822 59.2582L309.701 59.3792C309.701 59.5001 309.701 59.5001 309.701 59.621ZM309.58 59.621C309.58 59.5001 309.58 59.5001 309.58 59.3792C309.58 59.2582 309.701 59.2582 309.701 59.1373C309.701 59.1373 309.822 59.0164 309.943 59.0164C310.064 59.0164 310.064 59.0164 310.185 59.0164C310.306 59.0164 310.306 59.0164 310.427 59.0164C310.548 59.0164 310.548 59.1373 310.669 59.1373C310.669 59.1373 310.79 59.2582 310.79 59.3792C310.79 59.5001 310.79 59.5001 310.79 59.621C310.79 59.742 310.79 59.742 310.79 59.8629C310.79 59.9839 310.669 59.9839 310.669 60.1048C310.669 60.1048 310.548 60.2257 310.427 60.2257C310.306 60.2257 310.306 60.2257 310.185 60.2257C310.064 60.2257 310.064 60.2257 309.943 60.2257C309.822 60.2257 309.822 60.1048 309.701 60.1048C309.701 60.1048 309.58 59.9839 309.58 59.8629C309.58 59.742 309.58 59.742 309.58 59.621Z" fill="#A4A9AD"/>
    <path d="M271.218 50.0671C267.466 50.0671 264.32 53.0905 264.32 56.9604C264.32 60.7094 267.345 63.8537 271.218 63.8537C274.969 63.8537 278.116 60.8304 278.116 56.9604C278.116 53.2114 275.09 50.0671 271.218 50.0671ZM276.663 56.9604C276.663 59.9838 274.243 62.4025 271.218 62.4025C268.192 62.4025 265.772 59.9838 265.772 56.9604C265.772 53.9371 268.192 51.5184 271.218 51.5184C274.243 51.5184 276.663 53.9371 276.663 56.9604Z" fill="#A4A9AD"/>
</svg>
