<svg width="120" height="120" viewBox="0 0 120 120" fill="none" xmlns="http://www.w3.org/2000/svg">
    <path d="M55.125 30.0001L19.8937 50.2501C18.4077 51.1014 17.1727 52.3299 16.3134 53.8114C15.4541 55.2929 15.0011 56.9749 15 58.6876V95.2501C15 97.8359 16.0272 100.316 17.8557 102.144C19.6842 103.973 22.1641 105 24.75 105H95.25C97.8359 105 100.316 103.973 102.144 102.144C103.973 100.316 105 97.8359 105 95.2501V58.6876C105.001 56.9768 104.551 55.296 103.695 53.8147C102.839 52.3333 101.608 51.1038 100.125 50.2501L64.875 30.0001C63.3934 29.1425 61.7119 28.6909 60 28.6909C58.2881 28.6909 56.6066 29.1425 55.125 30.0001Z" fill="#DFE8F4"/>
    <path d="M105 95.2501V58.6876C105.001 56.9768 104.55 55.296 103.694 53.8147C102.839 52.3334 101.607 51.1038 100.125 50.2501L71.1185 33.5063L47.981 83.8313L77.1935 100.275C82.7082 103.371 88.9256 104.998 95.2497 105C96.5308 105.003 97.7997 104.752 98.9838 104.263C100.168 103.774 101.244 103.056 102.15 102.15C103.055 101.244 103.773 100.168 104.263 98.9842C104.752 97.8001 105.002 96.5312 105 95.2501Z" fill="#CCD8E5"/>
    <path d="M100.106 50.2501L64.875 30.0001C63.3934 29.1425 61.7119 28.6909 60 28.6909C58.2881 28.6909 56.6066 29.1425 55.125 30.0001L19.8937 50.2501C18.4077 51.1014 17.1727 52.3299 16.3134 53.8114C15.4541 55.2929 15.0011 56.9749 15 58.6876V59.1938C15.0011 60.9043 15.4521 62.5843 16.3078 64.0653C17.1635 65.5463 18.3937 66.7761 19.875 67.6313L55.125 87.9751C56.6066 88.8327 58.2881 89.2842 60 89.2842C61.7119 89.2842 63.3934 88.8327 64.875 87.9751L100.106 67.6313C101.588 66.7761 102.818 65.5463 103.673 64.0653C104.529 62.5843 104.98 60.9043 104.981 59.1938V58.6876C104.982 56.9768 104.532 55.296 103.676 53.8147C102.82 52.3333 101.589 51.1038 100.106 50.2501Z" fill="#6848E2"/>
    <path d="M87.6938 74.7936L100.106 67.6311C100.494 67.4094 100.863 67.1587 101.213 66.8811L87.6938 53.3623V74.7936Z" fill="#182EBD"/>
    <path d="M100.106 65.9814L64.875 86.2502C63.3934 87.1078 61.7119 87.5594 60 87.5594C58.2881 87.5594 56.6066 87.1078 55.125 86.2502L19.8937 65.9814C18.4899 65.1812 17.3074 64.044 16.453 62.6724C15.5987 61.3008 15.0993 59.7381 15 58.1252C15 58.3314 15 58.5002 15 58.7064V59.2127C15.0011 60.9231 15.4521 62.6032 16.3078 64.0842C17.1635 65.5652 18.3937 66.795 19.875 67.6502L55.125 87.9752C56.6066 88.8328 58.2881 89.2844 60 89.2844C61.7119 89.2844 63.3934 88.8328 64.875 87.9752L100.106 67.6314C101.588 66.7762 102.818 65.5464 103.673 64.0654C104.529 62.5844 104.98 60.9044 104.981 59.1939V58.6877C104.981 58.4814 104.981 58.3127 104.981 58.1064C104.887 59.7208 104.392 61.2862 103.541 62.6611C102.69 64.0361 101.509 65.1772 100.106 65.9814Z" fill="#182EBD"/>
    <path d="M31.5562 74.3625L55.1249 87.975C56.6065 88.8326 58.288 89.2842 59.9999 89.2842C61.7118 89.2842 63.3933 88.8326 64.8749 87.975L88.4436 74.3625V55.2188C88.4436 54.4977 88.1572 53.8062 87.6473 53.2963C87.1375 52.7864 86.446 52.5 85.7249 52.5H34.2749C33.5538 52.5 32.8623 52.7864 32.3525 53.2963C31.8426 53.8062 31.5562 54.4977 31.5562 55.2188V74.3625Z" fill="white"/>
    <path d="M70.4811 65.0997H48.9373C48.619 65.0997 48.3138 64.9733 48.0888 64.7482C47.8637 64.5232 47.7373 64.218 47.7373 63.8997C47.7373 63.5815 47.8637 63.2762 48.0888 63.0512C48.3138 62.8261 48.619 62.6997 48.9373 62.6997H70.4811C70.7993 62.6997 71.1045 62.8261 71.3296 63.0512C71.5546 63.2762 71.6811 63.5815 71.6811 63.8997C71.6811 64.218 71.5546 64.5232 71.3296 64.7482C71.1045 64.9733 70.7993 65.0997 70.4811 65.0997Z" fill="#DFE8F4"/>
    <path d="M70.4811 70.8937H48.9373C48.619 70.8937 48.3138 70.7672 48.0888 70.5422C47.8637 70.3171 47.7373 70.0119 47.7373 69.6936C47.7373 69.3754 47.8637 69.0702 48.0888 68.8451C48.3138 68.6201 48.619 68.4937 48.9373 68.4937H70.4811C70.7993 68.4937 71.1045 68.6201 71.3296 68.8451C71.5546 69.0702 71.6811 69.3754 71.6811 69.6936C71.6811 70.0119 71.5546 70.3171 71.3296 70.5422C71.1045 70.7672 70.7993 70.8937 70.4811 70.8937Z" fill="#DFE8F4"/>
    <path d="M58.7998 76.7064H48.9373C48.619 76.7064 48.3138 76.5799 48.0888 76.3549C47.8637 76.1298 47.7373 75.8246 47.7373 75.5064C47.7373 75.1863 47.8631 74.8792 48.0876 74.6511C48.3121 74.4231 48.6173 74.2925 48.9373 74.2876H58.7998C59.1198 74.2925 59.425 74.4231 59.6495 74.6511C59.874 74.8792 59.9998 75.1863 59.9998 75.5064C59.9998 75.8246 59.8734 76.1298 59.6483 76.3549C59.4233 76.5799 59.1181 76.7064 58.7998 76.7064Z" fill="#DFE8F4"/>
</svg>
