<svg width="127" height="99" viewBox="0 0 127 99" fill="none" xmlns="http://www.w3.org/2000/svg">
    <path opacity="0.1" d="M23.7798 64.4348C37.6296 64.4348 47.5597 54.3913 47.5597 32.3478C47.5597 9.91305 37.6296 0 23.7798 0C9.93004 0 0 9.91305 0 32.3478C0 54.3913 9.93004 64.4348 23.7798 64.4348ZM23.7798 52.1739C18.9455 52.1739 15.9403 47.7391 15.9403 32.3478C15.9403 16.8261 18.9455 12.1304 23.7798 12.1304C28.4835 12.1304 31.6193 16.8261 31.6193 32.3478C31.6193 47.7391 28.4835 52.1739 23.7798 52.1739ZM103.22 99C117.07 99 127 88.9565 127 66.9131C127 44.4783 117.07 34.5652 103.22 34.5652C89.3704 34.5652 79.4403 44.4783 79.4403 66.9131C79.4403 88.9565 89.3704 99 103.22 99ZM103.22 86.7391C98.3858 86.7391 95.3807 82.3044 95.3807 66.9131C95.3807 51.3913 98.3858 46.6957 103.22 46.6957C107.924 46.6957 111.06 51.3913 111.06 66.9131C111.06 82.3044 107.924 86.7391 103.22 86.7391ZM23.7798 97.8261H36.715L103.22 1.30435H90.285L23.7798 97.8261Z" fill="black"/>
</svg>
