<svg width="347" height="412" viewBox="0 0 347 412" fill="none" xmlns="http://www.w3.org/2000/svg">
    <g filter="url(#filter0_f)">
        <circle cx="206" cy="206" r="86" fill="#CAABFF"/>
    </g>
    <g filter="url(#filter1_i)">
        <circle cx="159.023" cy="166.477" r="81.6548" transform="rotate(44.9886 159.023 166.477)" fill="url(#paint0_angular)"/>
    </g>
    <path opacity="0.2" d="M280.784 158.413C280.867 159.867 280.926 161.329 280.962 162.796C280.686 162.802 280.467 163.031 280.473 163.306C280.491 164.202 280.5 165.1 280.5 166C280.5 166.9 280.491 167.798 280.473 168.694C280.467 168.969 280.686 169.198 280.962 169.204C280.926 170.671 280.867 172.133 280.784 173.587C280.509 173.571 280.273 173.781 280.256 174.056C280.147 175.849 280.001 177.632 279.821 179.404C279.793 179.678 279.992 179.923 280.267 179.952C280.112 181.412 279.934 182.864 279.732 184.308C279.459 184.269 279.206 184.459 279.167 184.732C278.911 186.511 278.62 188.278 278.293 190.032C278.243 190.303 278.421 190.564 278.692 190.615C278.418 192.057 278.12 193.49 277.799 194.914C277.53 194.853 277.262 195.021 277.201 195.29C276.799 197.04 276.362 198.776 275.891 200.496C275.818 200.762 275.974 201.037 276.24 201.11C275.847 202.523 275.431 203.926 274.992 205.318C274.73 205.235 274.449 205.38 274.365 205.643C273.819 207.352 273.239 209.045 272.625 210.72C272.53 210.979 272.663 211.266 272.922 211.361C272.412 212.736 271.88 214.099 271.326 215.449C271.071 215.344 270.779 215.465 270.674 215.72C269.987 217.377 269.266 219.015 268.514 220.633C268.397 220.883 268.506 221.18 268.755 221.297C268.132 222.624 267.487 223.938 266.821 225.238C266.576 225.112 266.274 225.208 266.148 225.453C265.323 227.045 264.467 228.617 263.58 230.168C263.443 230.407 263.525 230.712 263.764 230.85C263.031 232.119 262.278 233.373 261.503 234.613C261.27 234.466 260.962 234.537 260.815 234.77C259.859 236.286 258.873 237.78 257.857 239.25C257.7 239.477 257.756 239.788 257.983 239.945C257.145 241.147 256.287 242.332 255.41 243.502C255.19 243.336 254.877 243.379 254.71 243.599C253.63 245.028 252.52 246.432 251.381 247.81C251.206 248.023 251.235 248.337 251.448 248.513C250.51 249.639 249.554 250.746 248.58 251.836C248.375 251.652 248.059 251.669 247.874 251.874C246.675 253.204 245.449 254.507 244.196 255.782C244.002 255.979 244.005 256.295 244.201 256.489C243.171 257.529 242.122 258.55 241.057 259.551C240.868 259.35 240.553 259.339 240.351 259.527C239.042 260.748 237.706 261.94 236.346 263.101C236.137 263.28 236.112 263.595 236.29 263.805C235.173 264.751 234.04 265.677 232.89 266.582C232.72 266.365 232.406 266.326 232.189 266.496C230.778 267.597 229.343 268.667 227.885 269.704C227.661 269.864 227.608 270.175 227.767 270.4C226.572 271.243 225.361 272.065 224.135 272.864C223.985 272.633 223.676 272.567 223.444 272.717C221.942 273.688 220.418 274.625 218.872 275.528C218.634 275.667 218.554 275.973 218.692 276.211C217.427 276.943 216.147 277.653 214.854 278.339C214.725 278.095 214.423 278.001 214.179 278.13C212.596 278.961 210.994 279.757 209.373 280.516C209.123 280.633 209.015 280.93 209.131 281.18C207.805 281.794 206.466 282.385 205.115 282.95C205.009 282.696 204.717 282.575 204.462 282.68C202.812 283.363 201.143 284.009 199.458 284.617C199.198 284.711 199.064 284.997 199.157 285.256C197.78 285.746 196.393 286.211 194.994 286.65C194.912 286.387 194.633 286.24 194.369 286.321C192.664 286.849 190.943 287.338 189.207 287.788C188.94 287.858 188.779 288.13 188.848 288.397C187.433 288.757 186.007 289.092 184.573 289.4C184.516 289.13 184.251 288.958 183.981 289.015C182.236 289.382 180.477 289.709 178.706 289.997C178.433 290.041 178.248 290.297 178.292 290.57C176.852 290.797 175.403 290.998 173.946 291.172C173.914 290.898 173.666 290.702 173.392 290.734C171.623 290.937 169.842 291.101 168.051 291.224C167.776 291.243 167.568 291.481 167.586 291.756C166.132 291.85 164.671 291.917 163.203 291.957C163.196 291.681 162.968 291.463 162.692 291.469C161.797 291.49 160.9 291.5 160 291.5C159.1 291.5 158.203 291.49 157.308 291.469C157.032 291.463 156.804 291.681 156.797 291.957C155.329 291.917 153.868 291.85 152.414 291.756C152.432 291.481 152.224 291.243 151.949 291.224C150.158 291.101 148.377 290.937 146.608 290.734C146.334 290.702 146.086 290.898 146.054 291.172C144.597 290.998 143.148 290.797 141.708 290.57C141.752 290.297 141.567 290.041 141.294 289.997C139.523 289.709 137.764 289.382 136.019 289.015C135.749 288.958 135.484 289.13 135.427 289.4C133.992 289.092 132.567 288.757 131.152 288.397C131.221 288.13 131.06 287.858 130.793 287.788C129.057 287.338 127.336 286.849 125.631 286.321C125.367 286.24 125.088 286.387 125.006 286.65C123.607 286.211 122.22 285.746 120.843 285.256C120.936 284.997 120.802 284.711 120.542 284.617C118.857 284.009 117.188 283.363 115.538 282.68C115.283 282.575 114.991 282.696 114.885 282.95C113.534 282.385 112.195 281.794 110.869 281.18C110.985 280.93 110.877 280.633 110.627 280.516C109.006 279.757 107.404 278.961 105.821 278.13C105.577 278.002 105.275 278.095 105.146 278.339C103.853 277.653 102.573 276.943 101.308 276.211C101.446 275.973 101.366 275.667 101.128 275.528C99.5824 274.625 98.0582 273.688 96.556 272.717C96.3244 272.567 96.0154 272.633 95.8653 272.864C94.6395 272.065 93.4285 271.243 92.2327 270.4C92.3921 270.175 92.3393 269.864 92.1145 269.704C90.6568 268.667 89.222 267.597 87.8111 266.496C87.5937 266.326 87.28 266.365 87.11 266.582C85.9604 265.677 84.8269 264.751 83.7098 263.805C83.8884 263.595 83.8634 263.28 83.6536 263.101C82.2937 261.94 80.9585 260.748 79.6492 259.527C79.4475 259.339 79.1316 259.35 78.9432 259.551C77.8778 258.55 76.8295 257.529 75.799 256.489C75.9952 256.295 75.9977 255.979 75.8044 255.782C74.5512 254.507 73.3246 253.204 72.1256 251.874C71.9409 251.669 71.6253 251.652 71.4202 251.836C70.4458 250.747 69.4897 249.639 68.5525 248.513C68.7647 248.337 68.7944 248.023 68.6188 247.81C67.4805 246.432 66.3705 245.028 65.2896 243.599C65.1232 243.379 64.8102 243.336 64.59 243.502C63.7129 242.332 62.8552 241.147 62.0174 239.945C62.2438 239.788 62.3004 239.477 62.1435 239.25C61.1274 237.78 60.1411 236.286 59.1855 234.77C59.0385 234.537 58.7303 234.466 58.4968 234.613C57.7225 233.374 56.9686 232.119 56.2356 230.85C56.4746 230.712 56.5573 230.407 56.4203 230.168C55.5329 228.618 54.6766 227.045 53.8524 225.453C53.7256 225.208 53.4245 225.112 53.1794 225.238C52.5131 223.938 51.868 222.624 51.2447 221.297C51.4945 221.18 51.6027 220.883 51.4864 220.633C50.7337 219.015 50.0134 217.377 49.3264 215.72C49.2207 215.465 48.9288 215.344 48.6739 215.449C48.1199 214.099 47.5879 212.736 47.0784 211.361C47.3371 211.266 47.4699 210.979 47.375 210.72C46.7613 209.045 46.181 207.352 45.6351 205.643C45.5512 205.38 45.2704 205.235 45.0076 205.318C44.5689 203.926 44.1528 202.523 43.7599 201.11C44.0257 201.037 44.182 200.762 44.1091 200.496C43.6379 198.776 43.2009 197.04 42.7992 195.29C42.7375 195.021 42.4698 194.853 42.201 194.914C41.8799 193.49 41.582 192.057 41.3078 190.615C41.5787 190.564 41.7574 190.303 41.7069 190.032C41.3803 188.278 41.0888 186.511 40.8331 184.732C40.7939 184.459 40.541 184.269 40.2681 184.308C40.0662 182.864 39.8878 181.412 39.7334 179.952C40.0076 179.923 40.2071 179.678 40.1791 179.404C39.9985 177.632 39.8533 175.849 39.7442 174.056C39.7275 173.781 39.491 173.571 39.2158 173.587C39.1328 172.133 39.0735 170.671 39.0383 169.204C39.314 169.198 39.5328 168.969 39.5272 168.694C39.5091 167.798 39.5 166.9 39.5 166C39.5 165.1 39.5091 164.202 39.5272 163.306C39.5328 163.031 39.314 162.802 39.0383 162.796C39.0735 161.329 39.1328 159.867 39.2158 158.413C39.491 158.429 39.7275 158.219 39.7442 157.944C39.8533 156.151 39.9985 154.368 40.1791 152.596C40.2071 152.322 40.0076 152.077 39.7334 152.048C39.8878 150.588 40.0662 149.136 40.2681 147.692C40.541 147.731 40.7939 147.541 40.8331 147.268C41.0888 145.489 41.3803 143.722 41.7069 141.968C41.7574 141.697 41.5787 141.436 41.3078 141.385C41.582 139.943 41.8799 138.51 42.201 137.086C42.4698 137.147 42.7375 136.979 42.7992 136.71C43.2009 134.96 43.6379 133.224 44.1091 131.504C44.182 131.238 44.0257 130.963 43.7599 130.89C44.1528 129.477 44.5689 128.074 45.0076 126.682C45.2704 126.765 45.5512 126.62 45.6351 126.357C46.181 124.648 46.7613 122.955 47.375 121.28C47.4699 121.021 47.3371 120.734 47.0784 120.639C47.5879 119.264 48.1199 117.901 48.6739 116.551C48.9288 116.656 49.2207 116.535 49.3264 116.28C50.0134 114.623 50.7337 112.985 51.4863 111.367C51.6026 111.117 51.4944 110.82 51.2447 110.703C51.868 109.376 52.5131 108.062 53.1794 106.762C53.4245 106.888 53.7256 106.792 53.8524 106.547C54.6766 104.955 55.5328 103.383 56.4203 101.832C56.5573 101.593 56.4746 101.288 56.2356 101.15C56.9686 99.8811 57.7225 98.6265 58.4967 97.3871C58.7303 97.5336 59.0384 97.4634 59.1855 97.2301C60.1411 95.7136 61.1274 94.22 62.1435 92.7502C62.3003 92.5233 62.2438 92.2124 62.0173 92.0551C62.8552 90.8534 63.7129 89.6677 64.59 88.4985C64.8102 88.6644 65.1232 88.6207 65.2896 88.4007C66.3705 86.9718 67.4805 85.5679 68.6187 84.19C68.7944 83.9774 68.7647 83.6627 68.5525 83.4867C69.4897 82.3614 70.4458 81.2535 71.4201 80.1637C71.6253 80.3478 71.9409 80.3312 72.1255 80.1263C73.3246 78.7959 74.5512 77.4928 75.8043 76.2179C75.9977 76.0212 75.9952 75.7051 75.799 75.5115C76.8295 74.4715 77.8777 73.4504 78.9431 72.4488C79.1316 72.65 79.4474 72.6608 79.6491 72.4727C80.9585 71.2517 82.2936 70.0601 83.6536 68.8988C83.8633 68.7197 83.8884 68.4047 83.7098 68.1947C84.8268 67.2487 85.9604 66.3231 87.1099 65.4184C87.28 65.6353 87.5937 65.6738 87.8111 65.5041C89.222 64.403 90.6567 63.3334 92.1145 62.2963C92.3392 62.1364 92.392 61.8248 92.2327 61.5999C93.4284 60.7566 94.6395 59.935 95.8652 59.1356C96.0153 59.3668 96.3244 59.433 96.556 59.2833C98.0582 58.3125 99.5824 57.3751 101.128 56.4723C101.366 56.3331 101.446 56.0275 101.308 55.7892C102.573 55.0567 103.853 54.3471 105.146 53.661C105.275 53.9048 105.577 53.9985 105.821 53.8703C107.404 53.0392 109.006 52.2435 110.627 51.484C110.877 51.367 110.985 51.0699 110.869 50.8201C112.195 50.2057 113.534 49.6153 114.885 49.0497C114.991 49.3042 115.283 49.425 115.538 49.3196C117.188 48.6368 118.857 47.9908 120.542 47.3828C120.802 47.2892 120.936 47.0033 120.843 46.7438C122.22 46.2538 123.607 45.789 125.006 45.3498C125.088 45.6129 125.367 45.7602 125.631 45.6786C127.336 45.1511 129.057 44.6617 130.793 44.2116C131.06 44.1424 131.221 43.8701 131.152 43.6032C132.567 43.2427 133.993 42.9081 135.427 42.6C135.484 42.8696 135.749 43.042 136.019 42.9853C137.764 42.6183 139.523 42.2905 141.294 42.003C141.567 41.9588 141.752 41.7026 141.708 41.4304C143.148 41.2029 144.597 41.0019 146.054 40.8279C146.086 41.1016 146.334 41.2979 146.608 41.2663C148.377 41.0626 150.158 40.8987 151.949 40.7757C152.224 40.7568 152.432 40.5187 152.414 40.2436C153.868 40.1499 155.329 40.083 156.797 40.0433C156.804 40.3189 157.032 40.537 157.308 40.5307C158.203 40.5103 159.1 40.5 160 40.5C160.9 40.5 161.797 40.5103 162.692 40.5307C162.968 40.537 163.196 40.3189 163.203 40.0433C164.671 40.083 166.132 40.1499 167.586 40.2436C167.568 40.5187 167.776 40.7568 168.051 40.7757C169.842 40.8987 171.623 41.0626 173.392 41.2663C173.666 41.2979 173.914 41.1016 173.946 40.8279C175.403 41.0019 176.852 41.2029 178.292 41.4304C178.248 41.7026 178.433 41.9588 178.706 42.003C180.477 42.2905 182.236 42.6183 183.981 42.9853C184.251 43.0421 184.516 42.8696 184.573 42.6C186.007 42.9081 187.433 43.2427 188.848 43.6032C188.779 43.8701 188.94 44.1424 189.207 44.2116C190.943 44.6617 192.664 45.1511 194.369 45.6786C194.633 45.7602 194.912 45.6129 194.994 45.3498C196.393 45.789 197.78 46.2538 199.157 46.7438C199.064 47.0033 199.198 47.2892 199.458 47.3828C201.143 47.9908 202.812 48.6368 204.462 49.3196C204.717 49.425 205.009 49.3042 205.115 49.0497C206.466 49.6153 207.805 50.2056 209.131 50.8201C209.015 51.0699 209.123 51.367 209.373 51.484C210.994 52.2435 212.596 53.0392 214.179 53.8703C214.423 53.9985 214.725 53.9048 214.854 53.661C216.147 54.3471 217.427 55.0566 218.692 55.7892C218.554 56.0275 218.634 56.3331 218.872 56.4722C220.418 57.3751 221.942 58.3124 223.444 59.2832C223.676 59.4329 223.985 59.3668 224.135 59.1355C225.361 59.9349 226.572 60.7565 227.767 61.5999C227.608 61.8248 227.661 62.1364 227.885 62.2963C229.343 63.3334 230.778 64.403 232.189 65.5041C232.406 65.6737 232.72 65.6353 232.89 65.4183C234.04 66.3231 235.173 67.2487 236.29 68.1947C236.112 68.4047 236.137 68.7197 236.346 68.8988C237.706 70.06 239.041 71.2517 240.351 72.4727C240.553 72.6608 240.868 72.65 241.057 72.4487C242.122 73.4504 243.17 74.4715 244.201 75.5115C244.005 75.7051 244.002 76.0211 244.196 76.2178C245.449 77.4928 246.675 78.7959 247.874 80.1263C248.059 80.3312 248.375 80.3478 248.58 80.1636C249.554 81.2535 250.51 82.3614 251.447 83.4867C251.235 83.6627 251.206 83.9773 251.381 84.19C252.519 85.5678 253.63 86.9717 254.71 88.4007C254.877 88.6207 255.19 88.6643 255.41 88.4984C256.287 89.6676 257.145 90.8534 257.983 92.0551C257.756 92.2123 257.7 92.5233 257.856 92.7502C258.873 94.22 259.859 95.7136 260.814 97.2301C260.962 97.4634 261.27 97.5336 261.503 97.387C262.278 98.6265 263.031 99.881 263.764 101.15C263.525 101.288 263.443 101.593 263.58 101.832C264.467 103.382 265.323 104.955 266.148 106.547C266.274 106.792 266.575 106.888 266.821 106.762C267.487 108.062 268.132 109.376 268.755 110.703C268.506 110.82 268.397 111.117 268.514 111.367C269.266 112.985 269.987 114.623 270.674 116.28C270.779 116.535 271.071 116.656 271.326 116.551C271.88 117.901 272.412 119.264 272.922 120.639C272.663 120.734 272.53 121.021 272.625 121.28C273.239 122.955 273.819 124.648 274.365 126.357C274.449 126.62 274.73 126.765 274.992 126.682C275.431 128.074 275.847 129.477 276.24 130.89C275.974 130.963 275.818 131.238 275.891 131.504C276.362 133.224 276.799 134.96 277.201 136.71C277.262 136.979 277.53 137.147 277.799 137.086C278.12 138.51 278.418 139.943 278.692 141.385C278.421 141.436 278.243 141.697 278.293 141.968C278.62 143.722 278.911 145.489 279.167 147.268C279.206 147.541 279.459 147.731 279.732 147.692C279.934 149.136 280.112 150.588 280.267 152.048C279.992 152.077 279.793 152.322 279.821 152.596C280.001 154.368 280.147 156.151 280.256 157.944C280.273 158.219 280.509 158.429 280.784 158.413Z" stroke="url(#paint1_linear)" stroke-linecap="round" stroke-dasharray="5.5 5.5"/>
    <defs>
        <filter id="filter0_f" x="0" y="0" width="412" height="412" filterUnits="userSpaceOnUse" color-interpolation-filters="sRGB">
            <feFlood flood-opacity="0" result="BackgroundImageFix"/>
            <feBlend mode="normal" in="SourceGraphic" in2="BackgroundImageFix" result="shape"/>
            <feGaussianBlur stdDeviation="60" result="effect1_foregroundBlur"/>
        </filter>
        <filter id="filter1_i" x="43.5457" y="51" width="230.955" height="230.955" filterUnits="userSpaceOnUse" color-interpolation-filters="sRGB">
            <feFlood flood-opacity="0" result="BackgroundImageFix"/>
            <feBlend mode="normal" in="SourceGraphic" in2="BackgroundImageFix" result="shape"/>
            <feColorMatrix in="SourceAlpha" type="matrix" values="0 0 0 0 0 0 0 0 0 0 0 0 0 0 0 0 0 0 127 0" result="hardAlpha"/>
            <feOffset dy="-2"/>
            <feComposite in2="hardAlpha" operator="arithmetic" k2="-1" k3="1"/>
            <feColorMatrix type="matrix" values="0 0 0 0 0.658824 0 0 0 0 0.533333 0 0 0 0 0.960784 0 0 0 0.77 0"/>
            <feBlend mode="normal" in2="shape" result="effect1_innerShadow"/>
        </filter>
        <radialGradient id="paint0_angular" cx="0" cy="0" r="1" gradientUnits="userSpaceOnUse" gradientTransform="translate(159.023 166.477) rotate(-90) scale(81.6548)">
            <stop stop-color="#2D2D2D"/>
            <stop offset="1" stop-color="#6848E2"/>
        </radialGradient>
        <linearGradient id="paint1_linear" x1="160" y1="303.5" x2="169.132" y2="10.2844" gradientUnits="userSpaceOnUse">
            <stop stop-color="white"/>
            <stop offset="1" stop-color="white" stop-opacity="0"/>
        </linearGradient>
    </defs>
</svg>
