<svg width="120" height="120" viewBox="0 0 120 120" fill="none" xmlns="http://www.w3.org/2000/svg">
    <path d="M60 24.375C67.046 24.375 73.9337 26.4644 79.7922 30.3789C85.6507 34.2934 90.2169 39.8573 92.9132 46.3669C95.6096 52.8765 96.3151 60.0395 94.9405 66.9501C93.5659 73.8607 90.173 80.2084 85.1907 85.1907C80.2085 90.1729 73.8607 93.5659 66.9501 94.9405C60.0395 96.3151 52.8765 95.6096 46.3669 92.9132C39.8573 90.2168 34.2934 85.6507 30.3789 79.7922C26.4644 73.9337 24.375 67.046 24.375 60C24.375 50.5517 28.1284 41.4903 34.8093 34.8093C41.4903 28.1283 50.5517 24.375 60 24.375ZM60 15C51.0999 15 42.3996 17.6392 34.9994 22.5839C27.5992 27.5285 21.8314 34.5566 18.4254 42.7792C15.0195 51.0019 14.1283 60.0499 15.8647 68.7791C17.601 77.5082 21.8869 85.5264 28.1802 91.8198C34.4736 98.1132 42.4918 102.399 51.221 104.135C59.9501 105.872 68.9981 104.981 77.2208 101.575C85.4435 98.1686 92.4715 92.4009 97.4162 85.0007C102.361 77.6005 105 68.9002 105 60C105 48.0653 100.259 36.6193 91.8198 28.1802C83.3807 19.7411 71.9348 15 60 15Z" fill="#A073ED"/>
    <path d="M60 46.875C62.5959 46.875 65.1335 47.6448 67.2919 49.087C69.4503 50.5292 71.1325 52.579 72.1259 54.9773C73.1193 57.3756 73.3792 60.0146 72.8728 62.5606C72.3664 65.1066 71.1163 67.4452 69.2808 69.2808C67.4452 71.1163 65.1066 72.3664 62.5606 72.8728C60.0146 73.3792 57.3756 73.1193 54.9773 72.1259C52.579 71.1325 50.5292 69.4503 49.087 67.2919C47.6448 65.1335 46.875 62.5959 46.875 60C46.875 56.519 48.2578 53.1806 50.7192 50.7192C53.1806 48.2578 56.519 46.875 60 46.875ZM60 37.5C55.5499 37.5 51.1998 38.8196 47.4997 41.2919C43.7996 43.7643 40.9157 47.2783 39.2127 51.3896C37.5097 55.501 37.0642 60.025 37.9323 64.3895C38.8005 68.7541 40.9434 72.7632 44.0901 75.9099C47.2368 79.0566 51.2459 81.1995 55.6105 82.0677C59.975 82.9358 64.499 82.4903 68.6104 80.7873C72.7217 79.0843 76.2357 76.2004 78.7081 72.5003C81.1804 68.8002 82.5 64.4501 82.5 60C82.5 54.0326 80.1295 48.3097 75.9099 44.0901C71.6903 39.8705 65.9674 37.5 60 37.5Z" fill="#DFE8F4"/>
    <path d="M60 15C48.0653 15 36.6193 19.7411 28.1802 28.1802C19.7411 36.6193 15 48.0653 15 60H60V15Z" fill="#6848E2"/>
    <path d="M60.0002 55.95C60.8012 55.95 61.5842 56.1875 62.2503 56.6325C62.9163 57.0775 63.4354 57.71 63.7419 58.4501C64.0484 59.1901 64.1286 60.0044 63.9724 60.7901C63.8161 61.5757 63.4304 62.2973 62.864 62.8637C62.2976 63.4301 61.5759 63.8159 60.7903 63.9721C60.0047 64.1284 59.1904 64.0482 58.4503 63.7417C57.7103 63.4351 57.0778 62.916 56.6327 62.25C56.1877 61.584 55.9502 60.801 55.9502 60C55.9502 58.9258 56.3769 57.8957 57.1364 57.1362C57.8959 56.3766 58.9261 55.95 60.0002 55.95Z" fill="#6848E2"/>
    <path d="M92.6623 95.475C92.293 95.4757 91.9271 95.4031 91.586 95.2615C91.2448 95.1199 90.9351 94.912 90.6748 94.65L58.0123 61.9875C57.736 61.73 57.5144 61.4195 57.3607 61.0745C57.2069 60.7295 57.1243 60.3571 57.1176 59.9794C57.111 59.6018 57.1804 59.2267 57.3219 58.8765C57.4633 58.5263 57.6739 58.2081 57.941 57.9411C58.208 57.674 58.5261 57.4635 58.8764 57.322C59.2266 57.1806 59.6017 57.1111 59.9793 57.1177C60.3569 57.1244 60.7294 57.2071 61.0744 57.3608C61.4194 57.5145 61.7299 57.7361 61.9873 58.0125L94.6498 90.675C95.172 91.2047 95.4647 91.9187 95.4647 92.6625C95.4647 93.4063 95.172 94.1202 94.6498 94.65C94.1195 95.1724 93.4068 95.4683 92.6623 95.475Z" fill="#6848E2"/>
    <path d="M85.9131 85.9126L95.2881 95.2876L104.213 93.0563C104.38 93.0106 104.531 92.9223 104.653 92.8001C104.775 92.6779 104.863 92.5261 104.908 92.3596C104.954 92.1931 104.955 92.0176 104.912 91.8504C104.869 91.6833 104.783 91.5302 104.663 91.4063L97.3318 84.0751C97.106 83.8595 96.83 83.7037 96.5288 83.6219C96.2276 83.54 95.9107 83.5347 95.6068 83.6063L85.9131 85.9126Z" fill="#6848E2"/>
    <path d="M85.9129 85.9125L95.2879 95.2875L93.0567 104.212C93.0109 104.379 92.9226 104.531 92.8005 104.652C92.6783 104.774 92.5265 104.862 92.3599 104.908C92.1934 104.953 92.018 104.954 91.8508 104.911C91.6836 104.868 91.5306 104.783 91.4067 104.662L84.0754 97.3312C83.8599 97.1054 83.7041 96.8294 83.6223 96.5282C83.5404 96.2269 83.535 95.9101 83.6067 95.6062L85.9129 85.9125Z" fill="#6848E2"/>
    <path d="M78.75 78.75L88.125 88.125L97.05 85.8937C97.2277 85.854 97.391 85.7661 97.5222 85.6398C97.6534 85.5134 97.7473 85.3535 97.7937 85.1774C97.8402 85.0013 97.8373 84.8159 97.7855 84.6413C97.7337 84.4667 97.635 84.3097 97.5 84.1875L90.1125 76.875C89.8867 76.6594 89.6107 76.5037 89.3095 76.4218C89.0082 76.34 88.6913 76.3346 88.3875 76.4062L78.75 78.75Z" fill="#6848E2"/>
    <path d="M78.7502 78.75L88.1252 88.125L85.894 97.05C85.8482 97.2164 85.7599 97.3681 85.6378 97.49C85.5156 97.6119 85.3638 97.6999 85.1973 97.7453C85.0307 97.7907 84.8553 97.792 84.6881 97.749C84.521 97.706 84.3679 97.6201 84.244 97.5L76.8752 90.1125C76.6597 89.8867 76.5039 89.6107 76.4221 89.3095C76.3402 89.0082 76.3348 88.6913 76.4065 88.3875L78.7502 78.75Z" fill="#6848E2"/>
    <path d="M41.9254 40.1437C41.539 40.1491 41.1625 40.0217 40.8588 39.7828C40.555 39.5439 40.3425 39.208 40.2566 38.8312C40.2218 38.6007 40.2368 38.3653 40.3006 38.1409C40.3644 37.9166 40.4756 37.7086 40.6267 37.5309C40.7777 37.3532 40.9651 37.21 41.1762 37.1108C41.3873 37.0117 41.6172 36.959 41.8504 36.9562C42.1342 36.9578 42.4124 37.0351 42.6563 37.1801C42.9002 37.3251 43.101 37.5327 43.2379 37.7812C43.3891 38.0282 43.6014 38.2321 43.8542 38.3733C44.1071 38.5145 44.392 38.5883 44.6816 38.5875C44.9749 38.5864 45.2629 38.5105 45.5187 38.3671C45.7744 38.2236 45.9894 38.0174 46.1433 37.7678C46.2972 37.5182 46.3849 37.2335 46.3982 36.9406C46.4114 36.6477 46.3498 36.3562 46.2191 36.0938C45.6342 35.0243 44.6917 34.1946 43.5566 33.75C43.5566 33.3273 43.3887 32.9219 43.0899 32.6231C42.791 32.3242 42.3856 32.1562 41.9629 32.1562H41.7191C41.2997 32.1612 40.8991 32.3313 40.6043 32.6296C40.3095 32.928 40.1441 33.3305 40.1441 33.75C39.4915 33.986 38.8946 34.3541 38.3908 34.8313C37.887 35.3085 37.487 35.8845 37.216 36.5234C36.945 37.1622 36.8087 37.8501 36.8157 38.5441C36.8227 39.238 36.9728 39.923 37.2566 40.5562C37.6759 41.4389 38.3374 42.1842 39.164 42.7054C39.9906 43.2266 40.9482 43.5021 41.9254 43.5C42.2043 43.5149 42.4745 43.602 42.7096 43.7528C42.9447 43.9035 43.1367 44.1127 43.2666 44.36C43.3966 44.6072 43.4601 44.8839 43.4509 45.163C43.4418 45.4422 43.3603 45.7142 43.2144 45.9523C43.0685 46.1905 42.8633 46.3867 42.6188 46.5217C42.3744 46.6568 42.099 46.726 41.8197 46.7226C41.5405 46.7192 41.2669 46.6433 41.0257 46.5024C40.7846 46.3615 40.5842 46.1604 40.4441 45.9187C40.2929 45.6718 40.0807 45.4679 39.8278 45.3267C39.5749 45.1855 39.29 45.1117 39.0004 45.1125C38.7009 45.1056 38.405 45.1786 38.143 45.3238C37.8811 45.4691 37.6625 45.6816 37.5098 45.9393C37.3571 46.197 37.2757 46.4907 37.2741 46.7902C37.2724 47.0898 37.3505 47.3844 37.5004 47.6437C38.0892 48.6847 39.035 49.4773 40.1629 49.875C40.1629 50.2945 40.3282 50.697 40.623 50.9954C40.9179 51.2937 41.3185 51.4638 41.7379 51.4688H41.9816C42.4043 51.4688 42.8097 51.3008 43.1086 51.0019C43.4075 50.7031 43.5754 50.2977 43.5754 49.875C44.6894 49.485 45.6298 48.7139 46.2305 47.6979C46.8312 46.6819 47.0537 45.4864 46.8585 44.3223C46.6634 43.1582 46.0633 42.1005 45.1641 41.336C44.2649 40.5714 43.1244 40.1492 41.9441 40.1437H41.9254Z" fill="#DFE8F4"/>
</svg>
