<svg width="32" height="32" viewBox="0 0 32 32" fill="none" xmlns="http://www.w3.org/2000/svg">
    <path d="M16 32C24.8366 32 32 24.8366 32 16C32 7.16344 24.8366 0 16 0C7.16344 0 0 7.16344 0 16C0 24.8366 7.16344 32 16 32Z" fill="url(#paint0_linear)"/>
    <path d="M16 32C24.8366 32 32 24.8366 32 16C32 7.16344 24.8366 0 16 0C7.16344 0 0 7.16344 0 16C0 24.8366 7.16344 32 16 32Z" fill="url(#paint1_radial)"/>
    <path d="M16 28.25C22.7655 28.25 28.25 22.7655 28.25 16C28.25 9.23451 22.7655 3.75 16 3.75C9.23451 3.75 3.75 9.23451 3.75 16C3.75 22.7655 9.23451 28.25 16 28.25Z" fill="url(#paint2_linear)"/>
    <path d="M16 26.375C21.73 26.375 26.375 21.73 26.375 16C26.375 10.27 21.73 5.625 16 5.625C10.27 5.625 5.625 10.27 5.625 16C5.625 21.73 10.27 26.375 16 26.375Z" fill="url(#paint3_linear)"/>
    <path d="M16 26.375C21.73 26.375 26.375 21.73 26.375 16C26.375 10.27 21.73 5.625 16 5.625C10.27 5.625 5.625 10.27 5.625 16C5.625 21.73 10.27 26.375 16 26.375Z" fill="url(#paint4_radial)"/>
    <path opacity="0.6" d="M16.9375 24.5001C11.2076 24.5001 6.5625 19.855 6.5625 14.1251C6.5625 12.8314 6.8 11.5933 7.23262 10.4512C6.21475 12.056 5.625 13.959 5.625 16.0001C5.625 21.73 10.2701 26.3751 16 26.3751C20.4362 26.3751 24.2214 23.5905 25.7049 19.674C23.8652 22.5746 20.6264 24.5001 16.9375 24.5001Z" fill="url(#paint5_linear)"/>
    <path d="M16 21.6875C19.1411 21.6875 21.6875 19.1411 21.6875 16C21.6875 12.8589 19.1411 10.3125 16 10.3125C12.8589 10.3125 10.3125 12.8589 10.3125 16C10.3125 19.1411 12.8589 21.6875 16 21.6875Z" fill="url(#paint6_linear)"/>
    <path opacity="0.6" d="M16.9375 19.8124C13.7964 19.8124 11.25 17.266 11.25 14.1249C11.25 13.5842 11.3255 13.0612 11.4664 12.5657C10.7424 13.52 10.3125 14.7097 10.3125 15.9999C10.3125 19.141 12.8589 21.6874 16 21.6874C18.6004 21.6874 20.7932 19.9422 21.4711 17.5592C20.4325 18.9281 18.7884 19.8124 16.9375 19.8124Z" fill="url(#paint7_linear)"/>
    <defs>
        <linearGradient id="paint0_linear" x1="4.68631" y1="27.3137" x2="27.3138" y2="4.68625" gradientUnits="userSpaceOnUse">
            <stop stop-color="#F39369"/>
            <stop offset="1" stop-color="#F3C57A"/>
        </linearGradient>
        <radialGradient id="paint1_radial" cx="0" cy="0" r="1" gradientUnits="userSpaceOnUse" gradientTransform="translate(16.0001 16) scale(16)">
            <stop stop-color="#F39369"/>
            <stop offset="0.1093" stop-color="#F39369" stop-opacity="0.891"/>
            <stop offset="0.2991" stop-color="#F39369" stop-opacity="0.701"/>
            <stop offset="0.5467" stop-color="#F39369" stop-opacity="0.453"/>
            <stop offset="0.8392" stop-color="#F3C57A" stop-opacity="0.16"/>
            <stop offset="1" stop-color="#F3C57A" stop-opacity="0"/>
        </radialGradient>
        <linearGradient id="paint2_linear" x1="-4.78356" y1="36.7836" x2="28.7823" y2="3.21769" gradientUnits="userSpaceOnUse">
            <stop stop-color="#F3C57A"/>
            <stop offset="0.9015" stop-color="#FFFAFD"/>
            <stop offset="1" stop-color="white"/>
        </linearGradient>
        <linearGradient id="paint3_linear" x1="4.67081" y1="27.3292" x2="27.4484" y2="4.55162" gradientUnits="userSpaceOnUse">
            <stop stop-color="#F39369"/>
            <stop offset="1" stop-color="#F3C57A"/>
        </linearGradient>
        <radialGradient id="paint4_radial" cx="0" cy="0" r="1" gradientUnits="userSpaceOnUse" gradientTransform="translate(16 16) scale(12.1877)">
            <stop stop-color="#FA6728" stop-opacity="0.8"/>
            <stop offset="0.1019" stop-color="#F67238" stop-opacity="0.872"/>
            <stop offset="0.3021" stop-color="#F3C57A" stop-opacity="0.39"/>
            <stop offset="0.5783" stop-color="#F3C57A" stop-opacity="0.24"/>
            <stop offset="0.797" stop-color="#F3C57A" stop-opacity="0"/>
        </radialGradient>
        <linearGradient id="paint5_linear" x1="8.80012" y1="23.3777" x2="19.1519" y2="13.026" gradientUnits="userSpaceOnUse">
            <stop stop-color="#F39369"/>
            <stop offset="0.1421" stop-color="#F39369" stop-opacity="0.929"/>
            <stop offset="0.3009" stop-color="#F39369" stop-opacity="0.85"/>
            <stop offset="0.4677" stop-color="#F39369" stop-opacity="0.766"/>
            <stop offset="0.6402" stop-color="#F39369" stop-opacity="0.68"/>
            <stop offset="0.817" stop-color="#F3C57A" stop-opacity="0.59"/>
            <stop offset="0.995" stop-color="#FFB4D2" stop-opacity="0.502"/>
            <stop offset="1" stop-color="#F3C57A" stop-opacity="0.5"/>
        </linearGradient>
        <linearGradient id="paint6_linear" x1="6.3505" y1="25.6495" x2="21.9346" y2="10.0654" gradientUnits="userSpaceOnUse">
            <stop stop-color="#F3C57A"/>
            <stop offset="0.9015" stop-color="#FFFAFD"/>
            <stop offset="1" stop-color="white"/>
        </linearGradient>
        <linearGradient id="paint7_linear" x1="6.54713" y1="25.4905" x2="18.1289" y2="13.9088" gradientUnits="userSpaceOnUse">
            <stop stop-color="#F39369" stop-opacity="0.81"/>
            <stop offset="0.2386" stop-color="#F39369" stop-opacity="0.833"/>
            <stop offset="0.6079" stop-color="#F3C57A" stop-opacity="0.53"/>
            <stop offset="1" stop-color="#F3C57A" stop-opacity="0.3"/>
        </linearGradient>
    </defs>
</svg>
