<svg width="104" height="6" viewBox="0 0 104 6" fill="none" xmlns="http://www.w3.org/2000/svg">
    <path d="M0.802 5.18L1.754 5.86L2.995 4.483L4.202 5.877L5.137 5.18L4.219 3.565L5.902 2.8L5.562 1.661L3.76 2.069L3.573 0.249999H2.417L2.213 2.069L0.394 1.661L0.054 2.8L1.72 3.565L0.802 5.18ZM8.73755 5.18L9.68955 5.86L10.9305 4.483L12.1375 5.877L13.0725 5.18L12.1545 3.565L13.8375 2.8L13.4975 1.661L11.6955 2.069L11.5085 0.249999H10.3525L10.1485 2.069L8.32955 1.661L7.98955 2.8L9.65555 3.565L8.73755 5.18ZM16.6731 5.18L17.6251 5.86L18.8661 4.483L20.0731 5.877L21.0081 5.18L20.0901 3.565L21.7731 2.8L21.4331 1.661L19.6311 2.069L19.4441 0.249999H18.2881L18.0841 2.069L16.2651 1.661L15.9251 2.8L17.5911 3.565L16.6731 5.18ZM24.6086 5.18L25.5606 5.86L26.8016 4.483L28.0086 5.877L28.9436 5.18L28.0256 3.565L29.7086 2.8L29.3686 1.661L27.5666 2.069L27.3796 0.249999H26.2236L26.0196 2.069L24.2006 1.661L23.8606 2.8L25.5266 3.565L24.6086 5.18ZM37.5247 5.18L38.4767 5.86L39.7177 4.483L40.9247 5.877L41.8597 5.18L40.9417 3.565L42.6247 2.8L42.2847 1.661L40.4827 2.069L40.2957 0.249999H39.1397L38.9357 2.069L37.1167 1.661L36.7767 2.8L38.4427 3.565L37.5247 5.18ZM45.4602 5.18L46.4122 5.86L47.6532 4.483L48.8602 5.877L49.7952 5.18L48.8772 3.565L50.5602 2.8L50.2202 1.661L48.4182 2.069L48.2312 0.249999H47.0752L46.8712 2.069L45.0522 1.661L44.7122 2.8L46.3782 3.565L45.4602 5.18ZM53.3958 5.18L54.3478 5.86L55.5888 4.483L56.7958 5.877L57.7308 5.18L56.8128 3.565L58.4958 2.8L58.1558 1.661L56.3538 2.069L56.1668 0.249999H55.0108L54.8068 2.069L52.9878 1.661L52.6478 2.8L54.3138 3.565L53.3958 5.18ZM61.3313 5.18L62.2833 5.86L63.5243 4.483L64.7313 5.877L65.6663 5.18L64.7483 3.565L66.4313 2.8L66.0913 1.661L64.2893 2.069L64.1023 0.249999H62.9463L62.7423 2.069L60.9233 1.661L60.5833 2.8L62.2493 3.565L61.3313 5.18ZM74.2473 5.18L75.1993 5.86L76.4403 4.483L77.6473 5.877L78.5823 5.18L77.6643 3.565L79.3473 2.8L79.0073 1.661L77.2053 2.069L77.0183 0.249999H75.8623L75.6583 2.069L73.8393 1.661L73.4993 2.8L75.1653 3.565L74.2473 5.18ZM82.1829 5.18L83.1349 5.86L84.3759 4.483L85.5829 5.877L86.5179 5.18L85.5999 3.565L87.2829 2.8L86.9429 1.661L85.1409 2.069L84.9539 0.249999H83.7979L83.5939 2.069L81.7749 1.661L81.4349 2.8L83.1009 3.565L82.1829 5.18ZM90.1184 5.18L91.0704 5.86L92.3114 4.483L93.5184 5.877L94.4534 5.18L93.5354 3.565L95.2184 2.8L94.8784 1.661L93.0764 2.069L92.8894 0.249999H91.7334L91.5294 2.069L89.7104 1.661L89.3704 2.8L91.0364 3.565L90.1184 5.18ZM98.054 5.18L99.006 5.86L100.247 4.483L101.454 5.877L102.389 5.18L101.471 3.565L103.154 2.8L102.814 1.661L101.012 2.069L100.825 0.249999H99.669L99.465 2.069L97.646 1.661L97.306 2.8L98.972 3.565L98.054 5.18Z" fill="black"/>
</svg>
