<svg width="51" height="16" viewBox="0 0 51 16" fill="none" xmlns="http://www.w3.org/2000/svg">
    <g clip-path="url(#clip0)">
        <path d="M22.1001 15.7692H17.9688L20.5528 0.280762H24.6839L22.1001 15.7692Z" fill="#333333"/>
        <path d="M37.0765 0.659404C36.2616 0.346017 34.9692 0 33.371 0C29.2912 0 26.4182 2.10895 26.4006 5.12412C26.3667 7.3487 28.4575 8.58429 30.0213 9.32603C31.6197 10.084 32.1631 10.5787 32.1631 11.2543C32.1468 12.2919 30.8715 12.7702 29.682 12.7702C28.0326 12.7702 27.1488 12.5236 25.8057 11.9463L25.2617 11.6989L24.6836 15.1757C25.6526 15.6036 27.4378 15.9834 29.2912 16C33.6261 16 36.4483 13.9237 36.4817 10.7105C36.4982 8.94739 35.3941 7.59639 33.0139 6.49242C31.5689 5.78374 30.684 5.30589 30.684 4.58078C30.7009 3.9216 31.4324 3.24643 33.0636 3.24643C34.4066 3.21336 35.3934 3.52631 36.141 3.83947L36.5147 4.00394L37.0765 0.659404Z" fill="#333333"/>
        <path d="M42.5672 10.2822C42.9074 9.39239 44.2166 5.94865 44.2166 5.94865C44.1994 5.98172 44.5562 5.04244 44.7602 4.46581L45.0489 5.80039C45.0489 5.80039 45.8312 9.50781 46.0011 10.2822C45.3555 10.2822 43.3832 10.2822 42.5672 10.2822ZM47.6668 0.280762H44.4712C43.4858 0.280762 42.7371 0.560641 42.3119 1.56584L36.1753 15.769H40.5102C40.5102 15.769 41.2239 13.8573 41.3773 13.4456C41.8528 13.4456 46.0698 13.4456 46.6816 13.4456C46.8002 13.9894 47.1745 15.769 47.1745 15.769H50.9998L47.6668 0.280762Z" fill="#333333"/>
        <path d="M14.5178 0.280762L10.4719 10.8424L10.0297 8.70036C9.28174 6.22875 6.93581 3.5434 4.31787 2.20816L8.02383 15.7528H12.3926L18.8864 0.280762H14.5178Z" fill="#333333"/>
        <path opacity="0.2" d="M6.71495 0.280762H0.0680009L0 0.59371C5.18504 1.87901 8.61899 4.97717 10.0298 8.70101L8.58487 1.5827C8.34698 0.593491 7.61591 0.313392 6.71495 0.280762Z" fill="black"/>
    </g>
    <defs>
        <clipPath id="clip0">
            <rect width="51" height="16" fill="white"/>
        </clipPath>
    </defs>
</svg>
