<svg width="242" height="252" viewBox="0 0 242 252" fill="none" xmlns="http://www.w3.org/2000/svg">
    <g filter="url(#filter0_d)">
        <path d="M145.112 87H94.8883C90.8079 87 87.5 90.3079 87.5 94.3883V164.112C87.5 168.192 90.8079 171.5 94.8883 171.5H145.112C149.192 171.5 152.5 168.192 152.5 164.112V94.3883C152.5 90.3079 149.192 87 145.112 87Z" fill="#6848E2"/>
        <path d="M94.8883 87.5H145.112C148.916 87.5 152 90.584 152 94.3883V164.112C152 167.916 148.916 171 145.112 171H94.8883C91.084 171 88 167.916 88 164.112V94.3883C88 90.584 91.084 87.5 94.8883 87.5Z" stroke="black"/>
    </g>
    <path opacity="0.2" d="M120 132.5C128.975 132.5 136.25 125.225 136.25 116.25C136.25 107.275 128.975 100 120 100C111.025 100 103.75 107.275 103.75 116.25C103.75 125.225 111.025 132.5 120 132.5Z" fill="white"/>
    <path d="M120 120.952C117.634 120.951 115.297 121.469 113.152 122.468C111.007 123.468 109.107 124.925 107.585 126.737C109.109 128.546 111.009 130.001 113.154 130.999C115.298 131.997 117.635 132.514 120 132.514C122.366 132.514 124.703 131.997 126.847 130.999C128.992 130.001 130.892 128.546 132.415 126.737C130.894 124.925 128.994 123.468 126.849 122.468C124.704 121.469 122.367 120.951 120 120.952Z" fill="url(#paint0_linear)"/>
    <path d="M120 119.521C123.59 119.521 126.5 116.611 126.5 113.021C126.5 109.432 123.59 106.521 120 106.521C116.41 106.521 113.5 109.432 113.5 113.021C113.5 116.611 116.41 119.521 120 119.521Z" fill="url(#paint1_linear)"/>
    <path d="M133.455 83.7498H126.76C126.438 83.7535 126.119 83.6854 125.827 83.5505C125.535 83.4156 125.276 83.2172 125.07 82.9698C124.461 82.2106 123.689 81.5979 122.812 81.1769C121.934 80.7559 120.973 80.5374 120 80.5374C119.027 80.5374 118.066 80.7559 117.188 81.1769C116.311 81.5979 115.539 82.2106 114.93 82.9698C114.724 83.2172 114.465 83.4156 114.173 83.5505C113.881 83.6854 113.562 83.7535 113.24 83.7498H106.545C105.804 83.7498 105.093 84.0443 104.569 84.5684C104.044 85.0926 103.75 85.8035 103.75 86.5448V90.7048C103.75 91.4461 104.044 92.157 104.569 92.6811C105.093 93.2053 105.804 93.4998 106.545 93.4998H133.455C134.196 93.4998 134.907 93.2053 135.431 92.6811C135.956 92.157 136.25 91.4461 136.25 90.7048V86.5448C136.25 85.8035 135.956 85.0926 135.431 84.5684C134.907 84.0443 134.196 83.7498 133.455 83.7498Z" fill="#F3A33A"/>
    <path d="M120 89.6431C120.897 89.6431 121.625 88.9155 121.625 88.0181C121.625 87.1206 120.897 86.3931 120 86.3931C119.103 86.3931 118.375 87.1206 118.375 88.0181C118.375 88.9155 119.103 89.6431 120 89.6431Z" fill="#6848E2"/>
    <path d="M137.918 142.25H102.082C101.662 142.25 101.26 142.083 100.963 141.786C100.667 141.49 100.5 141.088 100.5 140.668C100.5 140.249 100.667 139.846 100.963 139.55C101.26 139.253 101.662 139.086 102.082 139.086H137.918C138.338 139.086 138.74 139.253 139.037 139.55C139.333 139.846 139.5 140.249 139.5 140.668C139.5 141.088 139.333 141.49 139.037 141.786C138.74 142.083 138.338 142.25 137.918 142.25Z" fill="#F5FAFA"/>
    <path d="M137.918 152H102.082C101.662 152 101.26 151.833 100.963 151.536C100.667 151.24 100.5 150.838 100.5 150.418C100.5 149.999 100.667 149.596 100.963 149.3C101.26 149.003 101.662 148.836 102.082 148.836H137.918C138.338 148.836 138.74 149.003 139.037 149.3C139.333 149.596 139.5 149.999 139.5 150.418C139.5 150.838 139.333 151.24 139.037 151.536C138.74 151.833 138.338 152 137.918 152Z" fill="#F5FAFA"/>
    <path d="M118.418 161.75H102.082C101.662 161.75 101.26 161.583 100.963 161.286C100.667 160.99 100.5 160.588 100.5 160.168C100.5 159.749 100.667 159.346 100.963 159.05C101.26 158.753 101.662 158.586 102.082 158.586H118.418C118.838 158.586 119.24 158.753 119.537 159.05C119.833 159.346 120 159.749 120 160.168C120 160.588 119.833 160.99 119.537 161.286C119.24 161.583 118.838 161.75 118.418 161.75Z" fill="#F5FAFA"/>
    <path d="M124.919 161.75C124.499 161.75 124.097 161.583 123.8 161.286C123.504 160.99 123.337 160.588 123.337 160.168C123.337 159.749 123.504 159.346 123.8 159.05C124.097 158.753 124.499 158.586 124.919 158.586C125.338 158.586 125.74 158.753 126.037 159.05C126.334 159.346 126.5 159.749 126.5 160.168C126.5 160.588 126.334 160.99 126.037 161.286C125.74 161.583 125.338 161.75 124.919 161.75Z" fill="#F5FAFA"/>
    <path d="M131.419 161.75C130.999 161.75 130.597 161.583 130.3 161.286C130.004 160.99 129.837 160.588 129.837 160.168C129.837 159.749 130.004 159.346 130.3 159.05C130.597 158.753 130.999 158.586 131.419 158.586C131.838 158.586 132.24 158.753 132.537 159.05C132.834 159.346 133 159.749 133 160.168C133 160.588 132.834 160.99 132.537 161.286C132.24 161.583 131.838 161.75 131.419 161.75Z" fill="#F5FAFA"/>
    <path d="M137.919 161.75C137.499 161.75 137.097 161.583 136.8 161.286C136.504 160.99 136.337 160.588 136.337 160.168C136.337 159.749 136.504 159.346 136.8 159.05C137.097 158.753 137.499 158.586 137.919 158.586C138.338 158.586 138.74 158.753 139.037 159.05C139.334 159.346 139.5 159.749 139.5 160.168C139.5 160.588 139.334 160.99 139.037 161.286C138.74 161.583 138.338 161.75 137.919 161.75Z" fill="#F5FAFA"/>
    <circle cx="148" cy="166" r="18" fill="#F3A33A"/>
    <path d="M158.125 159.25L144.625 172.75L137.875 166" stroke="#6848E2" stroke-width="1.8" stroke-linecap="round" stroke-linejoin="round"/>
    <path opacity="0.2" d="M241.784 118.413C241.867 119.867 241.926 121.329 241.962 122.796C241.686 122.802 241.467 123.031 241.473 123.306C241.491 124.202 241.5 125.1 241.5 126C241.5 126.9 241.491 127.798 241.473 128.694C241.467 128.969 241.686 129.198 241.962 129.204C241.926 130.671 241.867 132.133 241.784 133.587C241.509 133.571 241.273 133.781 241.256 134.056C241.147 135.849 241.001 137.632 240.821 139.404C240.793 139.678 240.992 139.923 241.267 139.952C241.112 141.412 240.934 142.864 240.732 144.308C240.459 144.269 240.206 144.459 240.167 144.732C239.911 146.511 239.62 148.278 239.293 150.032C239.243 150.303 239.421 150.564 239.692 150.615C239.418 152.057 239.12 153.49 238.799 154.914C238.53 154.853 238.262 155.021 238.201 155.29C237.799 157.04 237.362 158.776 236.891 160.496C236.818 160.762 236.974 161.037 237.24 161.11C236.847 162.523 236.431 163.926 235.992 165.318C235.73 165.235 235.449 165.38 235.365 165.643C234.819 167.352 234.239 169.045 233.625 170.72C233.53 170.979 233.663 171.266 233.922 171.361C233.412 172.736 232.88 174.099 232.326 175.449C232.071 175.344 231.779 175.465 231.674 175.72C230.987 177.377 230.266 179.015 229.514 180.633C229.397 180.883 229.506 181.18 229.755 181.297C229.132 182.624 228.487 183.938 227.821 185.238C227.576 185.112 227.274 185.208 227.148 185.453C226.323 187.045 225.467 188.617 224.58 190.168C224.443 190.407 224.525 190.712 224.764 190.85C224.031 192.119 223.278 193.373 222.503 194.613C222.27 194.466 221.962 194.537 221.815 194.77C220.859 196.286 219.873 197.78 218.857 199.25C218.7 199.477 218.756 199.788 218.983 199.945C218.145 201.147 217.287 202.332 216.41 203.502C216.19 203.336 215.877 203.379 215.71 203.599C214.63 205.028 213.52 206.432 212.381 207.81C212.206 208.023 212.235 208.337 212.448 208.513C211.51 209.639 210.554 210.746 209.58 211.836C209.375 211.652 209.059 211.669 208.874 211.874C207.675 213.204 206.449 214.507 205.196 215.782C205.002 215.979 205.005 216.295 205.201 216.489C204.171 217.529 203.122 218.55 202.057 219.551C201.868 219.35 201.553 219.339 201.351 219.527C200.042 220.748 198.706 221.94 197.346 223.101C197.137 223.28 197.112 223.595 197.29 223.805C196.173 224.751 195.04 225.677 193.89 226.582C193.72 226.365 193.406 226.326 193.189 226.496C191.778 227.597 190.343 228.667 188.885 229.704C188.661 229.864 188.608 230.175 188.767 230.4C187.572 231.243 186.361 232.065 185.135 232.864C184.985 232.633 184.676 232.567 184.444 232.717C182.942 233.688 181.418 234.625 179.872 235.528C179.634 235.667 179.554 235.973 179.692 236.211C178.427 236.943 177.147 237.653 175.854 238.339C175.725 238.095 175.423 238.001 175.179 238.13C173.596 238.961 171.994 239.757 170.373 240.516C170.123 240.633 170.015 240.93 170.131 241.18C168.805 241.794 167.466 242.385 166.115 242.95C166.009 242.696 165.717 242.575 165.462 242.68C163.812 243.363 162.143 244.009 160.458 244.617C160.198 244.711 160.064 244.997 160.157 245.256C158.78 245.746 157.393 246.211 155.994 246.65C155.912 246.387 155.633 246.24 155.369 246.321C153.664 246.849 151.943 247.338 150.207 247.788C149.94 247.858 149.779 248.13 149.848 248.397C148.433 248.757 147.007 249.092 145.573 249.4C145.516 249.13 145.251 248.958 144.981 249.015C143.236 249.382 141.477 249.709 139.706 249.997C139.433 250.041 139.248 250.297 139.292 250.57C137.852 250.797 136.403 250.998 134.946 251.172C134.914 250.898 134.666 250.702 134.392 250.734C132.623 250.937 130.842 251.101 129.051 251.224C128.776 251.243 128.568 251.481 128.586 251.756C127.132 251.85 125.671 251.917 124.203 251.957C124.196 251.681 123.968 251.463 123.692 251.469C122.797 251.49 121.9 251.5 121 251.5C120.1 251.5 119.203 251.49 118.308 251.469C118.032 251.463 117.804 251.681 117.797 251.957C116.329 251.917 114.868 251.85 113.414 251.756C113.432 251.481 113.224 251.243 112.949 251.224C111.158 251.101 109.377 250.937 107.608 250.734C107.334 250.702 107.086 250.898 107.054 251.172C105.597 250.998 104.148 250.797 102.708 250.57C102.752 250.297 102.567 250.041 102.294 249.997C100.523 249.709 98.764 249.382 97.0189 249.015C96.749 248.958 96.4842 249.13 96.4269 249.4C94.9925 249.092 93.5673 248.757 92.152 248.397C92.2206 248.13 92.0601 247.858 91.7932 247.788C90.0572 247.338 88.336 246.849 86.6307 246.321C86.3673 246.24 86.0876 246.387 86.0056 246.65C84.6073 246.211 83.2196 245.746 81.8431 245.256C81.9361 244.997 81.8015 244.711 81.5421 244.617C79.8567 244.009 78.1883 243.363 76.5377 242.68C76.2829 242.575 75.9909 242.696 75.885 242.95C74.534 242.385 73.195 241.794 71.8687 241.18C71.9851 240.93 71.8772 240.633 71.6275 240.516C70.006 239.757 68.4035 238.961 66.8211 238.13C66.5769 238.002 66.2751 238.095 66.1464 238.339C64.8532 237.653 63.5735 236.943 62.3076 236.211C62.4462 235.973 62.3658 235.667 62.1277 235.528C60.5824 234.625 59.0582 233.688 57.556 232.717C57.3244 232.567 57.0154 232.633 56.8653 232.864C55.6395 232.065 54.4285 231.243 53.2327 230.4C53.3921 230.175 53.3393 229.864 53.1145 229.704C51.6568 228.667 50.222 227.597 48.8111 226.496C48.5937 226.326 48.28 226.365 48.11 226.582C46.9604 225.677 45.8269 224.751 44.7098 223.805C44.8884 223.595 44.8634 223.28 44.6536 223.101C43.2937 221.94 41.9585 220.748 40.6492 219.527C40.4475 219.339 40.1316 219.35 39.9432 219.551C38.8778 218.55 37.8295 217.529 36.799 216.489C36.9952 216.295 36.9977 215.979 36.8044 215.782C35.5512 214.507 34.3246 213.204 33.1256 211.874C32.9409 211.669 32.6253 211.652 32.4202 211.836C31.4458 210.747 30.4897 209.639 29.5525 208.513C29.7647 208.337 29.7944 208.023 29.6188 207.81C28.4805 206.432 27.3705 205.028 26.2896 203.599C26.1232 203.379 25.8102 203.336 25.59 203.502C24.7129 202.332 23.8552 201.147 23.0174 199.945C23.2438 199.788 23.3004 199.477 23.1435 199.25C22.1274 197.78 21.1411 196.286 20.1855 194.77C20.0385 194.537 19.7303 194.466 19.4968 194.613C18.7225 193.374 17.9686 192.119 17.2356 190.85C17.4746 190.712 17.5573 190.407 17.4203 190.168C16.5329 188.618 15.6766 187.045 14.8524 185.453C14.7256 185.208 14.4245 185.112 14.1794 185.238C13.5131 183.938 12.868 182.624 12.2447 181.297C12.4945 181.18 12.6027 180.883 12.4864 180.633C11.7337 179.015 11.0134 177.377 10.3264 175.72C10.2207 175.465 9.92876 175.344 9.6739 175.449C9.1199 174.099 8.5879 172.736 8.07838 171.361C8.33708 171.266 8.46986 170.979 8.375 170.72C7.76126 169.045 7.181 167.352 6.63508 165.643C6.55116 165.38 6.27037 165.235 6.00758 165.318C5.56888 163.926 5.15284 162.523 4.75992 161.11C5.02569 161.037 5.18201 160.762 5.10915 160.496C4.63786 158.776 4.20094 157.04 3.79923 155.29C3.73752 155.021 3.4698 154.853 3.20097 154.914C2.87991 153.49 2.58204 152.057 2.30779 150.615C2.57874 150.564 2.75736 150.303 2.70687 150.032C2.3803 148.278 2.08879 146.511 1.83314 144.732C1.79391 144.459 1.54103 144.269 1.26806 144.308C1.06616 142.864 0.887797 141.412 0.733377 139.952C1.00761 139.923 1.20712 139.678 1.17915 139.404C0.998529 137.632 0.853312 135.849 0.744248 134.056C0.727502 133.781 0.490987 133.571 0.215756 133.587C0.132788 132.133 0.0735206 130.671 0.0383493 129.204C0.313994 129.198 0.532779 128.969 0.527204 128.694C0.509098 127.798 0.5 126.9 0.5 126C0.5 125.1 0.509099 124.202 0.527205 123.306C0.53278 123.031 0.313995 122.802 0.0383499 122.796C0.0735215 121.329 0.132789 119.867 0.215758 118.413C0.490988 118.429 0.727503 118.219 0.744249 117.944C0.853314 116.151 0.998531 114.368 1.17915 112.596C1.20712 112.322 1.00761 112.077 0.733378 112.048C0.887798 110.588 1.06616 109.136 1.26806 107.692C1.54103 107.731 1.79391 107.541 1.83314 107.268C2.08879 105.489 2.3803 103.722 2.70687 101.968C2.75736 101.697 2.57874 101.436 2.30779 101.385C2.58203 99.943 2.87991 98.5098 3.20097 97.0859C3.4698 97.1471 3.73751 96.9791 3.79922 96.7103C4.20094 94.9602 4.63786 93.2244 5.10914 91.5038C5.18201 91.2378 5.02569 90.963 4.75992 90.8897C5.15284 89.4767 5.56888 88.0739 6.00758 86.6817C6.27036 86.7651 6.55116 86.62 6.63508 86.3573C7.181 84.6481 7.76126 82.9553 8.375 81.2797C8.46986 81.0207 8.33708 80.7339 8.07838 80.6386C8.5879 79.2641 9.11989 77.9013 9.67389 76.5506C9.92875 76.6557 10.2207 76.5347 10.3264 76.2799C11.0134 74.6234 11.7337 72.9854 12.4863 71.3668C12.6026 71.1167 12.4944 70.8197 12.2447 70.703C12.868 69.3761 13.5131 68.0624 14.1794 66.7622C14.4245 66.8884 14.7256 66.7924 14.8524 66.5474C15.6766 64.9546 16.5328 63.3825 17.4203 61.832C17.5573 61.5926 17.4746 61.2876 17.2356 61.1502C17.9686 59.8811 18.7225 58.6265 19.4967 57.3871C19.7303 57.5336 20.0384 57.4634 20.1855 57.2301C21.1411 55.7136 22.1274 54.22 23.1435 52.7502C23.3003 52.5233 23.2438 52.2124 23.0173 52.0551C23.8552 50.8534 24.7129 49.6677 25.59 48.4985C25.8102 48.6644 26.1232 48.6207 26.2896 48.4007C27.3705 46.9718 28.4805 45.5679 29.6187 44.19C29.7944 43.9774 29.7647 43.6627 29.5525 43.4867C30.4897 42.3614 31.4458 41.2535 32.4201 40.1637C32.6253 40.3478 32.9409 40.3312 33.1255 40.1263C34.3246 38.7959 35.5512 37.4928 36.8043 36.2179C36.9977 36.0212 36.9952 35.7051 36.799 35.5115C37.8295 34.4715 38.8777 33.4504 39.9431 32.4488C40.1316 32.65 40.4474 32.6608 40.6491 32.4727C41.9585 31.2517 43.2936 30.0601 44.6536 28.8988C44.8633 28.7197 44.8884 28.4047 44.7098 28.1947C45.8268 27.2487 46.9604 26.3231 48.1099 25.4184C48.28 25.6353 48.5937 25.6738 48.8111 25.5041C50.222 24.403 51.6567 23.3334 53.1145 22.2963C53.3392 22.1364 53.392 21.8248 53.2327 21.5999C54.4284 20.7566 55.6395 19.935 56.8652 19.1356C57.0153 19.3668 57.3244 19.433 57.556 19.2833C59.0582 18.3125 60.5824 17.3751 62.1276 16.4723C62.3657 16.3331 62.4462 16.0275 62.3076 15.7892C63.5734 15.0567 64.8532 14.3471 66.1464 13.661C66.275 13.9048 66.5769 13.9985 66.821 13.8703C68.4035 13.0392 70.006 12.2435 71.6275 11.484C71.8772 11.367 71.985 11.0699 71.8686 10.8201C73.195 10.2057 74.5339 9.61535 75.8849 9.04969C75.9908 9.30419 76.2829 9.42502 76.5377 9.31959C78.1882 8.63677 79.8567 7.99084 81.5421 7.38278C81.8015 7.28919 81.9361 7.00326 81.8431 6.74378C83.2196 6.25382 84.6073 5.78898 86.0056 5.34978C86.0876 5.61295 86.3673 5.76015 86.6307 5.67864C88.336 5.15105 90.0572 4.66172 91.7932 4.2116C92.0601 4.14238 92.2206 3.87012 92.152 3.60315C93.5674 3.24265 94.9925 2.90808 96.4269 2.59995C96.4842 2.86958 96.7491 3.04205 97.0189 2.98529C98.7641 2.61827 100.523 2.29052 102.294 2.00297C102.567 1.95878 102.752 1.70256 102.708 1.43038C104.148 1.20294 105.597 1.00194 107.054 0.82787C107.086 1.10164 107.334 1.29787 107.608 1.26632C109.377 1.06258 111.158 0.898731 112.949 0.775655C113.224 0.756753 113.432 0.518668 113.414 0.243625C114.868 0.149944 116.329 0.0830115 117.797 0.0432938C117.804 0.318865 118.032 0.536989 118.308 0.530696C119.203 0.510267 120.1 0.5 121 0.5C121.9 0.5 122.797 0.510268 123.692 0.530696C123.968 0.53699 124.196 0.318866 124.203 0.0432944C125.671 0.0830123 127.132 0.149945 128.586 0.243625C128.568 0.518669 128.776 0.756754 129.051 0.775656C130.842 0.898732 132.623 1.06258 134.392 1.26632C134.666 1.29787 134.914 1.10164 134.946 0.827871C136.403 1.00194 137.852 1.20294 139.292 1.43038C139.248 1.70256 139.433 1.95879 139.706 2.00297C141.477 2.29052 143.236 2.61827 144.981 2.98529C145.251 3.04205 145.516 2.86958 145.573 2.59995C147.007 2.90809 148.433 3.24265 149.848 3.60315C149.779 3.87012 149.94 4.14238 150.207 4.2116C151.943 4.66172 153.664 5.15105 155.369 5.67864C155.633 5.76015 155.912 5.61295 155.994 5.34978C157.393 5.78898 158.78 6.25382 160.157 6.74377C160.064 7.00326 160.198 7.28918 160.458 7.38277C162.143 7.99083 163.812 8.63676 165.462 9.31958C165.717 9.42501 166.009 9.30418 166.115 9.04968C167.466 9.61534 168.805 10.2056 170.131 10.8201C170.015 11.0699 170.123 11.367 170.373 11.484C171.994 12.2435 173.596 13.0392 175.179 13.8703C175.423 13.9985 175.725 13.9048 175.854 13.661C177.147 14.3471 178.427 15.0566 179.692 15.7892C179.554 16.0275 179.634 16.3331 179.872 16.4722C181.418 17.3751 182.942 18.3124 184.444 19.2832C184.676 19.4329 184.985 19.3668 185.135 19.1355C186.361 19.9349 187.572 20.7565 188.767 21.5999C188.608 21.8248 188.661 22.1364 188.885 22.2963C190.343 23.3334 191.778 24.403 193.189 25.5041C193.406 25.6737 193.72 25.6353 193.89 25.4183C195.04 26.3231 196.173 27.2487 197.29 28.1947C197.112 28.4047 197.137 28.7197 197.346 28.8988C198.706 30.06 200.041 31.2517 201.351 32.4727C201.553 32.6608 201.868 32.65 202.057 32.4487C203.122 33.4504 204.17 34.4715 205.201 35.5115C205.005 35.7051 205.002 36.0211 205.196 36.2178C206.449 37.4928 207.675 38.7959 208.874 40.1263C209.059 40.3312 209.375 40.3478 209.58 40.1636C210.554 41.2535 211.51 42.3614 212.447 43.4867C212.235 43.6627 212.206 43.9773 212.381 44.19C213.519 45.5678 214.63 46.9717 215.71 48.4007C215.877 48.6207 216.19 48.6643 216.41 48.4984C217.287 49.6676 218.145 50.8534 218.983 52.0551C218.756 52.2123 218.7 52.5233 218.856 52.7502C219.873 54.22 220.859 55.7136 221.814 57.2301C221.962 57.4634 222.27 57.5336 222.503 57.387C223.278 58.6265 224.031 59.881 224.764 61.1501C224.525 61.2875 224.443 61.5926 224.58 61.832C225.467 63.3825 226.323 64.9546 227.148 66.5474C227.274 66.7924 227.575 66.8884 227.821 66.7621C228.487 68.0623 229.132 69.3761 229.755 70.703C229.506 70.8197 229.397 71.1167 229.514 71.3668C230.266 72.9854 230.987 74.6234 231.674 76.2799C231.779 76.5347 232.071 76.6557 232.326 76.5506C232.88 77.9013 233.412 79.2641 233.922 80.6386C233.663 80.7339 233.53 81.0207 233.625 81.2797C234.239 82.9553 234.819 84.6481 235.365 86.3573C235.449 86.62 235.73 86.7651 235.992 86.6817C236.431 88.0739 236.847 89.4767 237.24 90.8897C236.974 90.963 236.818 91.2377 236.891 91.5038C237.362 93.2244 237.799 94.9602 238.201 96.7103C238.262 96.9791 238.53 97.1471 238.799 97.0859C239.12 98.5098 239.418 99.943 239.692 101.385C239.421 101.436 239.243 101.697 239.293 101.968C239.62 103.722 239.911 105.489 240.167 107.268C240.206 107.541 240.459 107.731 240.732 107.692C240.934 109.136 241.112 110.588 241.267 112.048C240.992 112.077 240.793 112.322 240.821 112.596C241.001 114.368 241.147 116.151 241.256 117.944C241.273 118.219 241.509 118.429 241.784 118.413Z" stroke="url(#paint2_linear)" stroke-linecap="round" stroke-dasharray="5.5 5.5"/>
    <defs>
        <filter id="filter0_d" x="63.5" y="79" width="113" height="132.5" filterUnits="userSpaceOnUse" color-interpolation-filters="sRGB">
            <feFlood flood-opacity="0" result="BackgroundImageFix"/>
            <feColorMatrix in="SourceAlpha" type="matrix" values="0 0 0 0 0 0 0 0 0 0 0 0 0 0 0 0 0 0 127 0"/>
            <feOffset dy="16"/>
            <feGaussianBlur stdDeviation="12"/>
            <feColorMatrix type="matrix" values="0 0 0 0 0.407843 0 0 0 0 0.282353 0 0 0 0 0.886275 0 0 0 0.6 0"/>
            <feBlend mode="normal" in2="BackgroundImageFix" result="effect1_dropShadow"/>
            <feBlend mode="normal" in="SourceGraphic" in2="effect1_dropShadow" result="shape"/>
        </filter>
        <linearGradient id="paint0_linear" x1="120" y1="135.75" x2="120" y2="42.8653" gradientUnits="userSpaceOnUse">
            <stop stop-color="white"/>
            <stop offset="0.52" stop-color="#CCE2E6"/>
            <stop offset="1" stop-color="#8FA1BB"/>
        </linearGradient>
        <linearGradient id="paint1_linear" x1="120" y1="123.16" x2="120" y2="18.7243" gradientUnits="userSpaceOnUse">
            <stop stop-color="white"/>
            <stop offset="0.52" stop-color="#CCE2E6"/>
            <stop offset="1" stop-color="#8FA1BB"/>
        </linearGradient>
        <linearGradient id="paint2_linear" x1="121" y1="263.5" x2="130.132" y2="-29.7156" gradientUnits="userSpaceOnUse">
            <stop stop-color="white"/>
            <stop offset="1" stop-color="white" stop-opacity="0"/>
        </linearGradient>
    </defs>
</svg>
