<svg width="64" height="64" viewBox="0 0 64 64" fill="none" xmlns="http://www.w3.org/2000/svg">
    <path d="M41.6802 36L40.5102 29.1H29.4302V35.65C29.4302 35.7638 29.4076 35.8764 29.3638 35.9814C29.3199 36.0864 29.2557 36.1817 29.1748 36.2617C29.0938 36.3417 28.9979 36.4048 28.8924 36.4474C28.7869 36.4901 28.674 36.5113 28.5602 36.51C28.4469 36.5113 28.3344 36.49 28.2295 36.4473C28.1245 36.4045 28.0292 36.3412 27.9491 36.2611C27.8689 36.181 27.8057 36.0856 27.7629 35.9807C27.7202 35.8757 27.6988 35.7633 27.7002 35.65V27.74C27.7055 27.5134 27.6655 27.288 27.5824 27.0771C27.4994 26.8663 27.375 26.6741 27.2166 26.512C27.0582 26.3499 26.869 26.221 26.6601 26.1331C26.4512 26.0452 26.2268 25.9999 26.0002 26C24.987 26 24.0154 26.4025 23.299 27.1189C22.5826 27.8352 22.1802 28.8069 22.1802 29.82V41.49C22.1789 44.2656 23.1203 46.9594 24.8502 49.13C25.7475 50.2512 26.2376 51.6439 26.2402 53.08H39.7902V50.28C39.7891 48.3294 40.0207 46.3857 40.4802 44.49L41.5302 40.15C41.8625 38.7914 41.9136 37.3791 41.6802 36Z" fill="#F6F6FA"/>
    <path d="M27.7002 35.1701V33.0601C25.5844 32.3068 23.6998 31.0183 22.2302 29.3201C22.2032 29.499 22.1865 29.6793 22.1802 29.8601V32.0801C23.7736 33.4993 25.6574 34.5538 27.7002 35.1701Z" fill="#CCD8E5"/>
    <path d="M40.7302 30.3899C39.2328 31.7759 37.4269 32.7854 35.4619 33.335C33.4969 33.8845 31.4293 33.9581 29.4302 33.5499V35.5499C30.278 35.7064 31.1381 35.7867 32.0002 35.7899C35.3021 35.7888 38.5088 34.6835 41.1102 32.6499L40.7302 30.3899Z" fill="#CCD8E5"/>
    <path d="M40.7902 30.7701L40.5102 29.1201H29.4302V30.7701H40.7902Z" fill="#CCD8E5"/>
    <path d="M31.9999 33.82C39.1188 33.82 44.8899 28.049 44.8899 20.93C44.8899 13.8111 39.1188 8.04004 31.9999 8.04004C24.8809 8.04004 19.1099 13.8111 19.1099 20.93C19.1099 28.049 24.8809 33.82 31.9999 33.82Z" fill="#6848E2"/>
    <path d="M32.0702 19.5499C31.7594 19.554 31.4565 19.4522 31.2112 19.2614C30.9659 19.0706 30.7927 18.8021 30.7202 18.4999C30.6545 18.1948 30.7008 17.8761 30.8506 17.6023C31.0005 17.3285 31.2438 17.1177 31.5362 17.0085C31.8287 16.8993 32.1506 16.899 32.4433 17.0076C32.7359 17.1161 32.9797 17.3264 33.1302 17.5999C33.2518 17.8006 33.4238 17.9661 33.6289 18.0801C33.8341 18.1941 34.0655 18.2526 34.3002 18.2499C34.5356 18.2505 34.7673 18.1904 34.9727 18.0754C35.1782 17.9604 35.3506 17.7944 35.4732 17.5934C35.5958 17.3923 35.6645 17.1631 35.6728 16.9278C35.681 16.6925 35.6284 16.459 35.5202 16.2499C35.046 15.4064 34.2822 14.7633 33.3702 14.4399C33.3702 14.1022 33.2367 13.7781 32.9988 13.5383C32.7609 13.2986 32.4379 13.1626 32.1002 13.1599H31.9002C31.5624 13.1626 31.2394 13.2986 31.0015 13.5383C30.7636 13.7781 30.6301 14.1022 30.6302 14.4399C30.1026 14.6304 29.62 14.9277 29.2125 15.3131C28.805 15.6986 28.4813 16.1639 28.2617 16.68C28.0421 17.1962 27.9313 17.752 27.9362 18.3129C27.9411 18.8738 28.0616 19.4277 28.2902 19.9399C28.6325 20.6505 29.1694 21.2494 29.8385 21.6672C30.5076 22.0849 31.2814 22.3043 32.0702 22.2999C32.294 22.315 32.5102 22.3874 32.698 22.51C32.8858 22.6327 33.0391 22.8015 33.1429 23.0003C33.2468 23.1991 33.2979 23.4213 33.2913 23.6455C33.2847 23.8698 33.2206 24.0886 33.1052 24.2809C32.9898 24.4733 32.8269 24.6328 32.6321 24.7441C32.4374 24.8555 32.2173 24.915 31.993 24.9169C31.7687 24.9188 31.5476 24.8631 31.351 24.755C31.1544 24.647 30.9888 24.4903 30.8702 24.2999C30.7485 24.0992 30.5766 23.9337 30.3714 23.8197C30.1662 23.7057 29.9349 23.6472 29.7002 23.6499C29.4636 23.6464 29.2302 23.7047 29.0231 23.819C28.816 23.9332 28.6422 24.0996 28.519 24.3015C28.3958 24.5035 28.3275 24.7341 28.3206 24.9706C28.3138 25.207 28.3688 25.4412 28.4802 25.6499C28.9562 26.4897 29.7198 27.129 30.6302 27.4499C30.6288 27.6175 30.6607 27.7838 30.7239 27.939C30.7872 28.0942 30.8805 28.2354 30.9986 28.3544C31.1166 28.4734 31.2571 28.5678 31.4118 28.6323C31.5666 28.6967 31.7325 28.7299 31.9002 28.7299H32.1002C32.2678 28.7299 32.4337 28.6967 32.5885 28.6323C32.7432 28.5678 32.8837 28.4734 33.0017 28.3544C33.1198 28.2354 33.2131 28.0942 33.2764 27.939C33.3396 27.7838 33.3715 27.6175 33.3702 27.4499C34.3357 27.1981 35.1723 26.5946 35.7157 25.7577C36.2591 24.9208 36.4701 23.9111 36.3073 22.9266C36.1445 21.9422 35.6196 21.0541 34.8356 20.4368C34.0517 19.8194 33.0653 19.5174 32.0702 19.5899V19.5499Z" fill="white"/>
    <path d="M26.1898 53.0801H39.8798C40.1212 53.0801 40.3526 53.176 40.5233 53.3466C40.694 53.5173 40.7898 53.7487 40.7898 53.9901V55.9901H25.2798V54.0001C25.2785 53.8797 25.3011 53.7603 25.3462 53.6488C25.3914 53.5372 25.4582 53.4357 25.5428 53.3501C25.6274 53.2646 25.7282 53.1966 25.8393 53.1503C25.9503 53.1039 26.0695 53.0801 26.1898 53.0801Z" fill="#6848E2"/>
    <path d="M26.0002 26C24.987 26 24.0154 26.4025 23.299 27.1189C22.5826 27.8352 22.1802 28.8069 22.1802 29.82V41.49L27.7002 35.67V27.74C27.7055 27.5134 27.6655 27.288 27.5824 27.0771C27.4994 26.8663 27.375 26.6741 27.2166 26.512C27.0582 26.3499 26.869 26.221 26.6601 26.1331C26.4512 26.0452 26.2268 25.9999 26.0002 26Z" fill="#DFE8F4"/>
</svg>
