<svg width="64" height="64" viewBox="0 0 64 64" fill="none" xmlns="http://www.w3.org/2000/svg">
    <path d="M39.48 9.5H12.52C10.0237 9.5 8 11.5237 8 14.02V39.48C8 41.9763 10.0237 44 12.52 44H39.48C41.9763 44 44 41.9763 44 39.48V14.02C44 11.5237 41.9763 9.5 39.48 9.5Z" fill="#EFEFF6"/>
    <path d="M39.48 9.5H12.48C11.2916 9.51051 10.1552 9.98861 9.31672 10.8308C8.47825 11.673 8.00521 12.8116 8 14V17H44V14C43.9947 12.8047 43.5162 11.6601 42.6691 10.8168C41.822 9.97345 40.6753 9.49999 39.48 9.5Z" fill="#6848E2"/>
    <path d="M44 17H8V18.88H44V17Z" fill="#D7D7EA"/>
    <path d="M18.02 8H14.33C13.8827 8 13.52 8.36265 13.52 8.81V11.88C13.52 12.3274 13.8827 12.69 14.33 12.69H18.02C18.4674 12.69 18.83 12.3274 18.83 11.88V8.81C18.83 8.36265 18.4674 8 18.02 8Z" fill="#6848E2"/>
    <path d="M37.6699 8H33.9799C33.5326 8 33.1699 8.36265 33.1699 8.81V11.88C33.1699 12.3274 33.5326 12.69 33.9799 12.69H37.6699C38.1173 12.69 38.4799 12.3274 38.4799 11.88V8.81C38.4799 8.36265 38.1173 8 37.6699 8Z" fill="#6848E2"/>
    <path d="M15.6699 21.6599H13.0799C12.6933 21.6599 12.3799 21.9733 12.3799 22.3599V24.9499C12.3799 25.3365 12.6933 25.6499 13.0799 25.6499H15.6699C16.0565 25.6499 16.3699 25.3365 16.3699 24.9499V22.3599C16.3699 21.9733 16.0565 21.6599 15.6699 21.6599Z" fill="#D7D7EA"/>
    <path d="M21.4799 21.6599H18.8899C18.5033 21.6599 18.1899 21.9733 18.1899 22.3599V24.9499C18.1899 25.3365 18.5033 25.6499 18.8899 25.6499H21.4799C21.8665 25.6499 22.1799 25.3365 22.1799 24.9499V22.3599C22.1799 21.9733 21.8665 21.6599 21.4799 21.6599Z" fill="#D7D7EA"/>
    <path d="M27.29 21.6599H24.7C24.3134 21.6599 24 21.9733 24 22.3599V24.9499C24 25.3365 24.3134 25.6499 24.7 25.6499H27.29C27.6766 25.6499 27.99 25.3365 27.99 24.9499V22.3599C27.99 21.9733 27.6766 21.6599 27.29 21.6599Z" fill="#D7D7EA"/>
    <path d="M33.1098 21.6599H30.5198C30.1332 21.6599 29.8198 21.9733 29.8198 22.3599V24.9499C29.8198 25.3365 30.1332 25.6499 30.5198 25.6499H33.1098C33.4964 25.6499 33.8098 25.3365 33.8098 24.9499V22.3599C33.8098 21.9733 33.4964 21.6599 33.1098 21.6599Z" fill="#D7D7EA"/>
    <path d="M38.9199 21.6599H36.3299C35.9433 21.6599 35.6299 21.9733 35.6299 22.3599V24.9499C35.6299 25.3365 35.9433 25.6499 36.3299 25.6499H38.9199C39.3065 25.6499 39.6199 25.3365 39.6199 24.9499V22.3599C39.6199 21.9733 39.3065 21.6599 38.9199 21.6599Z" fill="#D7D7EA"/>
    <path d="M15.6699 27.75H13.0799C12.6933 27.75 12.3799 28.0634 12.3799 28.45V31.04C12.3799 31.4266 12.6933 31.74 13.0799 31.74H15.6699C16.0565 31.74 16.3699 31.4266 16.3699 31.04V28.45C16.3699 28.0634 16.0565 27.75 15.6699 27.75Z" fill="#D7D7EA"/>
    <path d="M21.4799 27.75H18.8899C18.5033 27.75 18.1899 28.0634 18.1899 28.45V31.04C18.1899 31.4266 18.5033 31.74 18.8899 31.74H21.4799C21.8665 31.74 22.1799 31.4266 22.1799 31.04V28.45C22.1799 28.0634 21.8665 27.75 21.4799 27.75Z" fill="#D7D7EA"/>
    <path d="M27.29 27.75H24.7C24.3134 27.75 24 28.0634 24 28.45V31.04C24 31.4266 24.3134 31.74 24.7 31.74H27.29C27.6766 31.74 27.99 31.4266 27.99 31.04V28.45C27.99 28.0634 27.6766 27.75 27.29 27.75Z" fill="#D7D7EA"/>
    <path d="M33.1098 27.75H30.5198C30.1332 27.75 29.8198 28.0634 29.8198 28.45V31.04C29.8198 31.4266 30.1332 31.74 30.5198 31.74H33.1098C33.4964 31.74 33.8098 31.4266 33.8098 31.04V28.45C33.8098 28.0634 33.4964 27.75 33.1098 27.75Z" fill="#D7D7EA"/>
    <path d="M38.9199 27.75H36.3299C35.9433 27.75 35.6299 28.0634 35.6299 28.45V31.04C35.6299 31.4266 35.9433 31.74 36.3299 31.74H38.9199C39.3065 31.74 39.6199 31.4266 39.6199 31.04V28.45C39.6199 28.0634 39.3065 27.75 38.9199 27.75Z" fill="#D7D7EA"/>
    <path d="M15.6699 33.8501H13.0799C12.6933 33.8501 12.3799 34.1635 12.3799 34.5501V37.1401C12.3799 37.5267 12.6933 37.8401 13.0799 37.8401H15.6699C16.0565 37.8401 16.3699 37.5267 16.3699 37.1401V34.5501C16.3699 34.1635 16.0565 33.8501 15.6699 33.8501Z" fill="#D7D7EA"/>
    <path d="M21.4799 33.8501H18.8899C18.5033 33.8501 18.1899 34.1635 18.1899 34.5501V37.1401C18.1899 37.5267 18.5033 37.8401 18.8899 37.8401H21.4799C21.8665 37.8401 22.1799 37.5267 22.1799 37.1401V34.5501C22.1799 34.1635 21.8665 33.8501 21.4799 33.8501Z" fill="#D7D7EA"/>
    <path d="M27.29 33.8501H24.7C24.3134 33.8501 24 34.1635 24 34.5501V37.1401C24 37.5267 24.3134 37.8401 24.7 37.8401H27.29C27.6766 37.8401 27.99 37.5267 27.99 37.1401V34.5501C27.99 34.1635 27.6766 33.8501 27.29 33.8501Z" fill="#D7D7EA"/>
    <path d="M33.1098 33.8501H30.5198C30.1332 33.8501 29.8198 34.1635 29.8198 34.5501V37.1401C29.8198 37.5267 30.1332 37.8401 30.5198 37.8401H33.1098C33.4964 37.8401 33.8098 37.5267 33.8098 37.1401V34.5501C33.8098 34.1635 33.4964 33.8501 33.1098 33.8501Z" fill="white"/>
    <path d="M38.9199 33.8501H36.3299C35.9433 33.8501 35.6299 34.1635 35.6299 34.5501V37.1401C35.6299 37.5267 35.9433 37.8401 36.3299 37.8401H38.9199C39.3065 37.8401 39.6199 37.5267 39.6199 37.1401V34.5501C39.6199 34.1635 39.3065 33.8501 38.9199 33.8501Z" fill="#D7D7EA"/>
    <path d="M56.0001 47.31L54.5601 46.23C54.3904 46.098 54.2502 45.9319 54.1486 45.7425C54.047 45.553 53.9862 45.3444 53.9701 45.13C53.7574 43.0056 52.7372 41.044 51.1201 39.65L50.2801 38.93C49.4433 38.206 48.403 37.7586 47.3018 37.6494C46.2007 37.5402 45.0927 37.7745 44.1301 38.32L39.1301 41.14C39.0164 41.2046 38.886 41.2334 38.7558 41.2226C38.6256 41.2119 38.5016 41.1622 38.4001 41.08L31.6901 35.59C31.5161 35.4558 31.2991 35.3899 31.0799 35.4046C30.8607 35.4194 30.6545 35.5138 30.5001 35.67C30.0439 36.1323 29.7881 36.7556 29.7881 37.405C29.7881 38.0545 30.0439 38.6778 30.5001 39.14L37.7001 46.34C38.1647 46.8051 38.4301 47.4327 38.4401 48.09V49.26C38.4553 50.2829 38.8306 51.2677 39.5 52.0413C40.1694 52.8149 41.09 53.3279 42.1001 53.49L44.6401 53.89C45.0217 53.9546 45.3724 54.1404 45.6401 54.42L47.3101 56C49.6148 56 51.8251 55.0845 53.4548 53.4548C55.0845 51.8251 56.0001 49.6148 56.0001 47.31Z" fill="#6848E2"/>
    <path d="M35.93 44.5299L30.54 39.1399L35.93 44.5299Z" fill="#EFEFF6"/>
    <path d="M45.5 54.1899H45.51L45.5 54.1799V54.1899Z" fill="#D7D7EA"/>
</svg>
