<svg width="26" height="45" viewBox="0 0 26 45" fill="none" xmlns="http://www.w3.org/2000/svg">
    <path d="M22.6 28L21.4 21.1H10.3V27.6C10.3 28.1 9.90002 28.5 9.40002 28.5C8.90002 28.5 8.5 28.1 8.5 27.6V19.7C8.5 18.8 7.70005 18 6.80005 18C4.70005 18 3 19.7 3 21.8V33.4C3 36.2 3.90001 38.9 5.70001 41C6.60001 42.1 7.10004 43.5 7.10004 45H9.60004H19.3H20.7V42.2C20.7 40.2 20.9 38.3 21.4 36.4L22.4 32.1C22.8 30.8 22.8 29.4 22.6 28Z" fill="#F6F6FA"/>
    <path d="M8.60004 27.2V25.1C6.50004 24.3 4.60004 23 3.10004 21.4C3.10004 21.6 3 21.8 3 21.9V24.1C4.7 25.5 6.50004 26.5 8.60004 27.2Z" fill="#CCD8E5"/>
    <path d="M21.5998 22.4C19.2998 24.5 16.1998 25.8 12.8998 25.8C11.9998 25.8 11.1998 25.7 10.2998 25.5V27.5C11.0998 27.6 11.9998 27.7 12.8998 27.7C16.2998 27.7 19.4998 26.5 21.9998 24.6L21.5998 22.4Z" fill="#CCD8E5"/>
    <path d="M21.6998 22.8L21.3998 21.1H10.2998V22.8H21.6998Z" fill="#CCD8E5"/>
    <path d="M12.9 25.8C20.0245 25.8 25.8 20.0245 25.8 12.9C25.8 5.77553 20.0245 0 12.9 0C5.77555 0 0 5.77553 0 12.9C0 20.0245 5.77555 25.8 12.9 25.8Z" fill="#F3A33A"/>
    <path d="M12.9998 11.6C12.3998 11.6 11.7998 11.2 11.6998 10.5C11.4998 9.69995 12.1998 8.89995 12.9998 8.89995C13.4998 8.89995 13.8998 9.19995 14.0998 9.59995C14.2998 9.99995 14.7998 10.3 15.2998 10.3C16.2998 10.3 16.9998 9.19995 16.4998 8.29995C15.9998 7.49995 15.2998 6.79995 14.3998 6.49995C14.3998 5.79995 13.7998 5.19995 13.0998 5.19995H12.8998C12.1998 5.19995 11.5998 5.79995 11.5998 6.49995C9.5998 7.19995 8.29981 9.59995 9.29981 12C9.89981 13.5 11.4998 14.3 13.0998 14.4C13.7998 14.4 14.2998 15 14.2998 15.7C14.2998 16.4 13.6998 17 12.9998 17C12.4998 17 12.0998 16.7 11.8998 16.3C11.6998 15.9 11.1998 15.6 10.6998 15.6C9.69978 15.6 8.99976 16.7 9.49976 17.6C9.99976 18.4 10.6998 19.1 11.5998 19.4C11.5998 20.1 12.1998 20.7 12.8998 20.7H13.0998C13.7998 20.7 14.3998 20.1 14.3998 19.4C15.9998 18.8 17.0998 17.3 17.0998 15.6C16.9998 13.4 15.1998 11.6 12.9998 11.6Z" fill="white"/>
</svg>
