<svg width="37" height="48" viewBox="0 0 37 48" fill="none" xmlns="http://www.w3.org/2000/svg">
    <path d="M35.7 17.925H1C0.4 17.925 0 17.525 0 16.925V13.625C0 13.025 0.4 12.625 1 12.625H35.7C36.3 12.625 36.7 13.025 36.7 13.625V16.925C36.7 17.525 36.2 17.925 35.7 17.925Z" fill="#F3A33A"/>
    <path d="M34.0001 17.925H2.6001L10.9001 29.0251C13.0001 31.9251 14.2001 35.4251 14.2001 39.0251C14.2001 39.3251 14.4001 39.5251 14.6001 39.6251L21.4001 41.725C21.8001 41.825 22.2001 41.5251 22.2001 41.1251V39.425C22.2001 35.825 23.4001 32.325 25.5001 29.425L34.0001 17.925Z" fill="#F6F6FA"/>
    <path d="M4.50012 20.5251H32.1001L34.0001 17.925H2.6001L4.50012 20.5251Z" fill="#CCD8E5"/>
    <path d="M8.60019 2.725V1.82501C8.60019 1.12501 8.20019 0.525 7.60019 0.225C7.00019 -0.075 6.3002 -0.075 5.7002 0.225C5.1002 0.525 4.7002 1.22501 4.7002 1.82501V2.725C4.7002 3.325 5.00021 3.82502 5.50021 4.12502C6.20021 4.52502 7.00019 4.52502 7.60019 4.12502C8.30019 3.82502 8.60019 3.225 8.60019 2.725Z" fill="#DFE8F4"/>
    <path d="M9.5 10.425H3.89999C3.09999 10.425 2.5 9.82496 2.5 9.02496C2.5 6.72496 4.39998 4.82495 6.69998 4.82495C8.99998 4.82495 10.9 6.72496 10.9 9.02496C10.9 9.82496 10.3 10.425 9.5 10.425Z" fill="#CCD8E5"/>
    <path d="M20.2003 2.725V1.82501C20.2003 1.12501 19.8003 0.525 19.2003 0.225C18.6003 -0.075 17.9003 -0.075 17.3003 0.225C16.7003 0.525 16.3003 1.22501 16.3003 1.82501V2.725C16.3003 3.325 16.6003 3.82502 17.1003 4.12502C17.8003 4.52502 18.6003 4.52502 19.2003 4.12502C19.9003 3.82502 20.2003 3.225 20.2003 2.725Z" fill="#DFE8F4"/>
    <path d="M21.1001 10.425H15.5001C14.7001 10.425 14.1001 9.82496 14.1001 9.02496C14.1001 6.72496 16.0001 4.82495 18.3001 4.82495C20.6001 4.82495 22.5001 6.72496 22.5001 9.02496C22.5001 9.82496 21.8001 10.425 21.1001 10.425Z" fill="#CCD8E5"/>
    <path d="M31.7999 2.725V1.82501C31.7999 1.12501 31.3999 0.525 30.7999 0.225C30.1999 -0.075 29.4999 -0.075 28.8999 0.225C28.2999 0.525 27.8999 1.22501 27.8999 1.82501V2.725C27.8999 3.325 28.1999 3.82502 28.6999 4.12502C29.3999 4.52502 30.1999 4.52502 30.7999 4.12502C31.3999 3.82502 31.7999 3.225 31.7999 2.725Z" fill="#DFE8F4"/>
    <path d="M32.6001 10.425H27.0001C26.2001 10.425 25.6001 9.82496 25.6001 9.02496C25.6001 6.72496 27.5001 4.82495 29.8001 4.82495C32.1001 4.82495 34.0001 6.72496 34.0001 9.02496C34.0001 9.82496 33.4001 10.425 32.6001 10.425Z" fill="#CCD8E5"/>
    <path d="M22.8999 46.0249C20.2999 48.6249 16.1999 48.6249 13.5999 46.0249C10.9999 43.4249 10.9999 39.3249 13.5999 36.7249L17.6999 32.6249C17.9999 32.3249 18.5999 32.3249 18.8999 32.6249L22.9999 36.7249C25.4999 39.2249 25.4999 43.4249 22.8999 46.0249Z" fill="#F3A33A"/>
    <path d="M18.3 40.225C18 40.225 17.6 40.025 17.6 39.625C17.5 39.225 17.9 38.825 18.3 38.825C18.6 38.825 18.8 38.925 18.9 39.125C19 39.325 19.3 39.425 19.5 39.425C20 39.425 20.4 38.825 20.2 38.325C19.9 37.925 19.5 37.525 19.1 37.325C19.1 36.925 18.8 36.625 18.4 36.625H18.3C17.9 36.625 17.6 36.925 17.6 37.325C16.5 37.725 15.8 38.925 16.4 40.225C16.7 41.025 17.5 41.425 18.4 41.525C18.8 41.525 19.1 41.825 19.1 42.225C19.1 42.625 18.8 42.925 18.4 42.925C18.1 42.925 17.9 42.825 17.8 42.625C17.7 42.425 17.4 42.325 17.2 42.325C16.7 42.325 16.3 42.925 16.5 43.425C16.8 43.825 17.2 44.225 17.6 44.425C17.6 44.825 17.9 45.125 18.3 45.125H18.4C18.8 45.125 19.1 44.825 19.1 44.425C19.9 44.125 20.5 43.325 20.5 42.425C20.5 41.225 19.5 40.325 18.3 40.225Z" fill="white"/>
</svg>
