<svg width="375" height="220" viewBox="0 0 375 220" fill="none" xmlns="http://www.w3.org/2000/svg">
    <path opacity="0.2" d="M502.5 88.6746C502.5 161.578 441.847 220.699 367 220.699C292.153 220.699 231.5 161.578 231.5 88.6746C231.5 15.7715 292.153 -43.3501 367 -43.3501C441.847 -43.3501 502.5 15.7715 502.5 88.6746Z" stroke="white"/>
    <path opacity="0.2" d="M462.5 88.6745C462.5 140.051 419.755 181.721 367 181.721C314.245 181.721 271.5 140.051 271.5 88.6745C271.5 37.2983 314.245 -4.37231 367 -4.37231C419.755 -4.37231 462.5 37.2983 462.5 88.6745Z" stroke="white"/>
    <path opacity="0.2" d="M184.834 104.416C184.898 105.885 184.943 107.359 184.971 108.837C184.695 108.841 184.475 109.068 184.479 109.344C184.493 110.248 184.5 111.154 184.5 112.061C184.5 112.969 184.493 113.875 184.479 114.779C184.475 115.055 184.695 115.282 184.971 115.286C184.943 116.764 184.898 118.238 184.834 119.707C184.558 119.695 184.325 119.908 184.312 120.183C184.228 121.993 184.116 123.796 183.977 125.592C183.955 125.867 184.161 126.107 184.436 126.129C184.317 127.601 184.18 129.069 184.025 130.531C183.751 130.501 183.504 130.699 183.474 130.974C183.278 132.774 183.054 134.566 182.803 136.349C182.764 136.622 182.954 136.875 183.227 136.914C183.016 138.378 182.787 139.836 182.54 141.288C182.269 141.241 182.01 141.424 181.963 141.695C181.655 143.476 181.319 145.247 180.957 147.009C180.901 147.279 181.075 147.543 181.345 147.599C181.043 149.048 180.722 150.491 180.384 151.927C180.115 151.863 179.846 152.029 179.782 152.297C179.362 154.054 178.916 155.801 178.443 157.537C178.371 157.804 178.527 158.078 178.793 158.151C178.401 159.577 177.99 160.995 177.563 162.406C177.299 162.326 177.02 162.474 176.939 162.738C176.409 164.466 175.853 166.183 175.272 167.888C175.182 168.149 175.322 168.433 175.583 168.522C175.102 169.918 174.604 171.306 174.089 172.686C173.83 172.59 173.542 172.72 173.445 172.978C172.808 174.67 172.146 176.349 171.457 178.016C171.352 178.271 171.473 178.564 171.728 178.669C171.161 180.033 170.576 181.388 169.975 182.735C169.724 182.622 169.428 182.734 169.315 182.986C168.574 184.632 167.808 186.266 167.018 187.886C166.897 188.134 167 188.433 167.248 188.554C166.596 189.88 165.928 191.197 165.244 192.505C165 192.376 164.698 192.47 164.569 192.714C163.728 194.311 162.863 195.894 161.973 197.462C161.837 197.702 161.921 198.007 162.161 198.143C161.429 199.426 160.681 200.699 159.917 201.962C159.682 201.819 159.374 201.893 159.231 202.129C158.293 203.671 157.331 205.198 156.346 206.709C156.196 206.94 156.261 207.25 156.492 207.401C155.682 208.635 154.858 209.86 154.018 211.073C153.792 210.916 153.481 210.972 153.323 211.198C152.292 212.68 151.239 214.145 150.163 215.594C149.999 215.815 150.045 216.128 150.266 216.293C149.383 217.475 148.485 218.647 147.573 219.807C147.356 219.637 147.042 219.674 146.871 219.89C145.752 221.306 144.612 222.704 143.45 224.085C143.272 224.296 143.299 224.611 143.51 224.789C142.557 225.916 141.59 227.031 140.609 228.134C140.403 227.951 140.088 227.968 139.904 228.174C138.701 229.519 137.478 230.846 136.235 232.155C136.045 232.355 136.053 232.671 136.253 232.861C135.234 233.928 134.201 234.983 133.155 236.026C132.961 235.83 132.645 235.829 132.449 236.023C131.168 237.293 129.867 238.544 128.548 239.775C128.346 239.964 128.335 240.28 128.523 240.482C127.442 241.486 126.347 242.477 125.241 243.455C125.058 243.248 124.743 243.228 124.535 243.41C123.181 244.601 121.808 245.772 120.418 246.923C120.205 247.098 120.175 247.413 120.351 247.626C119.211 248.563 118.06 249.487 116.897 250.398C116.728 250.18 116.414 250.141 116.196 250.311C114.773 251.419 113.332 252.506 111.874 253.573C111.651 253.736 111.603 254.048 111.765 254.271C110.573 255.138 109.369 255.992 108.155 256.831C107.998 256.604 107.687 256.546 107.46 256.703C105.974 257.724 104.471 258.723 102.952 259.701C102.72 259.851 102.653 260.16 102.802 260.392C101.56 261.187 100.307 261.968 99.0436 262.734C98.9009 262.498 98.5939 262.422 98.3576 262.565C96.8144 263.495 95.2557 264.404 93.6822 265.29C93.4417 265.425 93.3565 265.73 93.4915 265.97C92.2037 266.691 90.906 267.396 89.5987 268.087C89.4702 267.843 89.1682 267.749 88.9239 267.877C87.3287 268.714 85.7191 269.528 84.0957 270.319C83.8477 270.44 83.7446 270.739 83.8651 270.987C82.538 271.63 81.2018 272.257 79.8566 272.868C79.7428 272.617 79.447 272.505 79.1955 272.619C77.5522 273.361 75.8955 274.079 74.226 274.774C73.9713 274.88 73.8506 275.172 73.9562 275.427C72.5949 275.989 71.2251 276.535 69.8471 277.066C69.7484 276.808 69.4597 276.679 69.2019 276.778C67.5182 277.421 65.8221 278.04 64.1143 278.635C63.8538 278.726 63.716 279.01 63.8064 279.271C62.4136 279.752 61.013 280.217 59.6048 280.665C59.5214 280.402 59.2408 280.257 58.9777 280.34C57.2608 280.882 55.5326 281.399 53.7937 281.892C53.5282 281.967 53.374 282.243 53.4488 282.509C52.0279 282.908 50.5998 283.29 49.1648 283.655C49.0971 283.388 48.8256 283.226 48.558 283.293C46.8143 283.732 45.0605 284.147 43.2969 284.537C43.0275 284.596 42.8572 284.862 42.9164 285.132C41.4759 285.446 40.029 285.743 38.5759 286.024C38.524 285.753 38.2624 285.575 37.9914 285.627C36.2233 285.963 34.446 286.275 32.66 286.561C32.3876 286.605 32.202 286.861 32.2453 287.133C30.7912 287.362 29.3314 287.574 27.866 287.769C27.8299 287.496 27.5792 287.303 27.3056 287.339C25.5183 287.572 23.7228 287.779 21.9194 287.961C21.6449 287.989 21.4448 288.234 21.4721 288.508C20.0099 288.652 18.5425 288.779 17.0702 288.888C17.0501 288.613 16.8109 288.407 16.5357 288.426C14.7393 288.555 12.9355 288.659 11.1248 288.737C10.8491 288.748 10.6352 288.981 10.6467 289.257C9.17725 289.316 7.70331 289.358 6.22508 289.383C6.22079 289.108 5.9939 288.887 5.718 288.891C4.81358 288.904 3.90758 288.911 3 288.911C2.09236 288.911 1.18629 288.904 0.28183 288.891C0.00592041 288.887 -0.220963 289.108 -0.225266 289.383C-1.70351 289.358 -3.17744 289.316 -4.64688 289.257C-4.63539 288.981 -4.84933 288.748 -5.125 288.737C-6.93567 288.659 -8.73943 288.555 -10.5359 288.426C-10.8111 288.406 -11.0503 288.613 -11.0704 288.888C-12.5427 288.779 -14.01 288.652 -15.4723 288.508C-15.4449 288.234 -15.6451 287.989 -15.9196 287.961C-17.723 287.779 -19.5185 287.572 -21.3058 287.339C-21.5793 287.303 -21.8301 287.496 -21.8661 287.769C-23.3315 287.574 -24.7913 287.362 -26.2454 287.133C-26.2021 286.861 -26.3877 286.605 -26.6601 286.561C-28.4462 286.275 -30.2234 285.963 -31.9915 285.627C-32.2626 285.575 -32.5241 285.753 -32.576 286.024C-34.0292 285.743 -35.476 285.446 -36.9165 285.132C-36.8573 284.862 -37.0276 284.596 -37.297 284.536C-39.0606 284.147 -40.8145 283.732 -42.5581 283.293C-42.8257 283.226 -43.0972 283.388 -43.1649 283.655C-44.5999 283.29 -46.028 282.907 -47.4489 282.509C-47.3741 282.243 -47.5284 281.967 -47.7938 281.892C-49.5327 281.399 -51.2609 280.882 -52.9778 280.34C-53.2409 280.257 -53.5215 280.402 -53.6049 280.665C-55.0131 280.217 -56.4137 279.752 -57.8065 279.271C-57.7161 279.01 -57.8539 278.726 -58.1144 278.635C-59.8222 278.04 -61.5183 277.421 -63.202 276.778C-63.4598 276.679 -63.7485 276.808 -63.8472 277.066C-65.2252 276.535 -66.595 275.989 -67.9563 275.427C-67.8507 275.172 -67.9713 274.88 -68.2261 274.774C-69.8956 274.079 -71.5522 273.361 -73.1955 272.619C-73.447 272.505 -73.7429 272.617 -73.8567 272.868C-75.2019 272.257 -76.5381 271.63 -77.8651 270.987C-77.7446 270.739 -77.8478 270.44 -78.0958 270.319C-79.7192 269.528 -81.3287 268.714 -82.924 267.877C-83.1683 267.749 -83.4702 267.842 -83.5987 268.087C-84.9061 267.396 -86.2038 266.69 -87.4916 265.97C-87.3565 265.729 -87.4418 265.425 -87.6822 265.29C-89.2558 264.404 -90.8144 263.495 -92.3577 262.565C-92.594 262.422 -92.901 262.498 -93.0437 262.734C-94.3069 261.968 -95.5598 261.187 -96.8022 260.392C-96.6531 260.16 -96.7202 259.851 -96.9522 259.701C-98.4709 258.723 -99.9736 257.723 -101.46 256.703C-101.687 256.546 -101.998 256.604 -102.155 256.831C-103.369 255.992 -104.573 255.138 -105.765 254.271C-105.603 254.048 -105.651 253.736 -105.874 253.573C-107.332 252.506 -108.773 251.419 -110.196 250.311C-110.414 250.141 -110.728 250.18 -110.897 250.398C-112.06 249.487 -113.211 248.563 -114.351 247.626C-114.175 247.413 -114.205 247.098 -114.418 246.923C-115.808 245.772 -117.181 244.601 -118.535 243.41C-118.743 243.228 -119.058 243.248 -119.241 243.455C-120.347 242.477 -121.442 241.486 -122.523 240.482C-122.335 240.28 -122.346 239.964 -122.548 239.775C-123.867 238.544 -125.168 237.293 -126.449 236.023C-126.645 235.829 -126.961 235.83 -127.155 236.026C-128.201 234.983 -129.234 233.928 -130.253 232.861C-130.053 232.671 -130.045 232.355 -130.235 232.155C-131.478 230.846 -132.701 229.519 -133.904 228.174C-134.088 227.968 -134.403 227.951 -134.609 228.134C-135.59 227.031 -136.557 225.916 -137.51 224.789C-137.299 224.611 -137.272 224.296 -137.45 224.085C-138.612 222.704 -139.752 221.305 -140.871 219.89C-141.042 219.674 -141.356 219.637 -141.573 219.807C-142.485 218.647 -143.383 217.475 -144.266 216.293C-144.045 216.128 -143.999 215.815 -144.163 215.593C-145.239 214.145 -146.292 212.679 -147.323 211.198C-147.481 210.972 -147.792 210.916 -148.018 211.073C-148.858 209.859 -149.682 208.635 -150.492 207.401C-150.261 207.25 -150.196 206.94 -150.346 206.709C-151.331 205.198 -152.293 203.671 -153.231 202.129C-153.374 201.893 -153.682 201.818 -153.917 201.962C-154.681 200.699 -155.429 199.426 -156.161 198.143C-155.921 198.007 -155.837 197.702 -155.973 197.462C-156.863 195.894 -157.728 194.311 -158.569 192.714C-158.698 192.47 -159 192.376 -159.244 192.504C-159.928 191.197 -160.596 189.88 -161.248 188.554C-161 188.433 -160.897 188.134 -161.018 187.886C-161.809 186.266 -162.574 184.632 -163.315 182.986C-163.428 182.734 -163.724 182.622 -163.975 182.734C-164.576 181.388 -165.161 180.033 -165.728 178.669C-165.473 178.563 -165.352 178.271 -165.457 178.016C-166.146 176.349 -166.808 174.67 -167.445 172.978C-167.543 172.72 -167.83 172.589 -168.089 172.686C-168.604 171.306 -169.102 169.918 -169.583 168.522C-169.322 168.433 -169.183 168.149 -169.272 167.888C-169.853 166.182 -170.409 164.466 -170.939 162.738C-171.02 162.474 -171.299 162.325 -171.563 162.406C-171.991 160.995 -172.401 159.576 -172.794 158.151C-172.527 158.078 -172.371 157.804 -172.443 157.537C-172.916 155.801 -173.362 154.054 -173.782 152.297C-173.846 152.029 -174.115 151.863 -174.384 151.927C-174.722 150.491 -175.043 149.048 -175.345 147.599C-175.075 147.543 -174.901 147.279 -174.957 147.009C-175.319 145.247 -175.655 143.476 -175.963 141.695C-176.01 141.423 -176.269 141.241 -176.54 141.288C-176.787 139.836 -177.016 138.378 -177.227 136.914C-176.954 136.875 -176.764 136.622 -176.803 136.349C-177.054 134.565 -177.278 132.773 -177.474 130.973C-177.504 130.699 -177.751 130.501 -178.025 130.53C-178.18 129.068 -178.317 127.601 -178.436 126.129C-178.161 126.107 -177.955 125.867 -177.977 125.592C-178.116 123.796 -178.228 121.993 -178.312 120.183C-178.325 119.907 -178.558 119.694 -178.834 119.707C-178.898 118.238 -178.943 116.764 -178.971 115.286C-178.695 115.282 -178.475 115.054 -178.479 114.779C-178.493 113.874 -178.5 112.969 -178.5 112.061C-178.5 111.154 -178.493 110.248 -178.479 109.344C-178.475 109.068 -178.695 108.841 -178.971 108.836C-178.943 107.358 -178.898 105.885 -178.834 104.416C-178.558 104.428 -178.325 104.215 -178.312 103.94C-178.228 102.129 -178.116 100.326 -177.977 98.5308C-177.955 98.2557 -178.161 98.0154 -178.436 97.9937C-178.317 96.5214 -178.18 95.0541 -178.025 93.5921C-177.751 93.6217 -177.504 93.4235 -177.474 93.1492C-177.278 91.3492 -177.054 89.5572 -176.803 87.7737C-176.764 87.5005 -176.954 87.2478 -177.227 87.2089C-177.016 85.7451 -176.787 84.287 -176.54 82.8349C-176.269 82.8816 -176.01 82.6992 -175.963 82.4274C-175.655 80.6471 -175.319 78.8758 -174.957 77.114C-174.901 76.8437 -175.075 76.5796 -175.345 76.5236C-175.043 75.0746 -174.722 73.632 -174.384 72.1961C-174.115 72.2598 -173.846 72.0941 -173.782 71.8257C-173.362 70.0687 -172.916 68.3218 -172.443 66.5853C-172.371 66.3191 -172.527 66.0446 -172.793 65.9717C-172.401 64.5462 -171.99 63.1278 -171.563 61.7168C-171.299 61.7972 -171.02 61.6488 -170.939 61.385C-170.409 59.6571 -169.853 57.9402 -169.272 56.2349C-169.182 55.9738 -169.322 55.6899 -169.583 55.6005C-169.102 54.2046 -168.604 52.8165 -168.089 51.4364C-167.83 51.5332 -167.542 51.4026 -167.445 51.1444C-166.808 49.4528 -166.146 47.7733 -165.457 46.1064C-165.352 45.8513 -165.473 45.5593 -165.728 45.4537C-165.161 44.09 -164.576 42.7348 -163.975 41.3882C-163.724 41.501 -163.428 41.3887 -163.315 41.137C-162.574 39.4905 -161.808 37.857 -161.018 36.237C-160.897 35.9891 -161 35.69 -161.248 35.5688C-160.596 34.2427 -159.928 32.9258 -159.244 31.6183C-159 31.7465 -158.698 31.6527 -158.569 31.4086C-157.728 29.8117 -156.863 28.2289 -155.973 26.6606C-155.837 26.4206 -155.921 26.1158 -156.161 25.9794C-155.429 24.6968 -154.681 23.424 -153.917 22.1612C-153.682 22.3043 -153.374 22.2293 -153.231 21.9936C-152.293 20.4517 -151.331 18.9248 -150.346 17.4135C-150.196 17.1823 -150.261 16.8729 -150.492 16.722C-149.682 15.4874 -148.858 14.2633 -148.018 13.0498C-147.792 13.207 -147.481 13.151 -147.323 12.9246C-146.292 11.4433 -145.239 9.97801 -144.163 8.52925C-143.999 8.30771 -144.045 7.99488 -144.266 7.83017C-143.383 6.6474 -142.485 5.47569 -141.573 4.31528C-141.356 4.48604 -141.042 4.44914 -140.871 4.2327C-139.752 2.81725 -138.612 1.41878 -137.45 0.0377426C-137.272 -0.173409 -137.299 -0.488464 -137.51 -0.666298C-136.557 -1.79306 -135.59 -2.90817 -134.609 -4.01136C-134.403 -3.8278 -134.088 -3.84561 -133.904 -4.0513C-132.701 -5.3962 -131.478 -6.72321 -130.235 -8.03188C-130.045 -8.23193 -130.053 -8.54805 -130.253 -8.73828C-129.234 -9.80547 -128.201 -10.8604 -127.155 -11.9028C-126.961 -11.7072 -126.644 -11.706 -126.449 -11.9002C-125.168 -13.1699 -123.867 -14.4209 -122.548 -15.6526C-122.346 -15.8409 -122.335 -16.1569 -122.523 -16.3588C-121.442 -17.363 -120.347 -18.3543 -119.241 -19.3326C-119.058 -19.1257 -118.743 -19.1055 -118.535 -19.2877C-117.181 -20.4781 -115.808 -21.649 -114.418 -22.7998C-114.205 -22.9757 -114.175 -23.2905 -114.351 -23.5033C-113.211 -24.4406 -112.06 -25.3645 -110.897 -26.2748C-110.728 -26.0574 -110.414 -26.0185 -110.196 -26.1879C-108.773 -27.2959 -107.332 -28.3835 -105.874 -29.4501C-105.651 -29.613 -105.603 -29.9255 -105.765 -30.1483C-104.573 -31.0156 -103.369 -31.869 -102.155 -32.7082C-101.998 -32.4811 -101.687 -32.4236 -101.46 -32.5798C-99.9735 -33.6007 -98.4708 -34.6005 -96.9521 -35.5786C-96.7202 -35.728 -96.6531 -36.037 -96.8021 -36.2691C-95.5598 -37.0644 -94.3069 -37.8453 -93.0436 -38.6116C-92.9009 -38.3755 -92.5939 -38.2996 -92.3576 -38.4421C-90.8144 -39.3724 -89.2557 -40.2808 -87.6822 -41.1668C-87.4418 -41.3022 -87.3565 -41.6067 -87.4915 -41.8472C-86.2037 -42.5678 -84.906 -43.2734 -83.5986 -43.9638C-83.4702 -43.7198 -83.1682 -43.6258 -82.9239 -43.754C-81.3287 -44.5909 -79.7191 -45.4053 -78.0957 -46.1966C-77.8477 -46.3175 -77.7446 -46.6164 -77.8651 -46.8645C-76.538 -47.5069 -75.2018 -48.134 -73.8566 -48.7455C-73.7428 -48.4943 -73.447 -48.3826 -73.1955 -48.4961C-71.5521 -49.2377 -69.8955 -49.9562 -68.226 -50.6509C-67.9713 -50.7569 -67.8506 -51.0492 -67.9562 -51.304C-66.5949 -51.8661 -65.2252 -52.4126 -63.8471 -52.9431C-63.7484 -52.6856 -63.4597 -52.5566 -63.2019 -52.655C-61.5182 -53.298 -59.8221 -53.9172 -58.1143 -54.5121C-57.8538 -54.6029 -57.716 -54.8875 -57.8064 -55.1481C-56.4136 -55.6291 -55.013 -56.094 -53.6048 -56.5426C-53.5214 -56.2797 -53.2408 -56.1339 -52.9777 -56.217C-51.2607 -56.7588 -49.5326 -57.2764 -47.7937 -57.7693C-47.5282 -57.8446 -47.374 -58.1206 -47.4488 -58.3861C-46.0279 -58.7847 -44.5998 -59.1669 -43.1648 -59.5325C-43.0971 -59.2651 -42.8256 -59.103 -42.558 -59.1704C-40.8143 -59.6096 -39.0605 -60.0242 -37.2969 -60.4137C-37.0275 -60.4733 -36.8572 -60.7397 -36.9163 -61.0092C-35.4759 -61.3232 -34.029 -61.6207 -32.5759 -61.9013C-32.524 -61.6304 -32.2624 -61.4527 -31.9914 -61.5042C-30.2233 -61.8407 -28.446 -62.1521 -26.66 -62.4382C-26.3876 -62.4818 -26.202 -62.7379 -26.2453 -63.0103C-24.7912 -63.2392 -23.3314 -63.4513 -21.866 -63.6463C-21.8299 -63.3729 -21.5792 -63.1802 -21.3056 -63.2159C-19.5183 -63.4489 -17.7228 -63.6566 -15.9194 -63.8386C-15.6449 -63.8663 -15.4448 -64.1112 -15.4721 -64.3856C-14.0098 -64.5293 -12.5425 -64.656 -11.0702 -64.7657C-11.0501 -64.4906 -10.811 -64.2837 -10.5357 -64.3035C-8.73924 -64.4325 -6.93549 -64.5361 -5.12482 -64.6138C-4.84914 -64.6257 -4.63521 -64.8585 -4.64668 -65.1341C-3.17725 -65.1933 -1.70331 -65.2355 -0.225082 -65.2606C-0.220779 -64.9848 0.00610352 -64.7645 0.281998 -64.7684C1.18642 -64.7814 2.09242 -64.7878 3 -64.7878C3.90764 -64.7878 4.81371 -64.7814 5.71817 -64.7684C5.99408 -64.7645 6.22096 -64.9847 6.22527 -65.2606C7.70351 -65.2355 9.17744 -65.1933 10.6469 -65.1341C10.6354 -64.8585 10.8493 -64.6256 11.125 -64.6138C12.9357 -64.5361 14.7394 -64.4325 16.5359 -64.3035C16.8111 -64.2837 17.0503 -64.4906 17.0704 -64.7657C18.5427 -64.656 20.01 -64.5293 21.4723 -64.3856C21.4449 -64.1112 21.6451 -63.8663 21.9196 -63.8386C23.723 -63.6566 25.5185 -63.4489 27.3058 -63.2158C27.5793 -63.1802 27.8301 -63.3729 27.8661 -63.6463C29.3315 -63.4512 30.7913 -63.2392 32.2454 -63.0103C32.2021 -62.7379 32.3877 -62.4818 32.6602 -62.4382C34.4462 -62.1521 36.2234 -61.8407 37.9915 -61.5042C38.2626 -61.4526 38.5241 -61.6304 38.576 -61.9013C40.0292 -61.6207 41.476 -61.3232 42.9165 -61.0091C42.8574 -60.7397 43.0276 -60.4732 43.297 -60.4137C45.0606 -60.0242 46.8145 -59.6096 48.5581 -59.1704C48.8257 -59.103 49.0972 -59.2651 49.1649 -59.5325C50.5999 -59.1669 52.028 -58.7847 53.449 -58.3861C53.3741 -58.1206 53.5284 -57.8445 53.7938 -57.7693C55.5327 -57.2764 57.2609 -56.7588 58.9778 -56.2169C59.2409 -56.1339 59.5215 -56.2797 59.6049 -56.5426C61.0131 -56.094 62.4137 -55.6291 63.8065 -55.1481C63.7161 -54.8875 63.8539 -54.6029 64.1144 -54.5121C65.8223 -53.9171 67.5183 -53.298 69.202 -52.655C69.4598 -52.5565 69.7485 -52.6855 69.8472 -52.9431C71.2253 -52.4125 72.595 -51.8661 73.9563 -51.304C73.8507 -51.0492 73.9713 -50.7569 74.2261 -50.6509C75.8956 -49.9561 77.5522 -49.2377 79.1956 -48.496C79.4471 -48.3825 79.7429 -48.4942 79.8567 -48.7455C81.2019 -48.134 82.5381 -47.5069 83.8651 -46.8645C83.7446 -46.6164 83.8478 -46.3175 84.0958 -46.1966C85.7192 -45.4052 87.3288 -44.5909 88.924 -43.7539C89.1683 -43.6258 89.4702 -43.7197 89.5987 -43.9638C90.9061 -43.2733 92.2037 -42.5677 93.4915 -41.8472C93.3565 -41.6067 93.4418 -41.3022 93.6823 -41.1668C95.2558 -40.2808 96.8144 -39.3724 98.3577 -38.442C98.594 -38.2996 98.9009 -38.3755 99.0437 -38.6115C100.307 -37.8453 101.56 -37.0644 102.802 -36.2691C102.653 -36.037 102.72 -35.728 102.952 -35.5786C104.471 -34.6005 105.974 -33.6007 107.46 -32.5797C107.687 -32.4235 107.998 -32.4811 108.155 -32.7082C109.369 -31.869 110.573 -31.0156 111.765 -30.1483C111.603 -29.9255 111.651 -29.613 111.874 -29.4501C113.332 -28.3834 114.773 -27.2959 116.196 -26.1879C116.414 -26.0184 116.728 -26.0574 116.897 -26.2748C118.06 -25.3645 119.211 -24.4406 120.351 -23.5032C120.175 -23.2905 120.205 -22.9757 120.418 -22.7998C121.808 -21.649 123.181 -20.4781 124.535 -19.2877C124.743 -19.1055 125.058 -19.1257 125.241 -19.3326C126.347 -18.3543 127.442 -17.363 128.523 -16.3588C128.335 -16.1569 128.346 -15.8409 128.548 -15.6526C129.867 -14.4209 131.168 -13.1699 132.449 -11.9002C132.645 -11.706 132.961 -11.7072 133.155 -11.9028C134.201 -10.8604 135.234 -9.80546 136.253 -8.73827C136.053 -8.54804 136.045 -8.23192 136.235 -8.03186C137.478 -6.72319 138.701 -5.39618 139.904 -4.05128C140.088 -3.8456 140.403 -3.82778 140.609 -4.01134C141.59 -2.90814 142.557 -1.79304 143.51 -0.666267C143.299 -0.488434 143.272 -0.173386 143.45 0.0377655C144.612 1.41881 145.752 2.81728 146.871 4.23273C147.042 4.44917 147.356 4.48607 147.573 4.3153C148.485 5.47572 149.383 6.64744 150.266 7.83021C150.045 7.99491 149.999 8.30775 150.163 8.52928C151.239 9.97805 152.292 11.4433 153.323 12.9246C153.481 13.1511 153.792 13.207 154.018 13.0498C154.858 14.2633 155.682 15.4875 156.492 16.7221C156.261 16.8729 156.196 17.1824 156.346 17.4135C157.331 18.9249 158.293 20.4517 159.231 21.9937C159.374 22.2294 159.682 22.3043 159.917 22.1613C160.681 23.4241 161.429 24.6969 162.161 25.9795C161.921 26.1159 161.837 26.4207 161.973 26.6607C162.863 28.229 163.728 29.8118 164.569 31.4087C164.698 31.6528 165 31.7466 165.244 31.6183C165.928 32.9259 166.596 34.2428 167.248 35.5688C167 35.6901 166.897 35.9892 167.018 36.2371C167.809 37.8571 168.574 39.4905 169.315 41.1371C169.428 41.3887 169.724 41.5011 169.975 41.3883C170.576 42.7349 171.161 44.0901 171.728 45.4538C171.473 45.5594 171.352 45.8514 171.457 46.1065C172.146 47.7734 172.808 49.4529 173.445 51.1445C173.543 51.4027 173.831 51.5333 174.089 51.4365C174.604 52.8166 175.102 54.2047 175.583 55.6006C175.322 55.69 175.183 55.9739 175.272 56.235C175.853 57.9403 176.409 59.6572 176.939 61.3851C177.02 61.6489 177.299 61.7973 177.563 61.7169C177.991 63.128 178.401 64.5464 178.794 65.9719C178.527 66.0447 178.371 66.3193 178.443 66.5855C178.916 68.3219 179.362 70.0689 179.782 71.8259C179.846 72.0942 180.115 72.2599 180.384 72.1962C180.722 73.6322 181.043 75.0748 181.345 76.5238C181.075 76.5797 180.901 76.8439 180.957 77.1141C181.319 78.8759 181.655 80.6472 181.963 82.4276C182.01 82.6994 182.269 82.8817 182.54 82.8351C182.788 84.2872 183.016 85.7453 183.227 87.2091C182.954 87.2479 182.764 87.5007 182.803 87.7738C183.054 89.5574 183.278 91.3493 183.474 93.1494C183.504 93.4237 183.751 93.6219 184.025 93.5923C184.18 95.0543 184.317 96.5215 184.436 97.9939C184.161 98.0156 183.955 98.2559 183.977 98.531C184.116 100.327 184.228 102.13 184.312 103.94C184.325 104.215 184.558 104.428 184.834 104.416Z" stroke="url(#paint0_linear)" stroke-linecap="round" stroke-dasharray="5.5 5.5"/>
    <path d="M31 97.4446C31 116.127 15.4282 131.448 -4 131.448C-23.4282 131.448 -39 116.127 -39 97.4446C-39 78.762 -23.4282 63.4412 -4 63.4412C15.4282 63.4412 31 78.762 31 97.4446Z" stroke="url(#paint1_linear)" stroke-width="8"/>
    <defs>
        <linearGradient id="paint0_linear" x1="219" y1="112.061" x2="26.8414" y2="204.561" gradientUnits="userSpaceOnUse">
            <stop stop-color="white"/>
            <stop offset="1" stop-color="white" stop-opacity="0"/>
        </linearGradient>
        <linearGradient id="paint1_linear" x1="-79.5" y1="-3.89785" x2="41.3474" y2="138.547" gradientUnits="userSpaceOnUse">
            <stop stop-color="white"/>
            <stop offset="1" stop-color="white" stop-opacity="0"/>
        </linearGradient>
    </defs>
</svg>
