<svg width="48" height="46" viewBox="0 0 48 46" fill="none" xmlns="http://www.w3.org/2000/svg">
    <path d="M39.4002 43.5L34.1002 35H30.1002L33.5002 40.5H14.4002L17.8002 35H13.8002L8.50024 43.5C8.10024 44.2 8.60024 45.2 9.50024 45.2H10.9002C11.3002 45.2 11.6002 45 11.8002 44.7L13.8002 41.5H34.1002L36.1002 44.7C36.3002 45 36.7002 45.2 37.0002 45.2H38.4002C39.4002 45.2 39.9002 44.2 39.4002 43.5Z" fill="#A073ED"/>
    <path d="M43 38.2H5C2.2 38.2 0 36 0 33.2V5C0 2.2 2.2 0 5 0H43C45.8 0 48 2.2 48 5V33.2C48 36 45.8 38.2 43 38.2Z" fill="#F6F6FA"/>
    <path d="M15.8002 18.8999C14.1002 18.8999 12.7002 19.2999 12.7002 19.7999V21.3999V26.4999C12.7002 26.9999 14.1002 27.3999 15.8002 27.3999C16.2002 27.3999 16.6002 27.3999 16.9002 27.2999C17.0002 27.2999 17.1002 27.2999 17.3002 27.1999C17.3002 27.1999 17.3002 27.1999 17.4002 27.1999C17.5002 27.1999 17.6002 27.1999 17.7002 27.0999C17.7002 27.0999 17.7002 27.0999 17.8002 27.0999C17.9002 27.0999 18.0002 26.9999 18.1002 26.9999C18.1002 26.9999 18.1002 26.9999 18.2002 26.9999C18.3002 26.9999 18.4002 26.8999 18.4002 26.8999C18.5002 26.8999 18.5002 26.7999 18.6002 26.7999C18.7002 26.7999 18.7002 26.6999 18.7002 26.6999L18.8002 26.5999V26.4999V21.3999V19.7999C18.9002 19.2999 17.5002 18.8999 15.8002 18.8999Z" fill="#A073ED"/>
    <path d="M24.0004 14.7999C22.3004 14.7999 20.9004 15.1999 20.9004 15.6999V17.2999V26.4999C20.9004 26.9999 22.3004 27.3999 24.0004 27.3999C24.4004 27.3999 24.8004 27.3999 25.1004 27.2999C25.2004 27.2999 25.3004 27.2999 25.5004 27.1999C25.5004 27.1999 25.5004 27.1999 25.6004 27.1999C25.7004 27.1999 25.8004 27.1999 25.9004 27.0999C25.9004 27.0999 25.9004 27.0999 26.0004 27.0999C26.1004 27.0999 26.2004 26.9999 26.3004 26.9999C26.3004 26.9999 26.3004 26.9999 26.4004 26.9999C26.5004 26.9999 26.6004 26.8999 26.6004 26.8999C26.7004 26.8999 26.7004 26.7999 26.8004 26.7999C26.9004 26.7999 26.9004 26.6999 26.9004 26.6999L27.0004 26.5999V26.4999V17.2999V15.6999C27.1004 15.1999 25.7004 14.7999 24.0004 14.7999Z" fill="#F3A33A"/>
    <path d="M35.3001 11.5999C35.3001 11.0999 33.9001 10.7 32.2001 10.7C30.5001 10.7 29.1001 11.0999 29.1001 11.5999V12.8V26.5999C29.1001 27.0999 30.5001 27.4999 32.2001 27.4999C32.9001 27.4999 33.5001 27.4 34.0001 27.3C34.2001 27.3 34.4001 27.1999 34.6001 27.0999C34.7001 27.0999 34.7001 26.9999 34.8001 26.9999C34.9001 26.9999 34.9001 26.9 35.0001 26.9L35.1001 26.8C35.1001 26.8 35.1001 26.7 35.2001 26.7V26.5999V25.8V25.3V23.7V23.2V21.5999V21.2V19.5999V19.2V17.5999V17.0999V15.4999V14.9999V13.4V12.9V11.5999H35.3001Z" fill="#F9CE46"/>
</svg>
